<svg width="140" height="128" viewBox="0 0 140 128" fill="none" xmlns="http://www.w3.org/2000/svg">
<path d="M44.7508 113.412C43.6101 113.412 42.4694 113.192 41.6796 112.711L1.27233 89.404C0.48261 88.9221 0 88.3088 0 87.564C0 86.6879 0.6581 85.8555 1.75493 85.1983L78.7964 40.7757C80.9024 39.5491 84.0613 39.4176 85.9039 40.4691L126.311 63.7756C127.101 64.2575 127.584 64.8708 127.584 65.6156C127.584 66.4918 126.925 67.3242 125.829 67.9813L48.7432 112.404C47.6025 113.061 46.1547 113.412 44.7508 113.412ZM82.7889 39.9872C81.4289 39.9872 79.981 40.3376 78.8842 40.951L1.84268 85.3736C0.789725 85.9869 0.175497 86.7755 0.175497 87.564C0.175497 88.2212 0.570356 88.7907 1.36007 89.2288L41.7674 112.535C43.5223 113.543 46.6373 113.412 48.6994 112.229L125.741 67.8061C126.794 67.1927 127.408 66.4042 127.408 65.6156C127.408 64.9585 127.013 64.3889 126.223 63.9508L85.8162 40.6443C85.0265 40.2062 83.9296 39.9872 82.7889 39.9872Z" fill="#F5A623"/>
<path d="M127.451 54.8823L121.66 55.8899L85.8589 35.2558C84.0601 34.2043 80.9451 34.3358 78.8392 35.5624L10.353 75.0346L0.0866699 76.787V80.4231C0.0866699 81.0803 0.481524 81.7374 1.31512 82.1755L41.7224 105.482C43.5212 106.533 46.6362 106.402 48.7421 105.175L125.784 60.7528C126.88 60.0956 127.495 59.3071 127.495 58.5185V54.8823H127.451Z" fill="url(#paint0_linear)"/>
<path d="M41.6792 101.802L1.27193 78.4955C-0.526872 77.4441 -0.307509 75.6479 1.75453 74.4651L78.8399 30.0863C80.9019 28.9034 84.0608 28.772 85.8596 29.7796L126.267 53.0861C128.066 54.1376 127.846 55.9338 125.784 57.1166L48.699 101.539C46.6369 102.722 43.478 102.854 41.6792 101.802Z" fill="#24126A"/>
<path d="M125.74 57.1166L48.6988 101.539C46.6368 102.722 43.4779 102.854 41.6791 101.846L1.27176 78.5394C0.569784 78.1451 0.174925 77.5756 0.0871788 77.006C-0.0444411 77.7508 0.350417 78.4955 1.27176 79.0213L41.6791 102.328C43.4779 103.379 46.5929 103.248 48.6988 102.021L125.74 57.5985C126.969 56.8976 127.539 55.9338 127.451 55.1014C127.32 55.8023 126.749 56.5471 125.74 57.1166Z" fill="white"/>
<path opacity="0.51" d="M41.7669 100.926L2.80742 78.4517C1.05249 77.4441 1.27185 75.6917 3.29002 74.5527L78.8837 30.9625C80.9019 29.8234 83.9292 29.692 85.6841 30.6996L124.644 53.1738C126.399 54.1814 126.179 55.9337 124.161 57.0728L48.5673 100.663C46.5491 101.802 43.5219 101.933 41.7669 100.926Z" fill="#453C9E"/>
<path opacity="0.8" d="M44.7069 100.707C43.5662 100.707 42.5132 100.488 41.6796 100.006L2.72015 77.5317C1.93043 77.0936 1.4917 76.4365 1.4917 75.7355C1.4917 74.9032 2.10592 74.027 3.20276 73.4137L78.7965 29.8234C80.8146 28.6406 83.9296 28.5091 85.6846 29.5606L124.644 52.0347C125.434 52.4728 125.873 53.13 125.873 53.8309C125.873 54.6633 125.258 55.5395 124.161 56.1528L48.5678 99.743C47.5148 100.4 46.067 100.707 44.7069 100.707ZM41.8551 99.7868C43.5662 100.751 46.5496 100.663 48.5239 99.524L124.118 55.9337C125.127 55.3642 125.697 54.5757 125.697 53.8309C125.697 53.2176 125.302 52.6481 124.6 52.2538L85.6407 29.7796C83.9296 28.8158 80.9463 28.9034 78.972 30.0425L3.37825 73.6327C2.36917 74.2022 1.79881 74.9908 1.79881 75.7355C1.79881 76.3489 2.19367 76.9184 2.89564 77.3127L41.8551 99.7868Z" fill="url(#paint1_linear)"/>
<path opacity="0.5" d="M41.7672 99.9183L2.80766 77.4441C1.05273 76.4365 1.2721 74.6841 3.29027 73.5451L78.884 29.9548C80.9021 28.8158 83.9294 28.6844 85.6843 29.692L124.644 52.1661C126.399 53.1738 126.179 54.9261 124.161 56.0652L48.5675 99.6554C46.5494 100.794 43.5221 100.926 41.7672 99.9183Z" fill="url(#paint2_linear)"/>
<path opacity="0.4" d="M116.308 55.8899C115.694 56.2404 114.729 56.2404 114.158 55.8899C113.544 55.5395 113.544 54.97 114.158 54.6633C114.772 54.3128 115.738 54.3128 116.308 54.6633C116.922 54.97 116.922 55.5395 116.308 55.8899Z" fill="#24126A"/>
<path opacity="0.4" d="M108.104 49.8881L112.316 52.2976C112.842 52.6042 112.754 53.13 112.184 53.4366C111.57 53.7871 110.692 53.8309 110.166 53.5242L105.954 51.1147C105.427 50.8081 105.515 50.2824 106.085 49.9757C106.7 49.6252 107.577 49.5814 108.104 49.8881Z" fill="#24126A"/>
<path opacity="0.4" d="M84.0612 35.2996L88.2732 37.7091C88.7997 38.0158 88.712 38.5415 88.1416 38.8481C87.5273 39.1986 86.6499 39.2424 86.1234 38.9358L81.9114 36.5262C81.3849 36.2196 81.4726 35.6939 82.043 35.3872C82.6572 35.0805 83.5347 35.0367 84.0612 35.2996Z" fill="#24126A"/>
<path d="M116.308 54.3566C115.694 54.7071 114.729 54.7071 114.158 54.3566C113.544 54.0061 113.544 53.4366 114.158 53.13C114.772 52.7795 115.738 52.7795 116.308 53.13C116.922 53.4804 116.922 54.0061 116.308 54.3566Z" fill="#F5A623"/>
<path d="M108.104 48.3986L112.316 50.8081C112.842 51.1147 112.754 51.6404 112.184 51.9471C111.57 52.2976 110.692 52.3414 110.166 52.0347L105.954 49.6252C105.427 49.3186 105.515 48.7928 106.085 48.4862C106.7 48.1357 107.577 48.0919 108.104 48.3986Z" fill="#F5A623"/>
<path d="M84.0612 33.8101L88.2732 36.2196C88.7997 36.5262 88.712 37.052 88.1416 37.3586C87.5273 37.7091 86.6499 37.7529 86.1234 37.4462L81.9114 35.0367C81.3849 34.7301 81.4726 34.2043 82.043 33.8977C82.6572 33.5472 83.5347 33.5034 84.0612 33.8101Z" fill="#F5A623"/>
<g opacity="0.3">
<path opacity="0.3" d="M139.956 107.41V105.438L139.429 105.132C139.298 106.052 138.201 106.665 137.279 106.796L131.049 110.432L128.329 111.396L119.686 106.928L119.905 106.796C119.159 106.446 118.764 105.657 118.369 104.956L117.799 105.307L117.448 105.394V107.41C117.448 107.804 117.711 108.198 118.194 108.461L126.881 113.455C127.89 114.025 129.557 114.025 130.567 113.455L139.254 108.461C139.736 108.154 140 107.804 140 107.41C139.956 107.453 139.956 107.41 139.956 107.41Z" fill="url(#paint3_linear)"/>
<path opacity="0.3" d="M137.236 106.796L131.006 110.433L128.637 111.265V113.937C129.295 113.937 129.953 113.806 130.479 113.499L139.167 108.505C139.649 108.198 139.913 107.848 139.913 107.453V107.41V105.438L139.43 105.175H139.386C139.211 106.095 138.158 106.665 137.236 106.796Z" fill="#0F054C"/>
<g opacity="0.3">
<path opacity="0.3" d="M126.838 111.528L118.151 106.533C117.142 105.964 117.142 105 118.151 104.387L126.838 99.3925C127.847 98.823 129.514 98.823 130.523 99.3925L139.211 104.387C140.22 104.956 140.22 105.92 139.211 106.533L130.523 111.528C129.514 112.097 127.847 112.097 126.838 111.528Z" fill="url(#paint4_linear)"/>
</g>
<g opacity="0.3">
<path opacity="0.3" d="M126.838 111.528L118.151 106.533C117.142 105.964 117.142 105 118.151 104.387L126.838 99.3925C127.847 98.823 129.514 98.823 130.523 99.3925L139.211 104.387C140.22 104.956 140.22 105.92 139.211 106.533L130.523 111.528C129.514 112.097 127.847 112.097 126.838 111.528Z" fill="#0F054C"/>
</g>
</g>
<path d="M128.678 105.175C128.064 105.175 127.494 105.044 127.055 104.781L118.368 99.7868C117.929 99.524 117.666 99.1735 117.666 98.7792C117.666 98.385 117.929 98.0345 118.368 97.7716L127.055 92.7774C127.976 92.2517 129.424 92.2517 130.346 92.7774L139.033 97.7716C139.472 98.0345 139.735 98.385 139.735 98.7792C139.735 99.1735 139.472 99.524 139.033 99.7868L130.346 104.781C129.863 105.044 129.249 105.175 128.678 105.175ZM128.678 92.5583C128.108 92.5583 127.538 92.6897 127.099 92.9088L118.412 97.903C118.017 98.1221 117.797 98.4288 117.797 98.7792C117.797 99.1297 118.017 99.3926 118.412 99.6554L127.099 104.65C127.976 105.132 129.337 105.132 130.214 104.65L138.901 99.6554C139.296 99.4364 139.515 99.1297 139.515 98.7792C139.515 98.4288 139.296 98.1659 138.901 97.903L130.214 92.9088C129.775 92.6897 129.249 92.5583 128.678 92.5583Z" fill="#F5A623"/>
<path opacity="0.4" d="M139.956 96.8954V93.9164L139.429 93.6097C139.298 94.5297 138.201 95.143 137.279 95.2745L131.049 98.9106L128.329 99.8745L119.686 95.4059L119.905 95.2745C119.159 94.924 118.764 94.1354 118.369 93.4345L117.799 93.785L117.448 93.8726V96.8954C117.448 97.2897 117.711 97.684 118.194 97.9468L126.881 102.941C127.89 103.511 129.557 103.511 130.567 102.941L139.254 97.9468C139.736 97.6402 140 97.2897 140 96.8954C139.956 96.9392 139.956 96.8954 139.956 96.8954Z" fill="#F5A623"/>
<path d="M139.956 94.2669V92.2955L139.429 91.9888C139.298 92.9088 138.201 93.5221 137.279 93.6535L131.049 97.2897L128.329 98.2535L119.686 93.785L119.905 93.6535C119.159 93.3031 118.764 92.5145 118.369 91.8136L117.799 92.164L117.448 92.2516V94.2669C117.448 94.6612 117.711 95.0554 118.194 95.3183L126.881 100.313C127.89 100.882 129.557 100.882 130.567 100.313L139.254 95.3183C139.736 95.0116 140 94.6612 140 94.2669C139.956 94.2669 139.956 94.2669 139.956 94.2669Z" fill="url(#paint5_linear)"/>
<path opacity="0.3" d="M137.236 93.6536L131.006 97.2897L128.637 98.1221V100.794C129.295 100.794 129.953 100.663 130.479 100.356L139.167 95.3621C139.649 95.0554 139.913 94.705 139.913 94.3107V94.2669V92.2955L139.43 92.0326H139.386C139.211 92.9088 138.158 93.5221 137.236 93.6536Z" fill="#0F054C"/>
<path d="M126.838 98.3411L118.151 93.3469C117.142 92.7773 117.142 91.8135 118.151 91.2002L126.838 86.206C127.847 85.6364 129.514 85.6364 130.523 86.206L139.211 91.2002C140.22 91.7697 140.22 92.7335 139.211 93.3031L130.523 98.3411C129.514 98.9544 127.847 98.9544 126.838 98.3411Z" fill="url(#paint6_linear)"/>
<path d="M139.167 93.3469L130.523 98.3411C129.514 98.9107 127.847 98.9107 126.838 98.3411L118.15 93.3469C117.712 93.084 117.448 92.7335 117.405 92.4269C117.361 92.865 117.58 93.3031 118.15 93.6097L126.838 98.604C127.847 99.1735 129.514 99.1735 130.523 98.604L139.21 93.6097C139.781 93.3031 140.044 92.865 139.956 92.4269C139.912 92.7335 139.649 93.084 139.167 93.3469Z" fill="white"/>
<g opacity="0.3">
<path opacity="0.3" d="M101.305 119.107V117.135L100.778 116.829C100.603 117.749 99.5499 118.362 98.6286 118.493L92.3983 122.13L89.6781 123.093L81.0347 118.625L81.2541 118.493C80.5082 118.143 80.1134 117.354 79.7185 116.653L79.1481 117.004L78.7971 117.091V119.107C78.7971 119.501 79.0604 119.895 79.543 120.158L88.2302 125.152C89.2393 125.722 90.9066 125.722 91.9157 125.152L100.603 120.158C101.086 119.851 101.349 119.501 101.349 119.107C101.305 119.107 101.305 119.107 101.305 119.107Z" fill="url(#paint7_linear)"/>
<path opacity="0.3" d="M98.6283 118.493L92.3981 122.13L90.0288 122.962V125.634C90.6869 125.634 91.345 125.503 91.8715 125.196L100.559 120.202C101.041 119.895 101.305 119.545 101.305 119.151V119.107V117.135L100.822 116.872H100.778C100.603 117.749 99.5058 118.362 98.6283 118.493Z" fill="#0F054C"/>
<g opacity="0.3">
<path opacity="0.3" d="M88.1858 123.181L79.4985 118.187C78.4894 117.617 78.4894 116.653 79.4985 116.04L88.1858 111.046C89.1949 110.476 90.8621 110.476 91.8713 111.046L100.558 116.04C101.568 116.61 101.568 117.573 100.558 118.187L91.8713 123.181C90.8621 123.794 89.1949 123.794 88.1858 123.181Z" fill="url(#paint8_linear)"/>
</g>
<g opacity="0.3">
<path opacity="0.3" d="M88.1858 123.181L79.4985 118.187C78.4894 117.617 78.4894 116.653 79.4985 116.04L88.1858 111.046C89.1949 110.476 90.8621 110.476 91.8713 111.046L100.558 116.04C101.568 116.61 101.568 117.573 100.558 118.187L91.8713 123.181C90.8621 123.794 89.1949 123.794 88.1858 123.181Z" fill="#0F054C"/>
</g>
</g>
<path opacity="0.4" d="M90.0278 124.802C84.7192 124.802 79.4544 123.619 75.418 121.297C71.5133 119.019 69.3635 116.04 69.3635 112.842C69.3635 109.644 71.5133 106.621 75.418 104.387C83.4907 99.743 96.6088 99.743 104.638 104.387C108.542 106.665 110.692 109.644 110.692 112.842C110.692 116.04 108.542 119.063 104.638 121.297C100.601 123.619 95.3365 124.802 90.0278 124.802ZM90.0278 101.013C84.7631 101.013 79.4983 102.153 75.5058 104.474C71.6449 106.709 69.4951 109.644 69.4951 112.798C69.4951 115.952 71.6449 118.888 75.5058 121.122C83.5346 125.766 96.565 125.766 104.594 121.122L104.638 121.21L104.594 121.122C108.455 118.888 110.604 115.952 110.604 112.798C110.604 109.644 108.455 106.709 104.594 104.474C100.557 102.196 95.2926 101.013 90.0278 101.013Z" fill="#F5A623"/>
<path opacity="0.2" d="M90.0282 128C83.3155 128 76.6029 126.51 71.4697 123.575C66.5121 120.728 63.748 116.916 63.748 112.842C63.748 108.768 66.4682 104.956 71.4697 102.109C81.6922 96.1945 98.3202 96.1945 108.543 102.109C113.5 104.956 116.264 108.768 116.264 112.842C116.264 116.916 113.544 120.728 108.543 123.575C103.453 126.51 96.7408 128 90.0282 128ZM90.0282 97.8154C83.3594 97.8154 76.6468 99.2611 71.5575 102.24C66.6437 105.088 63.9235 108.855 63.9235 112.842C63.9235 116.829 66.6437 120.596 71.5575 123.444C81.7361 129.314 98.3202 129.314 108.499 123.444C113.413 120.596 116.133 116.829 116.133 112.842C116.133 108.855 113.413 105.088 108.499 102.24C103.41 99.3049 96.6969 97.8154 90.0282 97.8154Z" fill="#F5A623"/>
<path d="M90.0274 122.261C85.8595 122.261 81.6915 121.341 78.4887 119.501C75.4176 117.705 73.7065 115.339 73.7065 112.798C73.7065 110.257 75.4176 107.892 78.4887 106.095C84.8504 102.415 95.1606 102.415 101.522 106.095C104.593 107.892 106.304 110.257 106.304 112.798C106.304 115.339 104.593 117.705 101.522 119.501C98.3634 121.341 94.1954 122.261 90.0274 122.261ZM90.0274 103.554C85.9033 103.554 81.7354 104.474 78.5765 106.271C75.5492 108.023 73.8382 110.345 73.8382 112.842C73.8382 115.295 75.5054 117.661 78.5765 119.413C84.8942 123.05 95.1606 123.05 101.478 119.413C104.506 117.661 106.217 115.339 106.217 112.842C106.217 110.389 104.55 108.023 101.478 106.271C98.3195 104.474 94.1515 103.554 90.0274 103.554Z" fill="#F5A623"/>
<path d="M90.0265 115.909C89.4122 115.909 88.8419 115.777 88.4031 115.514L79.7159 110.52C79.2772 110.257 79.0139 109.907 79.0139 109.513C79.0139 109.118 79.2772 108.768 79.7159 108.505L88.4031 103.511C89.3245 102.985 90.7724 102.985 91.6937 103.511L100.381 108.505C100.82 108.768 101.083 109.118 101.083 109.513C101.083 109.907 100.82 110.257 100.381 110.52L91.6937 115.514C91.2111 115.777 90.5969 115.909 90.0265 115.909ZM88.447 115.383C89.3245 115.865 90.6846 115.865 91.5621 115.383L100.249 110.389C100.644 110.17 100.864 109.863 100.864 109.513C100.864 109.206 100.644 108.899 100.249 108.636L91.5621 103.642C90.6846 103.16 89.3245 103.16 88.447 103.642L79.7598 108.636C79.3649 108.855 79.1455 109.162 79.1455 109.513C79.1455 109.819 79.3649 110.126 79.7598 110.389L88.447 115.383Z" fill="#F5A623"/>
<path opacity="0.4" d="M101.305 107.629V104.65L100.778 104.343C100.603 105.263 99.5499 105.876 98.6286 106.008L92.3983 109.644L89.6781 110.608L81.0347 106.139L81.2541 106.008C80.5082 105.657 80.1134 104.869 79.7185 104.168L79.1481 104.518L78.7971 104.606V107.629C78.7971 108.023 79.0604 108.417 79.543 108.68L88.2302 113.674C89.2393 114.244 90.9066 114.244 91.9157 113.674L100.603 108.68C101.086 108.373 101.349 108.023 101.349 107.629C101.305 107.629 101.305 107.629 101.305 107.629Z" fill="#F5A623"/>
<path d="M101.305 104.956V102.985L100.778 102.678C100.603 103.598 99.5499 104.212 98.6286 104.343L92.3983 107.979L89.6781 108.943L81.0347 104.474L81.2541 104.343C80.5082 103.993 80.1134 103.204 79.7185 102.503L79.1481 102.853L78.7971 102.941V104.956C78.7971 105.351 79.0604 105.745 79.543 106.008L88.2302 111.002C89.2393 111.572 90.9066 111.572 91.9157 111.002L100.603 106.008C101.086 105.701 101.349 105.351 101.349 104.956C101.305 105 101.305 105 101.305 104.956Z" fill="url(#paint9_linear)"/>
<path opacity="0.3" d="M98.6283 104.387L92.3981 108.023L90.0288 108.855V111.528C90.6869 111.528 91.345 111.396 91.8715 111.09L100.559 106.095C101.041 105.789 101.305 105.438 101.305 105.044V105V103.029L100.822 102.766H100.778C100.603 103.642 99.5058 104.255 98.6283 104.387Z" fill="#0F054C"/>
<path d="M88.1858 109.074L79.4985 104.08C78.4894 103.511 78.4894 102.547 79.4985 101.933L88.1858 96.9392C89.1949 96.3697 90.8621 96.3697 91.8713 96.9392L100.558 101.933C101.568 102.503 101.568 103.467 100.558 104.08L91.8713 109.074C90.8621 109.644 89.1949 109.644 88.1858 109.074Z" fill="url(#paint10_linear)"/>
<path d="M90.0287 108.154C89.5022 108.154 88.9757 108.023 88.5369 107.804L81.7363 103.905C81.3415 103.686 81.1221 103.335 81.1221 103.029C81.1221 102.678 81.3415 102.372 81.7363 102.153L88.5369 98.2535C89.3706 97.7716 90.6868 97.7716 91.4765 98.2535L98.2771 102.153C98.672 102.372 98.8914 102.722 98.8914 103.029C98.8914 103.379 98.672 103.686 98.2771 103.905L91.4765 107.804C91.0817 108.067 90.5552 108.154 90.0287 108.154ZM90.0287 97.9907C89.5022 97.9907 89.0195 98.1221 88.6247 98.3411L81.8241 102.24C81.4731 102.459 81.2537 102.722 81.2537 102.985C81.2537 103.292 81.4731 103.554 81.8241 103.73L88.6247 107.629C89.4144 108.067 90.6429 108.067 91.4327 107.629L98.2333 103.73C98.5843 103.511 98.8036 103.248 98.8036 102.985C98.8036 102.678 98.5843 102.415 98.2333 102.24L91.4327 98.3411C91.0378 98.1221 90.5552 97.9907 90.0287 97.9907Z" fill="#5351AF"/>
<path d="M100.559 104.08L91.8713 109.074C90.8622 109.644 89.195 109.644 88.1858 109.074L79.4986 104.08C79.0599 103.817 78.7966 103.467 78.7527 103.16C78.7089 103.598 78.9283 104.036 79.4986 104.343L88.1858 109.337C89.195 109.907 90.8622 109.907 91.8713 109.337L100.559 104.343C101.129 104.036 101.392 103.598 101.304 103.16C101.261 103.467 100.997 103.817 100.559 104.08Z" fill="white"/>
<g opacity="0.3">
<path opacity="0.3" d="M27.0718 49.45V47.4785L26.5453 47.1719C26.3698 48.0919 25.3168 48.7052 24.3954 48.8366L18.1652 52.4728L15.4449 53.4366L6.80159 48.9681L7.02096 48.8366C6.27509 48.4862 5.88021 47.6976 5.48534 46.9967L4.91497 47.3471L4.56396 47.4347V49.45C4.56396 49.8443 4.82722 50.2385 5.30984 50.5014L13.9971 55.4957C15.0062 56.0652 16.6734 56.0652 17.6826 55.4957L26.3698 50.5014C26.8524 50.1947 27.1157 49.8443 27.1157 49.45C27.0718 49.45 27.0718 49.45 27.0718 49.45Z" fill="url(#paint11_linear)"/>
<path opacity="0.3" d="M24.3949 48.8366L18.1646 52.4728L15.7954 53.3052V55.9775C16.4535 55.9775 17.1117 55.8461 17.6382 55.5395L26.3254 50.5452C26.808 50.2385 27.0712 49.8881 27.0712 49.4938V49.45V47.4785L26.5886 47.2157H26.5447C26.3692 48.0919 25.2724 48.7052 24.3949 48.8366Z" fill="#0F054C"/>
<g opacity="0.3">
<path opacity="0.3" d="M13.9522 53.5242L5.30884 48.53C4.29972 47.9605 4.29972 46.9966 5.30884 46.3833L13.9961 41.3891C15.0052 40.8195 16.6724 40.8195 17.6815 41.3891L26.3688 46.3833C27.3779 46.9528 27.3779 47.9166 26.3688 48.53L17.6815 53.5242C16.6286 54.1376 14.9613 54.1376 13.9522 53.5242Z" fill="url(#paint12_linear)"/>
</g>
<g opacity="0.3">
<path opacity="0.3" d="M13.9522 53.5242L5.30884 48.53C4.29972 47.9605 4.29972 46.9966 5.30884 46.3833L13.9961 41.3891C15.0052 40.8195 16.6724 40.8195 17.6815 41.3891L26.3688 46.3833C27.3779 46.9528 27.3779 47.9166 26.3688 48.53L17.6815 53.5242C16.6286 54.1376 14.9613 54.1376 13.9522 53.5242Z" fill="#0F054C"/>
</g>
</g>
<path d="M15.7931 47.2157C15.1789 47.2157 14.6085 47.0843 14.1697 46.8214L5.48252 41.8272C5.04377 41.5643 4.78052 41.2138 4.78052 40.8195C4.78052 40.4253 5.04377 40.0748 5.48252 39.8119L14.1697 34.8177C15.0911 34.292 16.539 34.292 17.4604 34.8177L26.1476 39.8119C26.5863 40.0748 26.8496 40.4253 26.8496 40.8195C26.8496 41.2138 26.5863 41.5643 26.1476 41.8272L17.4604 46.8214C16.9777 47.0843 16.4074 47.2157 15.7931 47.2157ZM14.2575 46.69C15.135 47.1719 16.4951 47.1719 17.3726 46.69L26.0598 41.6957C26.4547 41.4767 26.6741 41.17 26.6741 40.8195C26.6741 40.5129 26.4547 40.2062 26.0598 39.9434L17.3726 34.9491C16.4951 34.4672 15.135 34.4672 14.2575 34.9491L5.57027 39.9434C5.1754 40.1624 4.95603 40.4691 4.95603 40.8195C4.95603 41.1262 5.1754 41.4329 5.57027 41.6957L14.2575 46.69Z" fill="#F5A623"/>
<path opacity="0.4" d="M27.0718 38.9357V35.9567L26.5453 35.65C26.3698 36.57 25.3168 37.1834 24.3954 37.3148L18.1652 40.951L15.4449 41.9148L6.80159 37.4462L7.02096 37.3148C6.27509 36.9643 5.88021 36.1758 5.48534 35.4748L4.91497 35.8253L4.56396 35.9129V38.9357C4.56396 39.33 4.82722 39.7243 5.30984 39.9872L13.9971 44.9814C15.0062 45.5509 16.6734 45.5509 17.6826 44.9814L26.3698 39.9872C26.8524 39.6805 27.1157 39.33 27.1157 38.9357C27.0718 38.9796 27.0718 38.9357 27.0718 38.9357Z" fill="#F5A623"/>
<path d="M27.0718 36.3072V34.3358L26.5453 34.0291C26.3698 34.9491 25.3168 35.5624 24.3954 35.6939L18.1652 39.33L15.4449 40.2938L6.80159 35.8253L7.02096 35.6939C6.27509 35.3434 5.88021 34.5548 5.48534 33.8539L4.91497 34.2043L4.56396 34.292V36.3072C4.56396 36.7015 4.82722 37.0958 5.30984 37.3586L13.9971 42.3529C15.0062 42.9224 16.6734 42.9224 17.6826 42.3529L26.3698 37.3586C26.8524 37.052 27.1157 36.7015 27.1157 36.3072C27.0718 36.3072 27.0718 36.3072 27.0718 36.3072Z" fill="url(#paint13_linear)"/>
<path opacity="0.3" d="M24.3949 35.6939L18.1646 39.33L15.7954 40.1624V42.8348C16.4535 42.8348 17.1117 42.7034 17.6382 42.3967L26.3254 37.4024C26.808 37.0958 27.0712 36.7453 27.0712 36.351V36.3072V34.3358L26.5886 34.0729H26.5447C26.3692 34.9491 25.2724 35.5624 24.3949 35.6939Z" fill="#0F054C"/>
<path d="M13.9522 40.3815L5.30884 35.3872C4.29972 34.8177 4.29972 33.8539 5.30884 33.2405L13.9522 28.2463C14.9613 27.6768 16.6285 27.6768 17.6377 28.2463L26.3249 33.2405C27.334 33.8101 27.334 34.7739 26.3249 35.3872L17.6377 40.3815C16.6285 40.9948 14.9613 40.9948 13.9522 40.3815Z" fill="url(#paint14_linear)"/>
<path d="M15.7953 39.5053C15.2688 39.5053 14.7423 39.3738 14.3035 39.1548L7.50292 35.2558C7.10804 35.0367 6.88867 34.6863 6.88867 34.3796C6.88867 34.0291 7.10804 33.7225 7.50292 33.5034L14.3035 29.6044C15.1371 29.1225 16.4534 29.1225 17.2431 29.6044L24.0437 33.5034C24.4386 33.7225 24.658 34.0729 24.658 34.3796C24.658 34.7301 24.4386 35.0367 24.0437 35.2558L17.2431 39.1548C16.8921 39.3738 16.3656 39.5053 15.7953 39.5053ZM14.3913 39.0234C15.181 39.4615 16.4095 39.4615 17.1993 39.0234L23.9999 35.1243C24.3509 34.9053 24.5702 34.6424 24.5702 34.3796C24.5702 34.0729 24.3509 33.8101 23.9999 33.6348L17.1993 29.7358C16.4095 29.2977 15.181 29.2977 14.3913 29.7358L7.59067 33.6348C7.23967 33.8539 7.02029 34.1167 7.02029 34.3796C7.02029 34.6863 7.23967 34.9491 7.59067 35.1243L14.3913 39.0234Z" fill="#5351AF"/>
<path d="M26.3252 35.3872L17.638 40.3815C16.6289 40.951 14.9616 40.951 13.9525 40.3815L5.30917 35.3872C4.87043 35.1243 4.60717 34.7739 4.5633 34.4672C4.51942 34.9053 4.7388 35.3434 5.30917 35.6501L13.9964 40.6443C15.0055 41.2138 16.6728 41.2138 17.6819 40.6443L26.3691 35.6501C26.9395 35.3434 27.2027 34.9053 27.115 34.4672C27.0272 34.7739 26.764 35.1243 26.3252 35.3872Z" fill="white"/>
<path opacity="0.4" d="M57.343 70.2209C49.1826 65.5333 35.9329 65.5333 27.7724 70.2209C19.612 74.9085 19.612 82.5751 27.7724 87.2627C35.9329 91.9503 49.1826 91.9503 57.343 87.2627C65.5035 82.5313 65.5035 74.9085 57.343 70.2209ZM51.3763 83.8456C46.5063 86.6494 38.6091 86.6494 33.7392 83.8456C28.8693 81.0418 28.8693 76.4856 33.7392 73.6818C38.6091 70.878 46.5063 70.878 51.3763 73.6818C56.2462 76.4418 56.2462 80.998 51.3763 83.8456Z" fill="#24126A"/>
<path d="M83.1353 56.5149V56.3766C86.1808 56.0656 89.2263 55.0635 91.6835 53.5775C94.383 51.9534 95.975 50.3292 96.4249 48.8087L96.5633 48.8433C96.0788 50.3983 94.4868 52.057 91.7527 53.6812C89.2609 55.2017 86.2154 56.2038 83.1353 56.5149Z" fill="#F5A623"/>
<path d="M96.5287 47.7375C96.4595 46.4934 95.525 45.353 93.8638 44.4546C90.23 42.4848 85.5924 42.5885 80.7819 44.7656L80.7126 44.6273C85.5924 42.4157 90.2646 42.312 93.9331 44.3163C95.6289 45.2494 96.5633 46.4243 96.6671 47.7029L96.5287 47.7375Z" fill="#F5A623"/>
<path d="M80.0545 56.584C78.3933 56.4803 76.9052 56.0656 75.7632 55.4782C74.5519 54.8216 73.756 53.8885 73.5137 52.8173C73.4791 52.7136 73.5137 52.5754 73.6175 52.4717C73.7906 52.2644 74.1366 52.1607 74.4827 52.1607C74.898 52.1607 75.2095 52.3335 75.3133 52.5754C75.5555 53.3702 76.1785 54.0613 77.1129 54.5797C80.3313 56.3421 86.4222 55.6509 90.6789 53.0592C93.4475 51.3659 94.901 49.6726 94.8664 48.1521C94.8318 47.0463 94.0704 46.0442 92.5823 45.2494C88.8793 43.2105 83.9305 43.7634 79.0163 46.7699C77.2167 47.8411 75.9708 49.1543 75.4517 50.4674C75.3825 50.6748 75.071 50.8476 74.725 50.8476C74.3789 50.8476 74.0674 50.7439 73.929 50.5711C73.8598 50.4674 73.8598 50.3638 73.8944 50.2601C74.5865 48.8087 76.0054 47.3573 78.0126 46.1478L78.0819 46.2515C76.1093 47.461 74.6904 48.8433 74.0328 50.2946C73.9982 50.3638 73.9982 50.4329 74.0328 50.502C74.1366 50.6402 74.4135 50.7439 74.725 50.7439C75.0364 50.7439 75.2787 50.6057 75.3479 50.4329C75.867 49.1197 77.1821 47.772 78.9817 46.6662C83.9305 43.6598 88.9485 43.1069 92.6861 45.1457C94.2088 45.9751 95.0048 47.0118 95.0394 48.1521C95.074 49.7417 93.6205 51.4696 90.7827 53.1974C86.4568 55.8237 80.3313 56.4803 77.0783 54.7179C76.1093 54.1996 75.4517 53.4739 75.2095 52.6445C75.1403 52.4717 74.8634 52.3335 74.5173 52.3335C74.2059 52.3335 73.8944 52.4372 73.756 52.5754C73.6867 52.6445 73.6867 52.7136 73.6867 52.7827C73.929 53.8194 74.6558 54.7179 75.867 55.3745C76.9744 55.9619 78.4279 56.3766 80.0891 56.4803L80.0545 56.584Z" fill="#F5A623"/>
<path d="M85.0382 54.4069C84.7614 54.4069 84.4845 54.3032 84.3461 54.165C84.2422 54.0613 84.2076 53.9577 84.2422 53.8194C84.3114 53.6466 84.4845 53.5084 84.7614 53.4393C86.1457 53.1283 87.4608 52.6099 88.6029 51.9188C90.4717 50.7784 91.51 49.6381 91.6484 48.6705C91.7177 48.1521 91.51 47.6683 91.0947 47.2537C90.9909 47.15 90.9563 47.0118 90.9909 46.9081C91.0255 46.7353 91.1985 46.5971 91.4062 46.4934C91.8215 46.3206 92.4098 46.4243 92.6521 46.6662C93.1712 47.2191 93.4481 47.8066 93.4135 48.4631C93.3442 49.4307 92.6867 50.4329 91.4062 51.4696L91.337 51.3659C92.5829 50.3638 93.2404 49.3616 93.3096 48.4631C93.3443 47.8411 93.102 47.2882 92.5829 46.7699C92.3752 46.5625 91.8561 46.4934 91.4754 46.6316C91.3024 46.7008 91.1639 46.8044 91.1293 46.9427C91.1293 47.0118 91.1293 47.1154 91.1985 47.1845C91.6484 47.6338 91.8561 48.1521 91.7869 48.705C91.6484 49.7763 90.6102 50.8821 88.6721 52.057C87.53 52.7482 86.1803 53.3011 84.796 53.6121C84.5883 53.6466 84.4153 53.7849 84.3807 53.8885C84.3461 53.9577 84.3807 54.0268 84.4499 54.0959C84.6229 54.2687 84.969 54.3378 85.2805 54.2687C86.8379 53.8885 88.3606 53.3011 89.6065 52.5063L89.6758 52.6099C88.3952 53.4047 86.8725 53.9922 85.3151 54.3723C85.2459 54.3723 85.1421 54.4069 85.0382 54.4069Z" fill="#F5A623"/>
<path d="M81.8544 54.787C80.4009 54.787 79.1204 54.5106 78.1859 53.9922C77.1477 53.4393 76.5939 52.6445 76.5939 51.6769C76.5593 50.191 77.8398 48.5323 79.9856 47.2191C83.4464 45.1111 86.9419 44.3855 89.8144 45.1457C90.0912 45.2148 90.2643 45.353 90.3335 45.5258C90.3681 45.6641 90.3335 45.7677 90.2643 45.8714C90.0566 46.1478 89.5029 46.2515 89.053 46.1133C86.9419 45.5258 84.3116 46.0442 81.6468 47.5301C81.5083 47.5992 81.4391 47.7029 81.4391 47.8066C81.4391 47.9102 81.5083 47.9794 81.6122 48.0485C81.889 48.1867 82.3043 48.1867 82.5812 48.0485C85.1422 46.5971 87.5648 46.2861 89.226 47.1845C89.849 47.5301 90.1951 47.9794 90.1951 48.4977C90.2297 49.3616 89.3298 50.3638 87.5994 51.435C85.1768 52.8864 81.9929 53.4048 80.4701 52.5754C80.0202 52.3335 79.7433 51.9879 79.6741 51.5732C79.5703 51.0203 79.8471 50.3292 80.4355 49.6726C80.5047 49.6035 80.5047 49.5344 80.5047 49.4998C80.4701 49.3962 80.4009 49.3271 80.2278 49.2579C79.8817 49.1197 79.3972 49.1888 79.2242 49.3962C78.532 50.191 78.1859 51.0203 78.3244 51.746C78.4282 52.2989 78.8089 52.7827 79.4318 53.1283C80.0548 53.4739 80.92 53.6812 81.9236 53.7158C82.3736 53.7158 82.685 53.9231 82.7196 54.1996C82.7196 54.3032 82.685 54.4069 82.6158 54.5106C82.4428 54.6834 82.1659 54.787 81.8544 54.787ZM87.4956 44.9729C85.1768 44.9729 82.6504 45.7677 80.0894 47.3228C77.9783 48.6014 76.7324 50.2255 76.767 51.6424C76.8016 52.5408 77.3207 53.3011 78.2898 53.854C79.1896 54.3378 80.4355 54.6142 81.8544 54.6142C82.1313 54.6142 82.3735 54.5451 82.512 54.4069C82.5466 54.3723 82.5812 54.3032 82.5812 54.2341C82.5812 54.0268 82.2697 53.8885 81.9236 53.854C80.92 53.8194 80.0202 53.6121 79.3972 53.2665C78.7397 52.8864 78.3244 52.3681 78.2205 51.7806C78.0821 51.0203 78.4282 50.1564 79.155 49.3271C79.3626 49.0852 79.9163 48.9815 80.297 49.1543C80.4701 49.2234 80.6085 49.3616 80.6431 49.4998C80.6777 49.6035 80.6431 49.7072 80.5393 49.8109C79.9856 50.4329 79.7433 51.0549 79.8125 51.5732C79.8817 51.9534 80.124 52.2644 80.5393 52.5063C82.0275 53.3011 85.1768 52.8173 87.5302 51.3659C89.1914 50.3638 90.0912 49.3962 90.0566 48.5668C90.0566 48.1176 89.7451 47.6683 89.1568 47.3573C87.5648 46.4934 85.2114 46.8044 82.6504 48.2212C82.3389 48.394 81.8544 48.394 81.5776 48.2212C81.4045 48.1176 81.3353 48.0139 81.3353 47.8757C81.3353 47.7375 81.4391 47.5992 81.6122 47.4956C84.3116 45.9751 86.9765 45.4913 89.1222 46.0787C89.5029 46.1824 89.9874 46.0787 90.1604 45.8714C90.2297 45.8023 90.2297 45.7332 90.2297 45.6295C90.1951 45.4913 90.022 45.3876 89.8144 45.3185C89.0876 45.0766 88.2916 44.9729 87.4956 44.9729Z" fill="#F5A623"/>
<path d="M82.6852 52.0916C82.2699 52.0916 81.8892 52.0225 81.6469 51.8843C81.3701 51.746 81.197 51.5041 81.197 51.1931C81.197 50.5365 81.9238 49.6726 83.1351 48.9124C85.177 47.6683 86.942 47.2882 88.0149 47.8757C88.361 48.0485 88.534 48.3249 88.5686 48.6014C88.6032 49.1197 88.0841 49.7763 87.0458 50.4674C86.769 50.6748 86.2152 50.6748 85.9038 50.502C85.7307 50.3983 85.6615 50.2946 85.6615 50.1564C85.6615 50.0182 85.7307 49.9145 85.8692 49.8109C86.6998 49.2234 86.8036 48.9469 86.769 48.8778C86.769 48.8433 86.769 48.8087 86.6651 48.7742C86.5267 48.705 85.973 48.5323 84.2426 49.6035C84.1041 49.6726 83.9657 49.7763 83.8619 49.8454C83.2043 50.2946 82.8928 50.6748 82.8928 50.8476H82.7544C82.7544 50.5711 83.1351 50.1564 83.758 49.7072C83.8965 49.6381 84.0003 49.5344 84.1387 49.4653C85.3846 48.705 86.2845 48.4286 86.6998 48.6359C86.8382 48.705 86.8382 48.8087 86.8728 48.8778C86.8728 49.1197 86.5613 49.4998 85.9038 49.9491C85.7999 50.0182 85.7653 50.0873 85.7653 50.191C85.7653 50.2601 85.8346 50.3638 85.9384 50.4329C86.2152 50.5711 86.6652 50.5711 86.942 50.3983C88.1879 49.5344 88.4302 48.9815 88.3956 48.6359C88.3956 48.394 88.2225 48.1867 87.9457 48.0139C86.9074 47.461 85.177 47.8066 83.2043 49.016C82.0276 49.7072 81.3008 50.5711 81.3008 51.1586C81.3008 51.4005 81.4393 51.5732 81.6815 51.7115C82.2007 51.9879 83.2043 51.9534 84.3464 51.6078L84.381 51.746C83.7927 51.9879 83.2043 52.0916 82.6852 52.0916Z" fill="#F5A623"/>
<path d="M84.5832 0.742616L83.7499 0.158102C83.4999 -0.00890209 83.0832 -0.0924043 82.6665 0.158102L52.6665 17.5266C51.8332 18.0276 51.1665 19.2801 51.1665 20.3656V37.2331C51.1665 37.8176 51.3332 38.2351 51.6665 38.4021L52.5832 39.0701L52.6665 38.4021H52.7498L82.7499 21.0337C83.5832 20.5326 84.2499 19.2801 84.2499 18.1946V1.32713C84.2499 1.16013 84.2499 0.993123 84.1665 0.909621L84.5832 0.742616Z" fill="url(#paint15_linear)"/>
<path d="M51.2498 19.6976L59.1664 24.2902L61.1664 23.1212L52.1664 17.9441C51.7498 18.3616 51.4164 19.0296 51.2498 19.6976Z" fill="url(#paint16_linear)"/>
<path d="M83.5833 21.6182L53.5833 38.9866C52.7499 39.4877 52.0833 38.9866 52.0833 37.9011V21.0337C52.0833 19.9481 52.7499 18.6956 53.5833 18.1946L83.5833 0.826123C84.4166 0.32511 85.0833 0.826123 85.0833 1.91165V18.7791C85.0833 19.9481 84.4166 21.2007 83.5833 21.6182Z" fill="url(#paint17_linear)"/>
<path d="M80.8333 11.0134L56.3333 25.2088C56.1666 25.2923 55.9999 25.3758 55.8333 25.2088V25.1253V21.3677C55.8333 21.1172 55.9999 20.7832 56.2499 20.6162L80.9166 6.33727C80.9166 6.33727 80.9166 6.33727 80.9999 6.33727C81.1666 6.33727 81.1666 6.50427 81.1666 6.83828L81.2499 10.4289C81.2499 10.5959 80.9999 10.9299 80.8333 11.0134Z" fill="#5761D7"/>
<path d="M80.8333 19.1131L56.25 33.3085C56.0833 33.392 55.8333 33.559 55.75 33.3085V33.225V29.4674C55.75 29.2169 55.9167 28.8829 56.1667 28.7159L80.9167 14.437C80.9167 14.437 80.9167 14.437 81 14.437C81.1667 14.3535 81.25 14.604 81.25 14.8545V18.3616C81.25 18.6956 81.0833 19.0296 80.8333 19.1131Z" fill="#5761D7"/>
<path d="M80.9999 6.33727V6.42077V10.1784C80.9999 10.4289 80.8333 10.7629 80.5833 10.9299L55.9166 25.2088C55.9166 25.2088 55.9166 25.2088 55.8333 25.2088C55.8333 25.4593 55.9999 25.5428 56.2499 25.3758L80.9166 11.0969C81.1666 10.9299 81.3333 10.5959 81.3333 10.3454V6.58777C81.3333 6.33727 81.1666 6.25377 80.9999 6.33727Z" fill="white"/>
<path d="M80.9999 14.437V14.5205V18.2781C80.9999 18.5286 80.8333 18.8626 80.5833 19.0296L55.9166 33.3085C55.9166 33.3085 55.9166 33.3085 55.8333 33.3085C55.8333 33.559 55.9999 33.6425 56.2499 33.4755L80.9166 19.1966C81.1666 19.0296 81.3333 18.6956 81.3333 18.4451V14.6875C81.3333 14.5205 81.1666 14.3535 80.9999 14.437Z" fill="white"/>
<path d="M62.9167 19.6141L63.25 20.1986L63.8333 19.4471L63.3333 19.0296L64 18.3616L63.75 17.7771L63.1667 18.5286L63.25 17.6936L62.5 18.1111L62.5833 18.8626H62L61.75 19.6976L62.4167 19.6141L62 20.5326L62.5833 20.6162L62.9167 19.6141Z" fill="white"/>
<path d="M65.7502 18.0276L66.0835 18.6121L66.6668 17.8606L66.2502 17.4431L66.9168 16.775L66.6668 16.1905L66.0002 16.9421L66.0835 16.107L65.3335 16.5245L65.4168 17.2761H64.8335L64.5835 18.1111L65.2502 18.0276L64.8335 18.9461L65.4168 19.0296L65.7502 18.0276Z" fill="white"/>
<path d="M68.5834 16.3575L68.9167 16.9421L69.5001 16.1905L69.0834 15.773L69.7501 15.105L69.5001 14.5205L68.8334 15.272L68.9167 14.437L68.1667 14.8545L68.2501 15.606H67.6667L67.4167 16.441L68.0834 16.3575L67.6667 17.2761L68.2501 17.3596L68.5834 16.3575Z" fill="white"/>
<path d="M71.4169 14.6875L71.7502 15.272L72.3336 14.5205L71.9169 14.103L72.5836 13.435L72.3336 12.8504L71.6669 13.602L71.7502 12.7669L71.0002 13.1845L71.0836 13.936H70.5002L70.2502 14.771L70.9169 14.6875L70.5002 15.606L71.0836 15.6895L71.4169 14.6875Z" fill="white"/>
<path d="M74.2501 13.1009L74.5834 13.6855L75.1668 12.9339L74.7501 12.5164L75.4167 11.8484L75.1668 11.2639L74.5834 12.0154L74.6667 11.1804L73.9167 11.5979L74.0001 12.3494H73.4167L73.1667 13.1844L73.8334 13.1009L73.4167 14.0195L74.0001 14.103L74.2501 13.1009Z" fill="white"/>
<path d="M62.9167 27.7973L63.25 28.3819L63.8333 27.6303L63.3333 27.1293L64 26.4613L63.75 25.8768L63.1667 26.6283L63.25 25.7933L62.5 26.2108L62.5833 26.9623H62L61.75 27.7973L62.4167 27.7138L62 28.6324L62.5833 28.7159L62.9167 27.7973Z" fill="white"/>
<path d="M65.7501 26.1273L66.0834 26.7118L66.6668 25.9603L66.2501 25.5428L66.9167 24.8748L66.6668 24.2902L66.0834 25.0418L66.1668 24.2067L65.4167 24.6243L65.5001 25.3758H64.9168L64.6667 26.2108L65.3334 26.1273L64.8334 26.9623L65.4167 27.0458L65.7501 26.1273Z" fill="white"/>
<path d="M68.5833 24.4573L68.9167 25.0418L69.5 24.2902L69.0833 23.8727L69.75 23.2047L69.5 22.6202L68.9167 23.3717L69 22.5367L68.25 22.9542L68.3333 23.7057H67.75L67.5 24.4573L68.1667 24.3738L67.75 25.2923L68.3333 25.3758L68.5833 24.4573Z" fill="white"/>
<path d="M71.4169 22.8707L71.7502 23.4552L72.3336 22.7037L71.9169 22.2862L72.5836 21.6182L72.3336 21.0337L71.6669 21.7852L71.7502 20.9502L71.0002 21.3677L71.0836 22.1192H70.5002L70.2502 22.9542L70.9169 22.8707L70.5002 23.7892L71.0836 23.8727L71.4169 22.8707Z" fill="white"/>
<path d="M74.2501 21.2007L74.5834 21.7852L75.1668 21.0337L74.7501 20.6162L75.4167 19.9481L75.1668 19.3636L74.5834 20.1151L74.6667 19.2801L73.9167 19.6976L74.0001 20.4491H73.4167L73.1667 21.2842L73.8334 21.2007L73.4167 22.1192L74.0001 22.2027L74.2501 21.2007Z" fill="white"/>
<path d="M34.1345 67.198C38.6975 64.5695 46.0685 64.5695 50.6315 67.198C51.3773 67.6361 51.9916 68.0742 52.4742 68.5999C55.0628 66.0152 54.4486 62.6857 50.6315 60.4952C46.0685 57.8666 38.6975 57.8666 34.1345 60.4952C30.3174 62.6857 29.7032 66.059 32.2918 68.5999C32.7744 68.0742 33.3886 67.5923 34.1345 67.198Z" fill="#5351AF"/>
<path d="M59.9753 65.2266C59.1417 64.438 58.1326 63.7371 56.9919 63.0361C55.1931 61.9847 53.0872 61.1962 50.8935 60.5828C55.1492 63.2552 55.0176 67.4609 50.4987 70.0456C45.8481 72.718 38.3019 72.718 33.6952 70.0456C29.3517 67.5485 29.0885 63.5619 32.8616 60.8457C31.0189 61.4152 29.3078 62.1161 27.7723 62.9923C26.5877 63.6495 25.6225 64.3942 24.7889 65.1828H21.7178V71.4475C21.7178 74.5142 23.7359 77.537 27.7723 79.8589C35.845 84.5027 48.9192 84.5027 56.9919 79.8589C61.0282 77.537 63.0464 74.4704 63.0464 71.4475V65.1828H59.9753V65.2266Z" fill="url(#paint18_linear)"/>
<path opacity="0.3" d="M56.9934 63.0799C55.1945 62.0285 53.0885 61.24 50.8948 60.6266C55.1506 63.299 55.019 67.5047 50.4999 70.0894C48.2623 71.4037 45.3227 72.0609 42.3831 72.1047V83.4075C47.6919 83.4075 52.9569 82.2246 56.9934 79.9027C61.0298 77.5808 63.0481 74.5142 63.0481 71.4913V65.2266H59.9768C59.1432 64.4819 58.178 63.7371 56.9934 63.0799Z" fill="#0F054C"/>
<path opacity="0.5" d="M56.9934 63.0799C55.1945 62.0285 53.0885 61.24 50.8948 60.6266C55.1506 63.299 55.019 67.5047 50.4999 70.0894C48.2623 71.4037 45.3227 72.0609 42.3831 72.1047V83.4075C47.6919 83.4075 52.9569 82.2246 56.9934 79.9027C61.0298 77.5808 63.0481 74.5142 63.0481 71.4913V65.2266H59.9768C59.1432 64.4819 58.178 63.7371 56.9934 63.0799Z" fill="url(#paint19_radial)"/>
<path d="M56.9938 57.3409C48.9212 52.6972 35.8469 52.6972 27.7742 57.3409C19.7016 61.9847 19.7016 69.5199 27.7742 74.1637C35.8469 78.8075 48.9212 78.8075 56.9938 74.1637C65.0665 69.5199 65.0665 61.9847 56.9938 57.3409ZM50.6322 70.6152C45.9817 73.2875 38.4355 73.2875 33.8288 70.6152C29.1782 67.9428 29.1782 63.6057 33.8288 60.9333C38.4793 58.2609 46.0255 58.2609 50.6322 60.9333C55.2828 63.5619 55.2828 67.9428 50.6322 70.6152Z" fill="url(#paint20_linear)"/>
<path d="M56.9921 73.5504C48.9194 78.1942 35.8452 78.1942 27.7725 73.5504C23.8677 71.3161 21.8496 68.3809 21.718 65.4457C21.5863 68.5999 23.6045 71.798 27.7725 74.2075C35.8452 78.8513 48.9194 78.8513 56.9921 74.2075C61.1601 71.798 63.1782 68.5999 63.0466 65.4457C62.915 68.3809 60.8968 71.2723 56.9921 73.5504Z" fill="white"/>
<path d="M50.6315 60.2762C45.9807 57.6038 38.4342 57.6038 33.8274 60.2762C31.3704 61.6781 30.1857 63.6057 30.3612 65.4457C30.4929 63.7809 31.6336 62.16 33.8274 60.9333C38.4781 58.2609 46.0246 58.2609 50.6315 60.9333C52.8252 62.2038 53.9659 63.8247 54.0976 65.4457C54.2731 63.5619 53.1323 61.6781 50.6315 60.2762Z" fill="white"/>
<path d="M56.0709 57.3409C48.5685 53.0038 36.3718 53.0038 28.8694 57.3409C21.3671 61.6781 21.3671 68.6875 28.8694 73.0247C36.3718 77.3618 48.5685 77.3618 56.0709 73.0247C63.5732 68.6875 63.5732 61.6343 56.0709 57.3409ZM50.5867 69.8266C46.1116 72.4113 38.8287 72.4113 34.3536 69.8266C29.8785 67.2418 29.8785 63.0361 34.3536 60.4514C38.8287 57.8666 46.1116 57.8666 50.5867 60.4514C55.0618 63.08 55.0618 67.2418 50.5867 69.8266Z" fill="url(#paint21_linear)"/>
<path opacity="0.4" d="M50.5872 69.8266C46.112 72.4113 38.8287 72.4113 34.3535 69.8266C29.8783 67.2418 29.8783 63.0361 34.3535 60.4514C38.8287 57.8666 46.112 57.8666 50.5872 60.4514C55.0624 63.08 55.0624 67.2418 50.5872 69.8266Z" fill="#F5A623"/>
<path opacity="0.5" d="M53.9221 65.0514V5.25171H30.9316V65.139C30.9316 66.8475 32.0285 68.5561 34.31 69.8704C38.7852 72.4551 46.0685 72.4551 50.5437 69.8704C52.8691 68.5123 54.0098 66.7599 53.9221 65.0514Z" fill="url(#paint22_linear)"/>
<path opacity="0.4" d="M50.2357 41.7886C50.6234 41.7886 50.9377 41.4748 50.9377 41.0877C50.9377 40.7006 50.6234 40.3868 50.2357 40.3868C49.848 40.3868 49.5337 40.7006 49.5337 41.0877C49.5337 41.4748 49.848 41.7886 50.2357 41.7886Z" fill="#F5A623"/>
<path opacity="0.4" d="M38.2589 10.4212C38.6466 10.4212 38.9609 10.1074 38.9609 9.72025C38.9609 9.33313 38.6466 9.0193 38.2589 9.0193C37.8712 9.0193 37.5569 9.33313 37.5569 9.72025C37.5569 10.1074 37.8712 10.4212 38.2589 10.4212Z" fill="#F5A623"/>
<path opacity="0.4" d="M40.277 33.1582C40.277 33.7277 39.8383 34.1658 39.2679 34.1658C38.6975 34.1658 38.2588 33.7277 38.2588 33.1582C38.2588 32.5887 38.6975 32.1506 39.2679 32.1506C39.8383 32.1506 40.277 32.5887 40.277 33.1582Z" fill="#F5A623"/>
<path opacity="0.8" d="M38.4343 50.4191C38.4343 50.8134 38.1272 51.12 37.7323 51.12C37.3374 51.12 37.0303 50.8134 37.0303 50.4191C37.0303 50.0248 37.3374 49.7181 37.7323 49.7181C38.1272 49.7181 38.4343 50.0248 38.4343 50.4191Z" fill="#F5A623"/>
<path opacity="0.8" d="M48.6122 21.505C48.6122 22.1183 48.1296 22.6002 47.5153 22.6002C46.9011 22.6002 46.4185 22.1183 46.4185 21.505C46.4185 20.8916 46.9011 20.4097 47.5153 20.4097C48.1296 20.4097 48.6122 20.9354 48.6122 21.505Z" fill="#F5A623"/>
<path opacity="0.8" d="M47.7789 25.0535C47.7789 25.4478 47.4279 25.7983 47.033 25.7983C46.6381 25.7983 46.2871 25.4478 46.2871 25.0535C46.2871 24.6592 46.6381 24.3087 47.033 24.3087C47.4279 24.3087 47.7789 24.6592 47.7789 25.0535Z" fill="#F5A623"/>
<path opacity="0.8" d="M58.1769 48.4915C58.1769 49.1048 57.6943 49.5867 57.08 49.5867C56.4658 49.5867 55.9832 49.1048 55.9832 48.4915C55.9832 47.8781 56.4658 47.3962 57.08 47.3962C57.6943 47.3962 58.1769 47.8781 58.1769 48.4915Z" fill="#F5A623"/>
<path opacity="0.8" d="M57.8256 46.301C58.2859 46.301 58.6592 45.9284 58.6592 45.4686C58.6592 45.0089 58.2859 44.6363 57.8256 44.6363C57.3652 44.6363 56.9919 45.0089 56.9919 45.4686C56.9919 45.9284 57.3652 46.301 57.8256 46.301Z" fill="#F5A623"/>
<path opacity="0.8" d="M60.151 45.6439C60.4418 45.6439 60.6775 45.4085 60.6775 45.1181C60.6775 44.8278 60.4418 44.5924 60.151 44.5924C59.8602 44.5924 59.6245 44.8278 59.6245 45.1181C59.6245 45.4085 59.8602 45.6439 60.151 45.6439Z" fill="#F5A623"/>
<path opacity="0.8" d="M62.6951 44.0229C62.8706 44.1105 62.9145 44.3296 62.7829 44.5048C62.6952 44.6801 62.4758 44.7239 62.3003 44.5924C62.1248 44.5048 62.0809 44.2858 62.2125 44.1105C62.3441 43.9353 62.5635 43.8915 62.6951 44.0229Z" fill="#F5A623"/>
<path opacity="0.8" d="M63.7048 42.4896C63.9242 42.621 63.9681 42.9277 63.8365 43.1467C63.7048 43.3658 63.3977 43.4096 63.1783 43.2782C62.959 43.1467 62.9151 42.8401 63.0467 42.621C63.2222 42.402 63.4854 42.3582 63.7048 42.4896Z" fill="#F5A623"/>
<path opacity="0.8" d="M62.7833 41.3944C63.0466 41.5696 63.1343 41.9201 62.9588 42.2267C62.7833 42.4896 62.4323 42.5772 62.1252 42.402C61.862 42.2267 61.7742 41.8763 61.9497 41.5696C62.1252 41.3067 62.5201 41.2191 62.7833 41.3944Z" fill="#F5A623"/>
<path opacity="0.8" d="M28.9135 19.0954C28.9135 19.7088 28.4309 20.1907 27.8166 20.1907C27.2024 20.1907 26.7197 19.7088 26.7197 19.0954C26.7197 18.4821 27.2024 18.0002 27.8166 18.0002C28.4309 18.0002 28.9135 18.4821 28.9135 19.0954Z" fill="#F5A623"/>
<path opacity="0.8" d="M24.4822 20.0592C24.8941 20.0592 25.228 19.7258 25.228 19.3145C25.228 18.9032 24.8941 18.5697 24.4822 18.5697C24.0703 18.5697 23.7363 18.9032 23.7363 19.3145C23.7363 19.7258 24.0703 20.0592 24.4822 20.0592Z" fill="#F5A623"/>
<path opacity="0.8" d="M24.9648 22.1621C25.3282 22.1621 25.6229 21.8679 25.6229 21.505C25.6229 21.142 25.3282 20.8478 24.9648 20.8478C24.6013 20.8478 24.3066 21.142 24.3066 21.505C24.3066 21.8679 24.6013 22.1621 24.9648 22.1621Z" fill="#F5A623"/>
<path opacity="0.8" d="M24.3941 23.5202C24.6364 23.5202 24.8328 23.324 24.8328 23.0821C24.8328 22.8401 24.6364 22.644 24.3941 22.644C24.1518 22.644 23.9553 22.8401 23.9553 23.0821C23.9553 23.324 24.1518 23.5202 24.3941 23.5202Z" fill="#F5A623"/>
<path opacity="0.8" d="M22.6589 23.4243C22.6651 23.255 22.5326 23.1128 22.3631 23.1065C22.1936 23.1003 22.0512 23.2324 22.0451 23.4017C22.0389 23.5709 22.1713 23.7132 22.3408 23.7194C22.5104 23.7257 22.6527 23.5935 22.6589 23.4243Z" fill="#F5A623"/>
<path opacity="0.8" d="M58.1769 20.9792C58.1769 21.5926 57.6943 22.0745 57.08 22.0745C56.4658 22.0745 55.9832 21.5926 55.9832 20.9792C55.9832 20.3659 56.4658 19.884 57.08 19.884C57.6943 19.884 58.1769 20.3659 58.1769 20.9792Z" fill="#F5A623"/>
<path opacity="0.8" d="M58.9223 18.0002C58.9223 18.4383 58.5713 18.7888 58.1325 18.7888C57.6938 18.7888 57.3428 18.4383 57.3428 18.0002C57.3428 17.5621 57.6938 17.2116 58.1325 17.2116C58.5713 17.2116 58.9223 17.5621 58.9223 18.0002Z" fill="#F5A623"/>
<path opacity="0.8" d="M60.9408 17.0364C60.9408 17.3431 60.6775 17.6059 60.3704 17.6059C60.0633 17.6059 59.8 17.3431 59.8 17.0364C59.8 16.7297 60.0633 16.4669 60.3704 16.4669C60.6775 16.4669 60.9408 16.7297 60.9408 17.0364Z" fill="#F5A623"/>
<path opacity="0.8" d="M62.6076 17.2116C62.6076 17.4307 62.4321 17.6059 62.2127 17.6059C61.9934 17.6059 61.8179 17.4307 61.8179 17.2116C61.8179 16.9926 61.9934 16.8174 62.2127 16.8174C62.4321 16.7735 62.6076 16.9926 62.6076 17.2116Z" fill="#F5A623"/>
<path opacity="0.8" d="M63.3096 15.985C63.3096 16.1164 63.2218 16.204 63.0902 16.204C62.9586 16.204 62.8708 16.1164 62.8708 15.985C62.8708 15.8536 62.9586 15.7659 63.0902 15.7659C63.2218 15.7659 63.3096 15.8536 63.3096 15.985Z" fill="#F5A623"/>
<defs>
<linearGradient id="paint0_linear" x1="0.0926806" y1="70.3587" x2="127.452" y2="70.3587" gradientUnits="userSpaceOnUse">
<stop stop-color="#BCBEFF"/>
<stop offset="0.151" stop-color="#A3A7F5"/>
<stop offset="0.3866" stop-color="#8289E8"/>
<stop offset="0.6124" stop-color="#6A73DF"/>
<stop offset="0.8221" stop-color="#5C66D9"/>
<stop offset="1" stop-color="#5761D7"/>
</linearGradient>
<linearGradient id="paint1_linear" x1="81.5128" y1="88.3506" x2="46.0275" y2="41.1913" gradientUnits="userSpaceOnUse">
<stop stop-color="#42E8E0"/>
<stop offset="0.1055" stop-color="#37B6BF"/>
<stop offset="0.2197" stop-color="#2C87A1"/>
<stop offset="0.338" stop-color="#235F87"/>
<stop offset="0.4587" stop-color="#1C3F72"/>
<stop offset="0.5824" stop-color="#162561"/>
<stop offset="0.7105" stop-color="#121355"/>
<stop offset="0.8458" stop-color="#10084E"/>
<stop offset="1" stop-color="#0F054C"/>
</linearGradient>
<linearGradient id="paint2_linear" x1="166.7" y1="51.8962" x2="124.176" y2="-19.8414" gradientUnits="userSpaceOnUse">
<stop stop-color="#7F7CA7"/>
<stop offset="1" stop-color="#C2BCD5"/>
</linearGradient>
<linearGradient id="paint3_linear" x1="119.627" y1="101.545" x2="137.519" y2="111.89" gradientUnits="userSpaceOnUse">
<stop stop-color="#BCBEFF"/>
<stop offset="0.2271" stop-color="#AAADF8"/>
<stop offset="0.6802" stop-color="#7C83E5"/>
<stop offset="1" stop-color="#5761D7"/>
</linearGradient>
<linearGradient id="paint4_linear" x1="117.382" y1="105.447" x2="139.95" y2="105.447" gradientUnits="userSpaceOnUse">
<stop stop-color="#E9E9FD"/>
<stop offset="0.3601" stop-color="#D3D2F9"/>
<stop offset="0.7062" stop-color="#C5C4F7"/>
<stop offset="1" stop-color="#C0BFF6"/>
</linearGradient>
<linearGradient id="paint5_linear" x1="119.627" y1="88.3853" x2="137.519" y2="98.7306" gradientUnits="userSpaceOnUse">
<stop stop-color="#BCBEFF"/>
<stop offset="0.2271" stop-color="#AAADF8"/>
<stop offset="0.6802" stop-color="#7C83E5"/>
<stop offset="1" stop-color="#5761D7"/>
</linearGradient>
<linearGradient id="paint6_linear" x1="117.382" y1="92.287" x2="139.95" y2="92.287" gradientUnits="userSpaceOnUse">
<stop stop-color="#E9E9FD"/>
<stop offset="0.3601" stop-color="#D3D2F9"/>
<stop offset="0.7062" stop-color="#C5C4F7"/>
<stop offset="1" stop-color="#C0BFF6"/>
</linearGradient>
<linearGradient id="paint7_linear" x1="80.9897" y1="113.221" x2="98.8815" y2="123.566" gradientUnits="userSpaceOnUse">
<stop stop-color="#BCBEFF"/>
<stop offset="0.2271" stop-color="#AAADF8"/>
<stop offset="0.6802" stop-color="#7C83E5"/>
<stop offset="1" stop-color="#5761D7"/>
</linearGradient>
<linearGradient id="paint8_linear" x1="78.744" y1="117.123" x2="101.311" y2="117.123" gradientUnits="userSpaceOnUse">
<stop stop-color="#E9E9FD"/>
<stop offset="0.3601" stop-color="#D3D2F9"/>
<stop offset="0.7062" stop-color="#C5C4F7"/>
<stop offset="1" stop-color="#C0BFF6"/>
</linearGradient>
<linearGradient id="paint9_linear" x1="80.9897" y1="99.1063" x2="98.8815" y2="109.452" gradientUnits="userSpaceOnUse">
<stop stop-color="#BCBEFF"/>
<stop offset="0.2271" stop-color="#AAADF8"/>
<stop offset="0.6802" stop-color="#7C83E5"/>
<stop offset="1" stop-color="#5761D7"/>
</linearGradient>
<linearGradient id="paint10_linear" x1="78.744" y1="103.008" x2="101.311" y2="103.008" gradientUnits="userSpaceOnUse">
<stop stop-color="#E9E9FD"/>
<stop offset="0.3601" stop-color="#D3D2F9"/>
<stop offset="0.7062" stop-color="#C5C4F7"/>
<stop offset="1" stop-color="#C0BFF6"/>
</linearGradient>
<linearGradient id="paint11_linear" x1="6.77096" y1="43.5707" x2="24.6628" y2="53.916" gradientUnits="userSpaceOnUse">
<stop stop-color="#BCBEFF"/>
<stop offset="0.2271" stop-color="#AAADF8"/>
<stop offset="0.6802" stop-color="#7C83E5"/>
<stop offset="1" stop-color="#5761D7"/>
</linearGradient>
<linearGradient id="paint12_linear" x1="4.52484" y1="47.4724" x2="27.0921" y2="47.4724" gradientUnits="userSpaceOnUse">
<stop stop-color="#E9E9FD"/>
<stop offset="0.3601" stop-color="#D3D2F9"/>
<stop offset="0.7062" stop-color="#C5C4F7"/>
<stop offset="1" stop-color="#C0BFF6"/>
</linearGradient>
<linearGradient id="paint13_linear" x1="6.77096" y1="30.4279" x2="24.6628" y2="40.7733" gradientUnits="userSpaceOnUse">
<stop stop-color="#BCBEFF"/>
<stop offset="0.2271" stop-color="#AAADF8"/>
<stop offset="0.6802" stop-color="#7C83E5"/>
<stop offset="1" stop-color="#5761D7"/>
</linearGradient>
<linearGradient id="paint14_linear" x1="4.52484" y1="34.3296" x2="27.0921" y2="34.3296" gradientUnits="userSpaceOnUse">
<stop stop-color="#E9E9FD"/>
<stop offset="0.3601" stop-color="#D3D2F9"/>
<stop offset="0.7062" stop-color="#C5C4F7"/>
<stop offset="1" stop-color="#C0BFF6"/>
</linearGradient>
<linearGradient id="paint15_linear" x1="55.2035" y1="29.7754" x2="85.0031" y2="4.82124" gradientUnits="userSpaceOnUse">
<stop stop-color="#5761D7"/>
<stop offset="0.1779" stop-color="#5C66D9"/>
<stop offset="0.3876" stop-color="#6A73DF"/>
<stop offset="0.6134" stop-color="#8289E8"/>
<stop offset="0.849" stop-color="#A3A7F5"/>
<stop offset="1" stop-color="#BCBEFF"/>
</linearGradient>
<linearGradient id="paint16_linear" x1="54.6023" y1="22.2974" x2="57.8572" y2="19.5717" gradientUnits="userSpaceOnUse">
<stop stop-color="#C0BFF6"/>
<stop offset="0.2938" stop-color="#C5C4F7"/>
<stop offset="0.6399" stop-color="#D3D2F9"/>
<stop offset="1" stop-color="#E9E9FD"/>
</linearGradient>
<linearGradient id="paint17_linear" x1="68.5794" y1="30.3417" x2="59.5483" y2="14.7315" gradientUnits="userSpaceOnUse">
<stop stop-color="#C0BFF6"/>
<stop offset="0.2938" stop-color="#C5C4F7"/>
<stop offset="0.6399" stop-color="#D3D2F9"/>
<stop offset="1" stop-color="#E9E9FD"/>
</linearGradient>
<linearGradient id="paint18_linear" x1="21.7274" y1="72.0081" x2="63.0458" y2="72.0081" gradientUnits="userSpaceOnUse">
<stop stop-color="#BCBEFF"/>
<stop offset="0.151" stop-color="#A3A7F5"/>
<stop offset="0.3866" stop-color="#8289E8"/>
<stop offset="0.6124" stop-color="#6A73DF"/>
<stop offset="0.8221" stop-color="#5C66D9"/>
<stop offset="1" stop-color="#5761D7"/>
</linearGradient>
<radialGradient id="paint19_radial" cx="0" cy="0" r="1" gradientUnits="userSpaceOnUse" gradientTransform="translate(62.0044 78.3078) scale(24.0122 23.9763)">
<stop stop-color="#F5A623"/>
<stop offset="1" stop-color="#0F054C"/>
</radialGradient>
<linearGradient id="paint20_linear" x1="21.7293" y1="65.7516" x2="63.0477" y2="65.7516" gradientUnits="userSpaceOnUse">
<stop stop-color="#C0BFF6"/>
<stop offset="0.2938" stop-color="#C5C4F7"/>
<stop offset="0.6399" stop-color="#D3D2F9"/>
<stop offset="1" stop-color="#E9E9FD"/>
</linearGradient>
<linearGradient id="paint21_linear" x1="23.229" y1="65.164" x2="61.6919" y2="65.164" gradientUnits="userSpaceOnUse">
<stop stop-color="#C0BFF6"/>
<stop offset="0.2938" stop-color="#C5C4F7"/>
<stop offset="0.6399" stop-color="#D3D2F9"/>
<stop offset="1" stop-color="#E9E9FD"/>
</linearGradient>
<linearGradient id="paint22_linear" x1="39.6684" y1="71.6642" x2="12.2711" y2="19.3898" gradientUnits="userSpaceOnUse">
<stop stop-color="#FB9112"/>
<stop offset="1" stop-color="#FBDBB5" stop-opacity="0"/>
</linearGradient>
</defs>
</svg>
