<svg width="140" height="140" viewBox="0 0 140 140" fill="none" xmlns="http://www.w3.org/2000/svg">
<path opacity="0.3" d="M16.2649 84.549C13.8263 84.549 11.3877 84.2291 9.04112 83.5436C4.34797 82.1726 1.17319 79.6133 0.252964 76.5057C-0.391194 74.312 0.206956 72.0727 1.90937 70.1532L2.09342 69.9247C6.18842 65.3089 15.6207 63.5266 23.5347 65.8117C28.2278 67.1827 31.4026 69.7419 32.3228 72.8496C32.967 75.0432 32.3688 77.2826 30.6664 79.202L30.4824 79.4305C27.5837 82.721 22.0163 84.549 16.2649 84.549ZM3.56578 71.57C2.36948 72.941 1.90937 74.4491 2.36949 75.9115C3.05966 78.2423 5.77432 80.3445 9.68528 81.4871C16.725 83.5436 25.3291 81.9898 28.872 78.0138L29.056 77.7853C30.2523 76.4143 30.7124 74.9061 30.2523 73.4437C29.5622 71.113 26.8475 69.0107 22.9365 67.8682C15.8968 65.8117 7.29269 67.3655 3.74982 71.3415L3.56578 71.57Z" fill="#F5A623"/>
<path d="M16.1729 83.5893C13.8723 83.5893 11.5257 83.2694 9.31717 82.6296C4.9461 81.3499 2.00138 79.0192 1.17318 76.2314C0.62104 74.3577 1.12716 72.4383 2.64554 70.7473L2.82959 70.5188C6.64852 66.2229 15.8048 64.532 23.3046 66.68C27.6757 67.9596 30.6204 70.2903 31.4486 73.0781C32.0007 74.9518 31.4946 76.8712 29.9762 78.5622L29.7922 78.7907C27.0775 81.8526 21.6942 83.5893 16.1729 83.5893ZM2.82959 70.9758C1.40324 72.6211 0.897108 74.4034 1.40323 76.1857C2.18542 78.8364 5.13015 81.1671 9.36319 82.4011C16.725 84.549 25.7892 82.8581 29.5161 78.6536L29.7002 78.4251C31.1265 76.7798 31.6326 74.9975 31.1265 73.2152C30.3443 70.5645 27.3996 68.2338 23.1666 66.9999C15.8048 64.8519 6.74054 66.5429 3.01363 70.7473L2.82959 70.9758Z" fill="#F5A623"/>
<path d="M16.3111 81.8984C12.8143 81.8984 9.31739 81.1214 6.64874 79.6133C4.07211 78.1509 2.64575 76.14 2.64575 74.0378C2.64575 71.9356 4.07211 69.9704 6.64874 68.4623C11.986 65.4003 20.6362 65.4003 25.9275 68.4623C28.5041 69.9247 29.9305 71.9356 29.9305 74.0378C29.9305 76.14 28.5041 78.1052 25.9275 79.6133C23.2588 81.1214 19.762 81.8984 16.3111 81.8984ZM16.3111 66.3144C12.8603 66.3144 9.3634 67.0913 6.74076 68.5994C4.21014 70.0618 2.78379 71.9813 2.78379 74.0378C2.78379 76.0943 4.16413 78.0138 6.74076 79.4762C12.0321 82.4925 20.5902 82.4925 25.8815 79.4762C28.4121 78.0138 29.8384 76.0943 29.8384 74.0378C29.8384 71.9813 28.4581 70.0618 25.8815 68.5994C23.2128 67.0913 19.762 66.3144 16.3111 66.3144Z" fill="#F5A623"/>
<path opacity="0.6" d="M16.3108 80.6187C22.6382 80.6187 27.7676 77.6724 27.7676 74.0378C27.7676 70.4033 22.6382 67.4569 16.3108 67.4569C9.9834 67.4569 4.854 70.4033 4.854 74.0378C4.854 77.6724 9.9834 80.6187 16.3108 80.6187Z" fill="#0C0F38"/>
<path d="M29.8841 70.6559V66.2686H27.4915C27.0314 65.903 26.5253 65.5374 25.9271 65.1718C20.6358 62.1098 12.0317 62.1098 6.69439 65.1718C6.09624 65.4917 5.59012 65.903 5.13001 66.2686H2.69141V70.7016C2.69141 72.7124 4.02574 74.6776 6.64838 76.2314C11.9397 79.2934 20.5438 79.2934 25.8811 76.2314C28.5497 74.6319 29.8841 72.6667 29.8841 70.6559Z" fill="url(#paint0_linear)"/>
<path d="M16.3114 74.0379C23.8077 74.0379 29.8847 70.5595 29.8847 66.2688C29.8847 61.978 23.8077 58.4996 16.3114 58.4996C8.81502 58.4996 2.73804 61.978 2.73804 66.2688C2.73804 70.5595 8.81502 74.0379 16.3114 74.0379Z" fill="#453C9E"/>
<path d="M7.06392 60.8302C9.77858 59.2764 13.2754 58.4995 16.8183 58.4995C13.1834 58.4081 9.50251 59.185 6.69582 60.7845C2.55481 63.161 1.63459 66.7256 3.98116 69.5591C1.91065 66.5885 2.96891 63.161 7.06392 60.8302Z" fill="#F5A623"/>
<path d="M25.8814 60.7388C24.4551 59.9162 22.8447 59.3221 21.0962 58.9565C22.6606 59.3221 24.133 59.8705 25.4213 60.6017C30.7126 63.6637 30.7126 68.5537 25.4213 71.6156C21.5103 73.855 15.851 74.4491 11.0198 73.398C15.943 74.5862 21.8784 74.0378 25.8814 71.7527C31.2187 68.7365 31.2187 63.8008 25.8814 60.7388Z" fill="#F7B84F"/>
<path d="M16.2191 71.2513C21.0218 71.2513 24.9152 69.0211 24.9152 66.2699C24.9152 63.5188 21.0218 61.2885 16.2191 61.2885C11.4163 61.2885 7.52295 63.5188 7.52295 66.2699C7.52295 69.0211 11.4163 71.2513 16.2191 71.2513Z" fill="#F5A623"/>
<path d="M10.1011 65.4023C13.5059 63.4372 18.9813 63.4372 22.3861 65.4023C23.4904 66.0421 24.2266 66.7733 24.5947 67.596C25.4229 65.905 24.6867 64.077 22.3861 62.7517C18.9813 60.7865 13.5059 60.7865 10.1011 62.7517C7.80054 64.077 7.06436 65.9507 7.89257 67.596C8.26066 66.7733 8.99684 66.0421 10.1011 65.4023Z" fill="#18D0F7"/>
<path d="M10.1012 64.4406C13.506 62.4754 18.9813 62.4754 22.3862 64.4406C23.6745 65.1718 24.5027 66.1315 24.7788 67.0912C25.2389 65.5374 24.4567 63.8922 22.3862 62.7039C18.9813 60.7388 13.506 60.7388 10.1012 62.7039C8.03067 63.8922 7.20246 65.5374 7.70858 67.0912C7.98465 66.1315 8.76685 65.2175 10.1012 64.4406Z" fill="#25BFEC"/>
<path d="M10.1005 63.618C13.5053 61.6528 18.9807 61.6528 22.3855 63.618C23.9039 64.4863 24.7321 65.5831 24.8701 66.6799C25.1002 65.2632 24.272 63.8008 22.3855 62.704C18.9807 60.7388 13.5053 60.7388 10.1005 62.704C8.21403 63.8008 7.38582 65.2632 7.61588 66.6799C7.75391 65.5831 8.58212 64.4863 10.1005 63.618Z" fill="#267FE5"/>
<path d="M23.3047 60.2361C23.0286 60.1447 22.6605 60.1904 22.5225 60.3275C22.3385 60.4646 22.4305 60.6931 22.7066 60.7845C22.9826 60.8759 23.3507 60.8302 23.4887 60.6931C23.6728 60.556 23.5808 60.3275 23.3047 60.2361Z" fill="#F5A623"/>
<path opacity="0.8" d="M25.237 61.1501C25.007 61.013 24.6389 61.013 24.4088 61.1501C24.1788 61.2872 24.2248 61.47 24.4548 61.6071C24.6849 61.7442 25.053 61.7442 25.283 61.6071C25.4671 61.47 25.4671 61.2872 25.237 61.1501Z" fill="#F5A623"/>
<path opacity="0.6" d="M26.8014 62.2927C26.6174 62.1556 26.2493 62.1099 26.0192 62.2013C25.7432 62.2927 25.6971 62.5212 25.8812 62.6583C26.0652 62.7954 26.4333 62.8411 26.6634 62.7497C26.9394 62.6126 26.9854 62.4298 26.8014 62.2927Z" fill="#F5A623"/>
<path opacity="0.4" d="M27.9516 63.5266C27.8136 63.3438 27.4915 63.298 27.2155 63.3437C26.9394 63.4352 26.8014 63.618 26.9394 63.8008C27.0774 63.9836 27.3995 64.0293 27.6756 63.9836C27.9977 63.8922 28.0897 63.7094 27.9516 63.5266Z" fill="#F5A623"/>
<path opacity="0.2" d="M28.6883 64.9433C28.5962 64.7605 28.3202 64.6691 27.9981 64.7148C27.676 64.7605 27.492 64.9433 27.584 65.1261C27.676 65.3089 27.9521 65.4003 28.2742 65.3546C28.5502 65.2632 28.7343 65.0804 28.6883 64.9433Z" fill="#F5A623"/>
<path opacity="0.1" d="M28.826 66.4971C28.9641 66.3143 28.826 66.1315 28.55 66.0401C28.2739 65.9487 27.9058 66.0401 27.7678 66.1772C27.6297 66.36 27.7678 66.5428 28.0438 66.6342C28.3659 66.7256 28.688 66.6799 28.826 66.4971Z" fill="#F5A623"/>
<path d="M29.8841 61.1501V56.7629H27.4915C27.0314 56.3972 26.5253 56.0316 25.9271 55.666C20.6358 52.6041 12.0317 52.6041 6.69439 55.666C6.09624 55.9859 5.59012 56.3972 5.13001 56.7629H2.69141V61.1958C2.69141 63.2067 4.02574 65.1718 6.64838 66.7256C11.9397 69.7876 20.5438 69.7876 25.8811 66.7256C28.5497 65.1718 29.8841 63.161 29.8841 61.1501Z" fill="url(#paint1_linear)"/>
<path d="M16.3114 64.5322C23.8077 64.5322 29.8847 61.0538 29.8847 56.763C29.8847 52.4722 23.8077 48.9939 16.3114 48.9939C8.81502 48.9939 2.73804 52.4722 2.73804 56.763C2.73804 61.0538 8.81502 64.5322 16.3114 64.5322Z" fill="#453C9E"/>
<path d="M7.06392 51.3244C9.77858 49.7706 13.2754 48.9937 16.8183 48.9937C13.1834 48.9023 9.50251 49.6792 6.69582 51.2787C2.55481 53.6552 1.63459 57.2199 3.98116 60.0533C1.91065 57.1285 2.96891 53.7009 7.06392 51.3244Z" fill="#F5A623"/>
<path d="M25.8814 51.233C24.4551 50.4104 22.8447 49.8163 21.0962 49.4507C22.6606 49.8163 24.133 50.3647 25.4213 51.0959C30.7126 54.1579 30.7126 59.0479 25.4213 62.1098C21.5103 64.3492 15.851 64.9433 11.0198 63.8922C15.943 65.0804 21.8784 64.532 25.8814 62.2469C31.2187 59.2307 31.2187 54.295 25.8814 51.233Z" fill="#F7B84F"/>
<path d="M22.3843 60.2829C18.9795 62.248 13.5041 62.248 10.0993 60.2829C6.69445 58.3177 6.69445 55.1644 10.0993 53.2449C13.5041 51.2798 18.9795 51.2798 22.3843 53.2449C25.7431 55.1644 25.7431 58.3177 22.3843 60.2829Z" fill="#F5A623"/>
<path d="M10.0996 55.8956C13.5045 53.9305 18.9798 53.9305 22.3846 55.8956C23.4889 56.5354 24.2251 57.2666 24.5932 58.0892C25.4214 56.3983 24.6852 54.5703 22.3846 53.2449C18.9798 51.2798 13.5045 51.2798 10.0996 53.2449C7.79908 54.5703 7.0629 56.444 7.8911 58.0892C8.25919 57.3123 8.99537 56.5354 10.0996 55.8956Z" fill="#18D0F7"/>
<path d="M10.0995 54.9816C13.5043 53.0164 18.9796 53.0164 22.3845 54.9816C23.6728 55.7128 24.501 56.6725 24.7771 57.6322C25.2372 56.0784 24.455 54.4332 22.3845 53.2449C18.9796 51.2798 13.5043 51.2798 10.0995 53.2449C8.02896 54.4332 7.20075 56.0784 7.70687 57.6322C7.98294 56.6725 8.76514 55.7128 10.0995 54.9816Z" fill="#25BFEC"/>
<path d="M10.1005 54.1122C13.5053 52.1471 18.9807 52.1471 22.3855 54.1122C23.9039 54.9805 24.7321 56.0773 24.8701 57.1742C25.1002 55.7574 24.272 54.295 22.3855 53.1982C18.9807 51.2331 13.5053 51.2331 10.1005 53.1982C8.21403 54.295 7.38582 55.7574 7.61588 57.1742C7.75391 56.0773 8.58212 54.9805 10.1005 54.1122Z" fill="#267FE5"/>
<path d="M23.3047 50.7303C23.0286 50.6389 22.6605 50.6846 22.5225 50.8217C22.3385 50.9588 22.4305 51.1873 22.7066 51.2787C22.9826 51.3701 23.3507 51.3244 23.4887 51.1873C23.6728 51.0502 23.5808 50.8217 23.3047 50.7303Z" fill="#F7B84F"/>
<path opacity="0.8" d="M25.237 51.69C25.007 51.5529 24.6389 51.5529 24.4088 51.69C24.1788 51.8271 24.2248 52.0099 24.4548 52.147C24.6849 52.2841 25.053 52.2841 25.283 52.147C25.4671 52.0099 25.4671 51.7814 25.237 51.69Z" fill="#F7B84F"/>
<path opacity="0.6" d="M26.8014 52.7868C26.6174 52.6497 26.2493 52.604 26.0192 52.6954C25.7432 52.7868 25.6971 53.0153 25.8812 53.1524C26.0652 53.2895 26.4333 53.3352 26.6634 53.2438C26.9394 53.1524 26.9854 52.9239 26.8014 52.7868Z" fill="#F7B84F"/>
<path opacity="0.4" d="M27.9516 54.0665C27.8136 53.8837 27.4915 53.838 27.2155 53.8837C26.9394 53.9751 26.8014 54.1579 26.9394 54.3407C27.0774 54.5235 27.3995 54.5692 27.6756 54.5235C27.9977 54.4321 28.0897 54.2036 27.9516 54.0665Z" fill="#F7B84F"/>
<path opacity="0.2" d="M28.6883 55.4375C28.5962 55.2547 28.3202 55.1633 27.9981 55.209C27.676 55.2547 27.492 55.4375 27.584 55.6203C27.676 55.8031 27.9521 55.8945 28.2742 55.8488C28.5502 55.8031 28.7343 55.6203 28.6883 55.4375Z" fill="#F7B84F"/>
<path opacity="0.1" d="M28.826 57.037C28.9641 56.8542 28.826 56.6714 28.55 56.58C28.2739 56.4886 27.9058 56.58 27.7678 56.7171C27.6297 56.8999 27.7678 57.0827 28.0438 57.1741C28.3659 57.2655 28.688 57.1741 28.826 57.037Z" fill="#F7B84F"/>
<path d="M29.8841 51.69V47.3028H27.4915C27.0314 46.9372 26.5253 46.5715 25.9271 46.2059C20.6358 43.144 12.0317 43.144 6.69439 46.2059C6.09624 46.5258 5.59012 46.9372 5.13001 47.3028H2.69141V51.7357C2.69141 53.7466 4.02574 55.7117 6.64838 57.2656C11.9397 60.3275 20.5438 60.3275 25.8811 57.2656C28.5497 55.666 29.8841 53.6552 29.8841 51.69Z" fill="url(#paint2_linear)"/>
<path d="M16.3114 55.0262C23.8077 55.0262 29.8847 51.5478 29.8847 47.2571C29.8847 42.9663 23.8077 39.4879 16.3114 39.4879C8.81502 39.4879 2.73804 42.9663 2.73804 47.2571C2.73804 51.5478 8.81502 55.0262 16.3114 55.0262Z" fill="#453C9E"/>
<path d="M7.06343 41.8661C9.77809 40.3122 13.2749 39.5353 16.8178 39.5353C13.1829 39.4439 9.50202 40.2208 6.69534 41.8204C2.55432 44.1968 1.6341 47.7615 3.98067 50.5949C1.91016 47.6244 2.96842 44.1968 7.06343 41.8661Z" fill="#F5A623"/>
<path d="M25.8814 41.773C24.4551 40.9504 22.8447 40.3563 21.0962 39.9906C22.6606 40.3563 24.133 40.9047 25.4213 41.6359C30.7126 44.6978 30.7126 49.5878 25.4213 52.6498C21.5103 54.8891 15.851 55.4832 11.0198 54.4321C15.943 55.6203 21.8784 55.0719 25.8814 52.7869C31.2187 49.7249 31.2187 44.7892 25.8814 41.773Z" fill="#F7B84F"/>
<path d="M16.2191 52.2402C21.0218 52.2402 24.9152 50.0099 24.9152 47.2588C24.9152 44.5076 21.0218 42.2774 16.2191 42.2774C11.4163 42.2774 7.52295 44.5076 7.52295 47.2588C7.52295 50.0099 11.4163 52.2402 16.2191 52.2402Z" fill="#F5A623"/>
<path d="M10.1001 46.4355C13.505 44.4703 18.9803 44.4703 22.3851 46.4355C23.4894 47.0753 24.2256 47.8065 24.5937 48.6291C25.4219 46.9382 24.6857 45.1102 22.3851 43.7848C18.9803 41.8197 13.505 41.8197 10.1001 43.7848C7.79957 45.1102 7.06339 46.9839 7.89159 48.6291C8.25968 47.8065 8.99586 47.0296 10.1001 46.4355Z" fill="#18D0F7"/>
<path d="M10.1012 45.4747C13.506 43.5096 18.9813 43.5096 22.3862 45.4747C23.6745 46.206 24.5027 47.1657 24.7788 48.1254C25.2389 46.5716 24.4567 44.9263 22.3862 43.7381C18.9813 41.773 13.506 41.773 10.1012 43.7381C8.03067 44.9263 7.20246 46.5716 7.70858 48.1254C7.98465 47.1657 8.76685 46.206 10.1012 45.4747Z" fill="#25BFEC"/>
<path d="M10.1005 44.6521C13.5053 42.687 18.9807 42.687 22.3855 44.6521C23.9039 45.5204 24.7321 46.6173 24.8701 47.7141C25.1002 46.2974 24.272 44.8349 22.3855 43.7381C18.9807 41.773 13.5053 41.773 10.1005 43.7381C8.21403 44.8349 7.38582 46.2974 7.61588 47.7141C7.75391 46.5716 8.58212 45.4747 10.1005 44.6521Z" fill="#267FE5"/>
<path d="M23.3047 41.2703C23.0286 41.1789 22.6605 41.2246 22.5225 41.3617C22.3385 41.4988 22.4305 41.7273 22.7066 41.8187C22.9826 41.9101 23.3507 41.8644 23.4887 41.7273C23.6728 41.5445 23.5808 41.3617 23.3047 41.2703Z" fill="#F7B84F"/>
<path opacity="0.8" d="M25.237 42.1843C25.007 42.0472 24.6389 42.0472 24.4088 42.1843C24.1788 42.3214 24.2248 42.5042 24.4548 42.6413C24.6849 42.7784 25.053 42.7784 25.283 42.6413C25.4671 42.5042 25.4671 42.3214 25.237 42.1843Z" fill="#F7B84F"/>
<path opacity="0.6" d="M26.8014 43.2811C26.6174 43.144 26.2493 43.0983 26.0192 43.1897C25.7432 43.2811 25.6971 43.5096 25.8812 43.6467C26.0652 43.7838 26.4333 43.8295 26.6634 43.7381C26.9394 43.6467 26.9854 43.4639 26.8014 43.2811Z" fill="#F7B84F"/>
<path opacity="0.4" d="M27.9516 44.5607C27.8136 44.3779 27.4915 44.3322 27.2155 44.3779C26.9394 44.4693 26.8014 44.6521 26.9394 44.8349C27.0774 45.0177 27.3995 45.0634 27.6756 45.0177C27.9977 44.9263 28.0897 44.7435 27.9516 44.5607Z" fill="#F7B84F"/>
<path opacity="0.2" d="M28.6883 45.9318C28.5962 45.7489 28.3202 45.6575 27.9981 45.7032C27.676 45.7489 27.492 45.9318 27.584 46.1146C27.676 46.2974 27.9521 46.3888 28.2742 46.3431C28.5502 46.2974 28.7343 46.1146 28.6883 45.9318Z" fill="#F7B84F"/>
<path opacity="0.1" d="M28.826 47.5313C28.9641 47.3485 28.826 47.1657 28.55 47.0743C28.2739 46.9829 27.9058 47.0743 27.7678 47.2114C27.6297 47.3942 27.7678 47.577 28.0438 47.6684C28.3659 47.7598 28.688 47.7141 28.826 47.5313Z" fill="#F7B84F"/>
<path d="M29.8841 42.1843V37.797H27.4915C27.0314 37.4314 26.5253 37.0658 25.9271 36.7002C20.6358 33.6382 12.0317 33.6382 6.69439 36.7002C6.09624 37.0201 5.59012 37.4314 5.13001 37.797H2.69141V42.23C2.69141 44.2408 4.02574 46.206 6.64838 47.7598C11.9397 50.8218 20.5438 50.8218 25.8811 47.7598C28.5497 46.1603 29.8841 44.1951 29.8841 42.1843Z" fill="url(#paint3_linear)"/>
<path d="M16.3114 45.5663C23.8077 45.5663 29.8847 42.088 29.8847 37.7972C29.8847 33.5064 23.8077 30.028 16.3114 30.028C8.81502 30.028 2.73804 33.5064 2.73804 37.7972C2.73804 42.088 8.81502 45.5663 16.3114 45.5663Z" fill="#453C9E"/>
<path d="M7.06392 32.3586C9.77858 30.8047 13.2754 30.0278 16.8183 30.0278C13.1834 29.9364 9.50251 30.7133 6.69582 32.3129C2.55481 34.6893 1.63459 38.254 3.98116 41.0874C1.91065 38.1169 2.96891 34.6893 7.06392 32.3586Z" fill="#F5A623"/>
<path d="M25.8814 32.2672C24.4551 31.4446 22.8447 30.8505 21.0962 30.4849C22.6606 30.8505 24.133 31.3989 25.4213 32.1301C30.7126 35.1921 30.7126 40.082 25.4213 43.144C21.5103 45.3833 15.851 45.9775 11.0198 44.9263C15.943 46.1146 21.8784 45.5662 25.8814 43.2811C31.2187 40.2649 31.2187 35.3292 25.8814 32.2672Z" fill="#F7B84F"/>
<path d="M22.3843 41.317C18.9795 43.2821 13.5041 43.2821 10.0993 41.317C6.69445 39.3518 6.69445 36.1985 10.0993 34.2791C13.5041 32.3139 18.9795 32.3139 22.3843 34.2791C25.7431 36.1985 25.7431 39.3518 22.3843 41.317Z" fill="#F5A623"/>
<path d="M10.0996 36.9297C13.5045 34.9646 18.9798 34.9646 22.3846 36.9297C23.4889 37.5695 24.2251 38.3007 24.5932 39.1233C25.4214 37.4324 24.6852 35.6044 22.3846 34.2791C18.9798 32.3139 13.5045 32.3139 10.0996 34.2791C7.79908 35.6044 7.0629 37.4781 7.8911 39.1233C8.25919 38.3007 8.99537 37.5695 10.0996 36.9297Z" fill="#18D0F7"/>
<path d="M10.1002 35.969C13.505 34.0038 18.9804 34.0038 22.3852 35.969C23.6735 36.7002 24.5017 37.6599 24.7778 38.6196C25.2379 37.0658 24.4557 35.4205 22.3852 34.2323C18.9804 32.2672 13.505 32.2672 10.1002 34.2323C8.02969 35.4205 7.20148 37.0658 7.70761 38.6196C7.98367 37.6599 8.76587 36.7459 10.1002 35.969Z" fill="#25BFEC"/>
<path d="M10.1005 35.1464C13.5053 33.1812 18.9807 33.1812 22.3855 35.1464C23.9039 36.0147 24.7321 37.1115 24.8701 38.2083C25.1002 36.7916 24.272 35.3292 22.3855 34.2323C18.9807 32.2672 13.5053 32.2672 10.1005 34.2323C8.21403 35.3292 7.38582 36.7916 7.61588 38.2083C7.75391 37.1115 8.58212 36.0147 10.1005 35.1464Z" fill="#267FE5"/>
<path d="M23.3047 31.7645C23.0286 31.6731 22.6605 31.7188 22.5225 31.8559C22.3385 31.993 22.4305 32.2215 22.7066 32.3129C22.9826 32.4043 23.3507 32.3586 23.4887 32.2215C23.6728 32.0844 23.5808 31.8559 23.3047 31.7645Z" fill="#6EE8FC"/>
<path opacity="0.8" d="M25.237 32.6785C25.007 32.5414 24.6389 32.5414 24.4088 32.6785C24.1788 32.8156 24.2248 32.9984 24.4548 33.1355C24.6849 33.2726 25.053 33.2726 25.283 33.1355C25.4671 32.9984 25.4671 32.8156 25.237 32.6785Z" fill="#6EE8FC"/>
<path opacity="0.6" d="M26.8014 33.821C26.6174 33.6839 26.2493 33.6382 26.0192 33.7296C25.7432 33.821 25.6971 34.0495 25.8812 34.1866C26.0652 34.3237 26.4333 34.3694 26.6634 34.278C26.9394 34.1409 26.9854 33.9581 26.8014 33.821Z" fill="#6EE8FC"/>
<path opacity="0.4" d="M27.9516 35.0549C27.8136 34.8721 27.4915 34.8264 27.2155 34.8721C26.9394 34.9635 26.8014 35.1463 26.9394 35.3291C27.0774 35.5119 27.3995 35.5576 27.6756 35.5119C27.9977 35.4205 28.0897 35.2377 27.9516 35.0549Z" fill="#6EE8FC"/>
<path opacity="0.2" d="M28.6883 36.4716C28.5962 36.2888 28.3202 36.1974 27.9981 36.2431C27.676 36.2888 27.492 36.4716 27.584 36.6544C27.676 36.8372 27.9521 36.9286 28.2742 36.8829C28.5502 36.7915 28.7343 36.6087 28.6883 36.4716Z" fill="#6EE8FC"/>
<path opacity="0.1" d="M28.826 38.0255C28.9641 37.8427 28.826 37.6599 28.55 37.5685C28.2739 37.4771 27.9058 37.5685 27.7678 37.7056C27.6297 37.8884 27.7678 38.0712 28.0438 38.1626C28.3659 38.254 28.688 38.2083 28.826 38.0255Z" fill="#6EE8FC"/>
<path d="M29.8843 32.6785V28.2912H27.4917C27.0316 27.9256 26.5255 27.56 25.9274 27.1944C20.6361 24.1324 12.0319 24.1324 6.69463 27.1944C6.09648 27.5143 5.59036 27.9256 5.13025 28.2912H2.69165V32.7242C2.69165 34.735 4.02598 36.7002 6.64862 38.254C11.9399 41.316 20.544 41.316 25.8813 38.254C28.55 36.7002 29.8843 34.6893 29.8843 32.6785Z" fill="url(#paint4_linear)"/>
<path d="M25.8828 33.821C20.5915 36.883 11.9874 36.883 6.65011 33.821C1.35882 30.7591 1.35882 25.8691 6.65011 22.8071C11.9414 19.7452 20.5455 19.7452 25.8828 22.8071C31.2201 25.8234 31.2201 30.7591 25.8828 33.821Z" fill="#453C9E"/>
<path d="M7.06392 22.8529C9.77858 21.2991 13.2754 20.5221 16.8183 20.5221C13.1834 20.4307 9.50251 21.2077 6.69582 22.8072C2.55481 25.1836 1.63459 28.7483 3.98116 31.5818C1.91065 28.6569 2.96891 25.2293 7.06392 22.8529Z" fill="#F5A623"/>
<path d="M25.8817 22.7614C24.4553 21.9388 22.8449 21.3447 21.0965 20.979C22.6609 21.3447 24.1332 21.8931 25.4215 22.6243C30.7128 25.6862 30.7128 30.5762 25.4215 33.6382C21.5106 35.8775 15.8512 36.4716 11.02 35.4205C15.9432 36.6087 21.8787 36.0603 25.8817 33.7753C31.219 30.759 31.219 25.8233 25.8817 22.7614Z" fill="#F7B84F"/>
<path d="M16.2191 33.2739C21.0218 33.2739 24.9152 31.0437 24.9152 28.2925C24.9152 25.5414 21.0218 23.3111 16.2191 23.3111C11.4163 23.3111 7.52295 25.5414 7.52295 28.2925C7.52295 31.0437 11.4163 33.2739 16.2191 33.2739Z" fill="#F5A623"/>
<path d="M10.1001 27.4239C13.505 25.4588 18.9803 25.4588 22.3851 27.4239C23.4894 28.0637 24.2256 28.795 24.5937 29.6176C25.4219 27.9266 24.6857 26.0986 22.3851 24.7733C18.9803 22.8081 13.505 22.8081 10.1001 24.7733C7.79957 26.0986 7.06339 27.9723 7.89159 29.6176C8.25968 28.8407 8.99586 28.0637 10.1001 27.4239Z" fill="#F7B84F"/>
<path d="M10.1002 26.5099C13.505 24.5448 18.9804 24.5448 22.3852 26.5099C23.6735 27.2411 24.5017 28.2008 24.7778 29.1606C25.2379 27.6067 24.4557 25.9615 22.3852 24.7733C18.9804 22.8081 13.505 22.8081 10.1002 24.7733C8.02969 25.9615 7.20148 27.6067 7.70761 29.1606C7.98367 28.2008 8.76587 27.2411 10.1002 26.5099Z" fill="#E1920F"/>
<path d="M10.1005 25.6406C13.5053 23.6754 18.9807 23.6754 22.3855 25.6406C23.9039 26.5089 24.7321 27.6057 24.8701 28.7025C25.1002 27.2858 24.272 25.8234 22.3855 24.7265C18.9807 22.7614 13.5053 22.7614 10.1005 24.7265C8.21403 25.8234 7.38582 27.2858 7.61588 28.7025C7.75391 27.6057 8.58212 26.5089 10.1005 25.6406Z" fill="#FBA04C"/>
<path d="M23.3049 22.2587C23.0289 22.1673 22.6608 22.213 22.5228 22.3501C22.3387 22.4872 22.4307 22.7157 22.7068 22.8071C22.9829 22.8985 23.351 22.8528 23.489 22.7157C23.673 22.5786 23.581 22.3501 23.3049 22.2587Z" fill="#F5A623"/>
<path opacity="0.8" d="M25.2373 23.2184C25.0072 23.0813 24.6391 23.0813 24.4091 23.2184C24.179 23.3555 24.225 23.5383 24.4551 23.6754C24.6851 23.8125 25.0532 23.8125 25.2833 23.6754C25.4673 23.5383 25.4673 23.3098 25.2373 23.2184Z" fill="#F5A623"/>
<path opacity="0.6" d="M26.8016 24.3152C26.6176 24.1781 26.2495 24.1324 26.0195 24.2238C25.7434 24.3152 25.6974 24.5437 25.8814 24.6808C26.0655 24.8179 26.4336 24.8636 26.6636 24.7722C26.9397 24.6808 26.9857 24.4523 26.8016 24.3152Z" fill="#F5A623"/>
<path opacity="0.4" d="M27.9519 25.5949C27.8139 25.4121 27.4918 25.3664 27.2157 25.4121C26.9396 25.5035 26.8016 25.6863 26.9397 25.8691C27.0777 26.0519 27.3998 26.0976 27.6758 26.0519C27.9979 25.9605 28.0899 25.732 27.9519 25.5949Z" fill="#F5A623"/>
<path opacity="0.2" d="M28.6885 26.9659C28.5965 26.7831 28.3204 26.6917 27.9983 26.7374C27.6763 26.7831 27.4922 26.9659 27.5842 27.1487C27.6763 27.3315 27.9523 27.4229 28.2744 27.3772C28.5505 27.3315 28.7345 27.1487 28.6885 26.9659Z" fill="#F5A623"/>
<path opacity="0.1" d="M28.8263 28.5654C28.9643 28.3826 28.8263 28.1998 28.5502 28.1084C28.2741 28.017 27.9061 28.1084 27.768 28.2455C27.63 28.4283 27.768 28.6111 28.0441 28.7025C28.3662 28.7939 28.6882 28.7025 28.8263 28.5654Z" fill="#F5A623"/>
<path d="M16.4951 39.0766C16.9779 39.0766 17.3693 38.6879 17.3693 38.2083C17.3693 37.7288 16.9779 37.34 16.4951 37.34C16.0122 37.34 15.6208 37.7288 15.6208 38.2083C15.6208 38.6879 16.0122 39.0766 16.4951 39.0766Z" fill="#F7B84F"/>
<path d="M16.4952 38.7567C16.0811 38.7567 15.713 38.4825 15.667 38.0712C15.667 38.1169 15.667 38.1626 15.667 38.2083C15.667 38.6653 16.0351 39.0766 16.5412 39.0766C17.0013 39.0766 17.4154 38.711 17.4154 38.2083C17.4154 38.1626 17.4154 38.1169 17.4154 38.0712C17.2314 38.4368 16.9093 38.7567 16.4952 38.7567Z" fill="#F5A623"/>
<path d="M16.4951 48.5824C16.9779 48.5824 17.3693 48.1936 17.3693 47.7141C17.3693 47.2345 16.9779 46.8457 16.4951 46.8457C16.0122 46.8457 15.6208 47.2345 15.6208 47.7141C15.6208 48.1936 16.0122 48.5824 16.4951 48.5824Z" fill="#F7B84F"/>
<path d="M16.4952 48.2625C16.0811 48.2625 15.713 47.9883 15.667 47.577C15.667 47.6227 15.667 47.6684 15.667 47.7141C15.667 48.1711 16.0351 48.5824 16.5412 48.5824C17.0013 48.5824 17.4154 48.2168 17.4154 47.7141C17.4154 47.6684 17.4154 47.6227 17.4154 47.577C17.2314 47.9426 16.9093 48.2625 16.4952 48.2625Z" fill="#F5A623"/>
<path d="M16.4951 58.0882C16.9779 58.0882 17.3693 57.6994 17.3693 57.2198C17.3693 56.7403 16.9779 56.3515 16.4951 56.3515C16.0122 56.3515 15.6208 56.7403 15.6208 57.2198C15.6208 57.6994 16.0122 58.0882 16.4951 58.0882Z" fill="#F7B84F"/>
<path d="M16.4952 57.7226C16.0811 57.7226 15.713 57.4484 15.667 57.0371C15.667 57.0828 15.667 57.1285 15.667 57.1742C15.667 57.6312 16.0351 58.0425 16.5412 58.0425C17.0013 58.0425 17.4154 57.6769 17.4154 57.1742C17.4154 57.1285 17.4154 57.0828 17.4154 57.0371C17.2314 57.4484 16.9093 57.7226 16.4952 57.7226Z" fill="#267FE5"/>
<path d="M16.4951 67.5483C16.9779 67.5483 17.3693 67.1595 17.3693 66.6799C17.3693 66.2004 16.9779 65.8116 16.4951 65.8116C16.0122 65.8116 15.6208 66.2004 15.6208 66.6799C15.6208 67.1595 16.0122 67.5483 16.4951 67.5483Z" fill="#F7B84F"/>
<path d="M16.4952 67.2283C16.0811 67.2283 15.713 66.9541 15.667 66.5428C15.667 66.5885 15.667 66.6342 15.667 66.6799C15.667 67.1369 16.0351 67.5483 16.5412 67.5483C17.0013 67.5483 17.4154 67.1826 17.4154 66.6799C17.4154 66.6342 17.4154 66.5885 17.4154 66.5428C17.2314 66.9084 16.9093 67.2283 16.4952 67.2283Z" fill="#267FE5"/>
<path d="M16.4951 77.054C16.9779 77.054 17.3693 76.6653 17.3693 76.1857C17.3693 75.7062 16.9779 75.3174 16.4951 75.3174C16.0122 75.3174 15.6208 75.7062 15.6208 76.1857C15.6208 76.6653 16.0122 77.054 16.4951 77.054Z" fill="#F7B84F"/>
<path d="M16.4952 76.7341C16.0811 76.7341 15.713 76.4599 15.667 76.0486C15.667 76.0943 15.667 76.14 15.667 76.1857C15.667 76.6427 16.0351 77.054 16.5412 77.054C17.0013 77.054 17.4154 76.6884 17.4154 76.1857C17.4154 76.14 17.4154 76.0943 17.4154 76.0486C17.2314 76.4142 16.9093 76.7341 16.4952 76.7341Z" fill="#267FE5"/>
<path d="M46.2342 125.736C45.1113 125.736 43.9883 125.521 43.2109 125.05L3.43293 102.261C2.65551 101.79 2.18042 101.191 2.18042 100.462C2.18042 99.6056 2.82827 98.7917 3.90802 98.1492L79.7497 54.7135C81.8228 53.5141 84.9325 53.3856 86.7465 54.4136L126.524 77.2024C127.302 77.6736 127.777 78.2733 127.777 79.0015C127.777 79.8582 127.129 80.6721 126.049 81.3146L50.1645 124.75C49.0416 125.393 47.6163 125.736 46.2342 125.736ZM83.68 53.9424C82.3411 53.9424 80.9158 54.2851 79.8361 54.8848L3.99441 98.3205C2.95785 98.9202 2.35318 99.6913 2.35318 100.462C2.35318 101.105 2.74189 101.662 3.51931 102.09L43.2973 124.879C45.0249 125.864 48.0914 125.736 50.1213 124.579L125.963 81.1433C127 80.5436 127.604 79.7725 127.604 79.0015C127.604 78.359 127.215 77.8021 126.438 77.3737L86.6601 54.585C85.8827 54.1566 84.8029 53.9424 83.68 53.9424Z" fill="#F5A623"/>
<path d="M127.647 68.5067L121.946 69.4919L86.7026 49.3161C84.9318 48.2881 81.8653 48.4166 79.7922 49.616L12.3726 88.2112L2.26611 89.9247V93.4801C2.26611 94.1226 2.65482 94.7652 3.47543 95.1935L43.2534 117.982C45.0242 119.01 48.0907 118.882 50.1638 117.682L126.005 74.2467C127.085 73.6042 127.69 72.8331 127.69 72.0621V68.5067H127.647Z" fill="url(#paint5_linear)"/>
<path d="M43.2109 114.384L3.43289 91.5953C1.6621 90.5672 1.87804 88.811 3.90797 87.6544L79.7928 44.2615C81.8227 43.1049 84.9324 42.9764 86.7032 43.9616L126.481 66.7504C128.252 67.7785 128.036 69.5347 126.006 70.6913L50.1213 114.127C48.0913 115.284 44.9817 115.412 43.2109 114.384Z" fill="#24126A"/>
<path d="M125.962 70.6913L50.1208 114.127C48.0908 115.284 44.9812 115.412 43.2104 114.427L3.43237 91.6381C2.74133 91.2526 2.35262 90.6958 2.26624 90.1389C2.13667 90.8671 2.52538 91.5953 3.43237 92.1093L43.2104 114.898C44.9812 115.926 48.0477 115.798 50.1208 114.598L125.962 71.1625C127.172 70.4771 127.733 69.5347 127.647 68.7209C127.517 69.4062 126.956 70.1344 125.962 70.6913Z" fill="white"/>
<path opacity="0.51" d="M43.297 113.527L4.94423 91.5524C3.21663 90.5672 3.43257 88.8538 5.41931 87.74L79.8357 45.1182C81.8225 44.0045 84.8026 43.8759 86.5302 44.8612L124.883 66.8361C126.61 67.8213 126.395 69.5347 124.408 70.6485L49.9914 113.27C48.0047 114.384 45.0246 114.513 43.297 113.527Z" fill="#453C9E"/>
<path opacity="0.8" d="M46.1911 113.313C45.0681 113.313 44.0316 113.099 43.211 112.628L4.85825 90.6529C4.08083 90.2245 3.64893 89.582 3.64893 88.8966C3.64893 88.0827 4.25358 87.226 5.33333 86.6263L79.7497 44.0045C81.7365 42.8479 84.803 42.7194 86.5306 43.7475L124.883 65.7223C125.661 66.1507 126.093 66.7932 126.093 67.4786C126.093 68.2925 125.488 69.1492 124.408 69.7489L49.9918 112.371C48.9553 113.013 47.53 113.313 46.1911 113.313ZM43.3837 112.414C45.0681 113.356 48.0051 113.27 49.9486 112.157L124.365 69.5347C125.358 68.9779 125.92 68.2068 125.92 67.4786C125.92 66.8789 125.531 66.322 124.84 65.9365L86.4874 43.9616C84.803 43.0192 81.8661 43.1049 79.9225 44.2186L5.5061 86.8405C4.51273 87.3974 3.95125 88.1684 3.95125 88.8966C3.95125 89.4963 4.33996 90.0532 5.03101 90.4387L43.3837 112.414Z" fill="url(#paint6_linear)"/>
<path opacity="0.5" d="M43.297 112.542L4.94423 90.5672C3.21663 89.582 3.43257 87.8685 5.41931 86.7548L79.8357 44.133C81.8225 43.0192 84.8026 42.8907 86.5302 43.876L124.883 65.8508C126.61 66.8361 126.395 68.5495 124.408 69.6632L49.9914 112.285C48.0047 113.399 45.0246 113.527 43.297 112.542Z" fill="url(#paint7_linear)"/>
<path opacity="0.4" d="M116.678 69.4919C116.073 69.8346 115.123 69.8346 114.561 69.4919C113.956 69.1492 113.956 68.5924 114.561 68.2925C115.166 67.9498 116.116 67.9498 116.678 68.2925C117.282 68.5924 117.282 69.1492 116.678 69.4919Z" fill="#24126A"/>
<path opacity="0.4" d="M108.601 63.6234L112.747 65.9794C113.266 66.2792 113.179 66.7932 112.618 67.0931C112.013 67.4358 111.149 67.4786 110.631 67.1788L106.485 64.8228C105.966 64.5229 106.053 64.0089 106.614 63.709C107.219 63.3664 108.083 63.3235 108.601 63.6234Z" fill="#24126A"/>
<path opacity="0.4" d="M84.9327 49.359L89.0791 51.715C89.5974 52.0148 89.511 52.5288 88.9495 52.8287C88.3448 53.1714 87.481 53.2142 86.9627 52.9144L82.8163 50.5584C82.298 50.2585 82.3844 49.7445 82.9459 49.4446C83.5506 49.1448 84.4144 49.102 84.9327 49.359Z" fill="#24126A"/>
<path d="M116.678 67.9926C116.073 68.3353 115.123 68.3353 114.561 67.9926C113.956 67.65 113.956 67.0931 114.561 66.7932C115.166 66.4506 116.116 66.4506 116.678 66.7932C117.282 67.1359 117.282 67.65 116.678 67.9926Z" fill="#F5A623"/>
<path d="M108.601 62.1669L112.747 64.5229C113.266 64.8228 113.179 65.3368 112.618 65.6367C112.013 65.9794 111.149 66.0222 110.631 65.7223L106.485 63.3664C105.966 63.0665 106.053 62.5525 106.614 62.2526C107.219 61.9099 108.083 61.8671 108.601 62.1669Z" fill="#F5A623"/>
<path d="M84.9327 47.9025L89.0791 50.2585C89.5974 50.5584 89.511 51.0724 88.9495 51.3723C88.3448 51.715 87.481 51.7578 86.9627 51.4579L82.8163 49.102C82.298 48.8021 82.3844 48.2881 82.9459 47.9882C83.5506 47.6455 84.4144 47.6027 84.9327 47.9025Z" fill="#F5A623"/>
<g opacity="0.3">
<path opacity="0.3" d="M139.957 119.867V117.939L139.439 117.64C139.309 118.539 138.229 119.139 137.322 119.267L131.189 122.823L128.511 123.765L120.003 119.396L120.219 119.267C119.484 118.925 119.096 118.154 118.707 117.468L118.145 117.811L117.8 117.897V119.867C117.8 120.253 118.059 120.638 118.534 120.895L127.086 125.778C128.079 126.335 129.721 126.335 130.714 125.778L139.266 120.895C139.741 120.595 140 120.253 140 119.867C139.957 119.91 139.957 119.867 139.957 119.867Z" fill="url(#paint8_linear)"/>
<path opacity="0.3" d="M137.279 119.267L131.146 122.823L128.814 123.637V126.25C129.462 126.25 130.109 126.121 130.628 125.821L139.18 120.938C139.655 120.638 139.914 120.295 139.914 119.91V119.867V117.939L139.439 117.682H139.396C139.223 118.582 138.186 119.139 137.279 119.267Z" fill="#0F054C"/>
<g opacity="0.3">
<path opacity="0.3" d="M127.043 123.894L118.491 119.01C117.498 118.453 117.498 117.511 118.491 116.911L127.043 112.028C128.036 111.471 129.678 111.471 130.671 112.028L139.223 116.911C140.217 117.468 140.217 118.411 139.223 119.01L130.671 123.894C129.678 124.451 128.036 124.451 127.043 123.894Z" fill="url(#paint9_linear)"/>
</g>
<g opacity="0.3">
<path opacity="0.3" d="M127.043 123.894L118.491 119.01C117.498 118.453 117.498 117.511 118.491 116.911L127.043 112.028C128.036 111.471 129.678 111.471 130.671 112.028L139.223 116.911C140.217 117.468 140.217 118.411 139.223 119.01L130.671 123.894C129.678 124.451 128.036 124.451 127.043 123.894Z" fill="#0F054C"/>
</g>
</g>
<path d="M128.855 117.682C128.251 117.682 127.689 117.554 127.257 117.297L118.705 112.414C118.273 112.157 118.014 111.814 118.014 111.428C118.014 111.043 118.273 110.7 118.705 110.443L127.257 105.56C128.164 105.046 129.59 105.046 130.497 105.56L139.048 110.443C139.48 110.7 139.74 111.043 139.74 111.428C139.74 111.814 139.48 112.157 139.048 112.414L130.497 117.297C130.021 117.554 129.417 117.682 128.855 117.682ZM128.855 105.346C128.294 105.346 127.732 105.474 127.3 105.688L118.748 110.572C118.36 110.786 118.144 111.086 118.144 111.428C118.144 111.771 118.36 112.028 118.748 112.285L127.3 117.168C128.164 117.64 129.503 117.64 130.367 117.168L138.919 112.285C139.308 112.071 139.524 111.771 139.524 111.428C139.524 111.086 139.308 110.829 138.919 110.572L130.367 105.688C129.935 105.474 129.417 105.346 128.855 105.346Z" fill="#F5A623"/>
<path opacity="0.4" d="M139.957 109.586V106.674L139.439 106.374C139.309 107.273 138.229 107.873 137.322 108.001L131.189 111.557L128.511 112.499L120.003 108.13L120.219 108.001C119.484 107.659 119.096 106.888 118.707 106.202L118.145 106.545L117.8 106.631V109.586C117.8 109.972 118.059 110.357 118.534 110.614L127.086 115.498C128.079 116.055 129.721 116.055 130.714 115.498L139.266 110.614C139.741 110.315 140 109.972 140 109.586C139.957 109.629 139.957 109.586 139.957 109.586Z" fill="#F5A623"/>
<path d="M139.957 107.016V105.089L139.439 104.789C139.309 105.688 138.229 106.288 137.322 106.417L131.189 109.972L128.511 110.914L120.003 106.545L120.219 106.417C119.484 106.074 119.096 105.303 118.707 104.617L118.145 104.96L117.8 105.046V107.016C117.8 107.402 118.059 107.787 118.534 108.044L127.086 112.928C128.079 113.485 129.721 113.485 130.714 112.928L139.266 108.044C139.741 107.744 140 107.402 140 107.016C139.957 107.016 139.957 107.016 139.957 107.016Z" fill="url(#paint10_linear)"/>
<path opacity="0.3" d="M137.279 106.417L131.146 109.972L128.814 110.786V113.399C129.462 113.399 130.109 113.27 130.628 112.97L139.18 108.087C139.655 107.787 139.914 107.445 139.914 107.059V107.016V105.089L139.439 104.832H139.396C139.223 105.688 138.186 106.288 137.279 106.417Z" fill="#0F054C"/>
<path d="M127.043 111L118.491 106.117C117.498 105.56 117.498 104.617 118.491 104.018L127.043 99.1344C128.036 98.5776 129.678 98.5776 130.671 99.1344L139.223 104.018C140.217 104.575 140.217 105.517 139.223 106.074L130.671 111C129.678 111.6 128.036 111.6 127.043 111Z" fill="url(#paint11_linear)"/>
<path d="M139.18 106.117L130.671 111C129.678 111.557 128.036 111.557 127.043 111L118.491 106.117C118.059 105.86 117.8 105.517 117.757 105.217C117.714 105.646 117.93 106.074 118.491 106.374L127.043 111.257C128.036 111.814 129.678 111.814 130.671 111.257L139.223 106.374C139.784 106.074 140.044 105.646 139.957 105.217C139.914 105.517 139.655 105.86 139.18 106.117Z" fill="white"/>
<g opacity="0.3">
<path opacity="0.3" d="M101.908 131.304V129.377L101.39 129.077C101.217 129.976 100.18 130.576 99.2733 130.705L93.1401 134.26L90.4622 135.202L81.9535 130.833L82.1695 130.705C81.4352 130.362 81.0465 129.591 80.6578 128.905L80.0963 129.248L79.7507 129.334V131.304C79.7507 131.69 80.0099 132.075 80.485 132.332L89.0369 137.216C90.0303 137.773 91.6716 137.773 92.665 137.216L101.217 132.332C101.692 132.032 101.951 131.69 101.951 131.304C101.908 131.304 101.908 131.304 101.908 131.304Z" fill="url(#paint12_linear)"/>
<path opacity="0.3" d="M99.2727 130.705L93.1395 134.26L90.8071 135.074V137.687C91.455 137.687 92.1029 137.558 92.6212 137.258L101.173 132.375C101.648 132.075 101.907 131.733 101.907 131.347V131.304V129.377L101.432 129.12H101.389C101.216 129.976 100.137 130.576 99.2727 130.705Z" fill="#0F054C"/>
<g opacity="0.3">
<path opacity="0.3" d="M88.9928 135.288L80.4409 130.405C79.4474 129.848 79.4474 128.905 80.4409 128.306L88.9928 123.422C89.9862 122.866 91.6275 122.866 92.6209 123.422L101.173 128.306C102.166 128.863 102.166 129.805 101.173 130.405L92.6209 135.288C91.6275 135.888 89.9862 135.888 88.9928 135.288Z" fill="url(#paint13_linear)"/>
</g>
<g opacity="0.3">
<path opacity="0.3" d="M88.9928 135.288L80.4409 130.405C79.4474 129.848 79.4474 128.905 80.4409 128.306L88.9928 123.422C89.9862 122.866 91.6275 122.866 92.6209 123.422L101.173 128.306C102.166 128.863 102.166 129.805 101.173 130.405L92.6209 135.288C91.6275 135.888 89.9862 135.888 88.9928 135.288Z" fill="#0F054C"/>
</g>
</g>
<path opacity="0.4" d="M90.8061 136.873C85.5801 136.873 80.3973 135.716 76.4238 133.446C72.5799 131.219 70.4636 128.306 70.4636 125.179C70.4636 122.052 72.5799 119.096 76.4238 116.911C84.3708 112.371 97.2846 112.371 105.188 116.911C109.032 119.139 111.149 122.052 111.149 125.179C111.149 128.306 109.032 131.261 105.188 133.446C101.215 135.716 96.0321 136.873 90.8061 136.873ZM90.8061 113.613C85.6233 113.613 80.4405 114.727 76.5102 116.997C72.7095 119.182 70.5932 122.052 70.5932 125.136C70.5932 128.22 72.7095 131.09 76.5102 133.275C84.414 137.815 97.2414 137.815 105.145 133.275L105.188 133.36L105.145 133.275C108.946 131.09 111.062 128.22 111.062 125.136C111.062 122.052 108.946 119.182 105.145 116.997C101.172 114.77 95.9889 113.613 90.8061 113.613Z" fill="#F5A623"/>
<path opacity="0.2" d="M90.8066 140C84.1985 140 77.5905 138.544 72.5372 135.674C67.6568 132.889 64.9358 129.162 64.9358 125.179C64.9358 121.195 67.6136 117.468 72.5372 114.684C82.6005 108.901 98.9695 108.901 109.033 114.684C113.913 117.468 116.634 121.195 116.634 125.179C116.634 129.162 113.956 132.889 109.033 135.674C104.023 138.544 97.4147 140 90.8066 140ZM90.8066 110.486C84.2417 110.486 77.6337 111.9 72.6236 114.812C67.7863 117.597 65.1085 121.281 65.1085 125.179C65.1085 129.077 67.7863 132.761 72.6236 135.545C82.6437 141.285 98.9695 141.285 108.99 135.545C113.827 132.761 116.505 129.077 116.505 125.179C116.505 121.281 113.827 117.597 108.99 114.812C103.98 111.942 97.3715 110.486 90.8066 110.486Z" fill="#F5A623"/>
<path d="M90.8057 134.389C86.7027 134.389 82.5996 133.489 79.4467 131.69C76.4234 129.934 74.739 127.62 74.739 125.136C74.739 122.651 76.4234 120.338 79.4467 118.582C85.7093 114.984 95.8589 114.984 102.122 118.582C105.145 120.338 106.829 122.651 106.829 125.136C106.829 127.62 105.145 129.934 102.122 131.69C99.0118 133.489 94.9088 134.389 90.8057 134.389ZM90.8057 116.098C86.7459 116.098 82.6428 116.997 79.5331 118.753C76.553 120.467 74.8686 122.737 74.8686 125.179C74.8686 127.578 76.5098 129.891 79.5331 131.604C85.7525 135.16 95.859 135.16 102.078 131.604C105.058 129.891 106.743 127.62 106.743 125.179C106.743 122.78 105.102 120.467 102.078 118.753C98.9686 116.997 94.8656 116.098 90.8057 116.098Z" fill="#F5A623"/>
<path d="M90.8052 128.177C90.2005 128.177 89.639 128.049 89.2071 127.792L80.6552 122.908C80.2233 122.651 79.9641 122.309 79.9641 121.923C79.9641 121.538 80.2233 121.195 80.6552 120.938L89.2071 116.055C90.1141 115.541 91.5394 115.541 92.4465 116.055L100.998 120.938C101.43 121.195 101.689 121.538 101.689 121.923C101.689 122.309 101.43 122.651 100.998 122.908L92.4465 127.792C91.9713 128.049 91.3667 128.177 90.8052 128.177ZM89.2503 127.663C90.1141 128.134 91.4531 128.134 92.3169 127.663L100.869 122.78C101.258 122.566 101.473 122.266 101.473 121.923C101.473 121.623 101.258 121.324 100.869 121.066L92.3169 116.183C91.4531 115.712 90.1141 115.712 89.2503 116.183L80.6984 121.066C80.3096 121.281 80.0937 121.581 80.0937 121.923C80.0937 122.223 80.3096 122.523 80.6984 122.78L89.2503 127.663Z" fill="#F5A623"/>
<path opacity="0.4" d="M101.908 120.081V117.168L101.39 116.869C101.217 117.768 100.18 118.368 99.2733 118.496L93.1401 122.052L90.4622 122.994L81.9535 118.625L82.1695 118.496C81.4352 118.154 81.0465 117.383 80.6578 116.697L80.0963 117.04L79.7507 117.126V120.081C79.7507 120.467 80.0099 120.852 80.485 121.109L89.0369 125.993C90.0303 126.549 91.6716 126.549 92.665 125.993L101.217 121.109C101.692 120.809 101.951 120.467 101.951 120.081C101.908 120.081 101.908 120.081 101.908 120.081Z" fill="#F5A623"/>
<path d="M101.908 117.468V115.541L101.39 115.241C101.217 116.14 100.18 116.74 99.2733 116.869L93.1401 120.424L90.4622 121.366L81.9535 116.997L82.1695 116.869C81.4352 116.526 81.0465 115.755 80.6578 115.069L80.0963 115.412L79.7507 115.498V117.468C79.7507 117.854 80.0099 118.239 80.485 118.496L89.0369 123.38C90.0303 123.937 91.6716 123.937 92.665 123.38L101.217 118.496C101.692 118.196 101.951 117.854 101.951 117.468C101.908 117.511 101.908 117.511 101.908 117.468Z" fill="url(#paint14_linear)"/>
<path opacity="0.3" d="M99.2727 116.911L93.1395 120.467L90.8071 121.281V123.894C91.455 123.894 92.1029 123.765 92.6212 123.465L101.173 118.582C101.648 118.282 101.907 117.939 101.907 117.554V117.511V115.583L101.432 115.326H101.389C101.216 116.183 100.137 116.783 99.2727 116.911Z" fill="#0F054C"/>
<path d="M88.9928 121.495L80.4409 116.612C79.4474 116.055 79.4474 115.112 80.4409 114.513L88.9928 109.629C89.9862 109.072 91.6275 109.072 92.6209 109.629L101.173 114.513C102.166 115.069 102.166 116.012 101.173 116.612L92.6209 121.495C91.6275 122.052 89.9862 122.052 88.9928 121.495Z" fill="url(#paint15_linear)"/>
<path d="M90.8072 120.595C90.2889 120.595 89.7706 120.467 89.3387 120.253L82.644 116.44C82.2553 116.226 82.0393 115.883 82.0393 115.583C82.0393 115.241 82.2553 114.941 82.644 114.727L89.3387 110.914C90.1593 110.443 91.4551 110.443 92.2325 110.914L98.9272 114.727C99.3159 114.941 99.5319 115.284 99.5319 115.583C99.5319 115.926 99.3159 116.226 98.9272 116.44L92.2325 120.253C91.8438 120.51 91.3255 120.595 90.8072 120.595ZM90.8072 110.657C90.2889 110.657 89.8138 110.786 89.4251 111L82.7304 114.812C82.3848 115.027 82.1689 115.284 82.1689 115.541C82.1689 115.84 82.3848 116.098 82.7304 116.269L89.4251 120.081C90.2025 120.51 91.4119 120.51 92.1893 120.081L98.884 116.269C99.2295 116.055 99.4455 115.798 99.4455 115.541C99.4455 115.241 99.2295 114.984 98.884 114.812L92.1893 111C91.8006 110.786 91.3255 110.657 90.8072 110.657Z" fill="#5351AF"/>
<path d="M101.173 116.612L92.621 121.495C91.6276 122.052 89.9863 122.052 88.9929 121.495L80.441 116.612C80.0091 116.355 79.75 116.012 79.7068 115.712C79.6636 116.14 79.8795 116.569 80.441 116.869L88.9929 121.752C89.9863 122.309 91.6276 122.309 92.621 121.752L101.173 116.869C101.734 116.569 101.994 116.14 101.907 115.712C101.864 116.012 101.605 116.355 101.173 116.612Z" fill="white"/>
<path opacity="0.8" d="M52.052 48.7014C52.052 48.7014 54.4906 22.0578 59.6899 25.0284C64.8892 28.0447 62.3585 43.4916 67.7879 46.5535C73.0792 49.6155 70.2265 2.40647 78.2324 7.02225C83.9838 10.3127 82.1434 46.1422 87.2967 49.1128C93.0481 52.4032 91.3917 38.9215 96.5449 39.5156C99.4896 39.8812 101.008 48.61 105.195 50.6209C109.336 52.586 107.358 14.6086 113.937 18.4018C120.609 22.2406 122.541 89.101 122.541 89.101L52.052 48.7014Z" fill="#777FF7"/>
<path d="M59.9202 24.7999C59.9202 25.394 59.4141 25.8967 58.816 25.8967C58.2178 25.8967 57.7117 25.394 57.7117 24.7999C57.7117 24.2058 58.2178 23.7031 58.816 23.7031C59.4141 23.7031 59.9202 24.1601 59.9202 24.7999Z" fill="white"/>
<path d="M78.2784 6.74806C78.2784 7.34217 77.7722 7.84488 77.1741 7.84488C76.5759 7.84488 76.0698 7.34217 76.0698 6.74806C76.0698 6.15394 76.5759 5.65124 77.1741 5.65124C77.7722 5.65124 78.2784 6.10824 78.2784 6.74806Z" fill="white"/>
<path d="M97.4651 39.4699C97.4651 40.064 96.959 40.5667 96.3609 40.5667C95.7627 40.5667 95.2566 40.064 95.2566 39.4699C95.2566 38.8758 95.7627 38.373 96.3609 38.373C96.959 38.373 97.4651 38.8758 97.4651 39.4699Z" fill="white"/>
<path d="M114.167 18.0362C114.167 18.6303 113.661 19.133 113.063 19.133C112.465 19.133 111.958 18.6303 111.958 18.0362C111.958 17.4421 112.465 16.9393 113.063 16.9393C113.661 16.9393 114.167 17.4421 114.167 18.0362Z" fill="white"/>
<path opacity="0.8" d="M35.9021 56.6077C35.9021 56.6077 37.6965 30.1469 41.6075 32.3862C45.4724 34.6256 43.632 50.1182 47.635 52.4489C51.5919 54.734 49.4294 14.0145 55.4109 17.4421C59.6899 19.9099 58.3556 33.5288 62.1745 35.7224C66.4996 38.1903 65.7174 31.4265 69.0762 33.346C72.3891 35.2654 72.4351 43.8572 75.5178 45.2739C78.6466 46.6449 77.1282 15.7968 82.0514 18.6303C87.0206 21.4637 88.447 86.816 88.447 86.816L35.9021 56.6077Z" fill="#F7B84F"/>
<path d="M42.3894 32.2491C42.3894 32.8432 41.8833 33.3459 41.2852 33.3459C40.687 33.3459 40.1809 32.8432 40.1809 32.2491C40.1809 31.655 40.687 31.1523 41.2852 31.1523C41.8833 31.1523 42.3894 31.655 42.3894 32.2491Z" fill="white"/>
<path d="M55.8711 17.2135C55.8711 17.8076 55.365 18.3104 54.7669 18.3104C54.1687 18.3104 53.6626 17.8076 53.6626 17.2135C53.6626 16.6194 54.1687 16.1167 54.7669 16.1167C55.411 16.1167 55.8711 16.6194 55.8711 17.2135Z" fill="white"/>
<path d="M69.1219 33.0261C69.1219 33.6202 68.6158 34.1229 68.0176 34.1229C67.4195 34.1229 66.9133 33.6202 66.9133 33.0261C66.9133 32.432 67.4195 31.9292 68.0176 31.9292C68.6158 31.9292 69.1219 32.432 69.1219 33.0261Z" fill="white"/>
<path d="M82.5118 18.4932C82.5118 19.0873 82.0056 19.59 81.4075 19.59C80.8093 19.59 80.3032 19.0873 80.3032 18.4932C80.3032 17.8991 80.8093 17.3963 81.4075 17.3963C82.0056 17.3963 82.5118 17.8991 82.5118 18.4932Z" fill="white"/>
<path opacity="0.4" d="M41.2858 59.9439C41.1476 59.9439 41.0554 59.8525 41.0554 59.7154V32.2949C41.0554 32.1578 41.1476 32.0663 41.2858 32.0663C41.4241 32.0663 41.5162 32.1578 41.5162 32.2949V59.7154C41.5162 59.8068 41.4241 59.9439 41.2858 59.9439Z" fill="white"/>
<path opacity="0.4" d="M54.7668 67.6673C54.6285 67.6673 54.5364 67.5759 54.5364 67.4388V17.2135C54.5364 17.0764 54.6285 16.985 54.7668 16.985C54.905 16.985 54.9972 17.0764 54.9972 17.2135V67.4388C54.9972 67.5759 54.905 67.6673 54.7668 67.6673Z" fill="white"/>
<path opacity="0.4" d="M68.0185 75.2994C67.8802 75.2994 67.7881 75.208 67.7881 75.0709V33.0718C67.7881 32.9347 67.8802 32.8433 68.0185 32.8433C68.1567 32.8433 68.2489 32.9347 68.2489 33.0718V75.0709C68.2489 75.1623 68.1567 75.2994 68.0185 75.2994Z" fill="white"/>
<path opacity="0.4" d="M81.4077 82.8857C81.2694 82.8857 81.1772 82.7943 81.1772 82.6572V18.5846C81.1772 18.4475 81.2694 18.3561 81.4077 18.3561C81.5459 18.3561 81.6381 18.4475 81.6381 18.5846V82.6572C81.6381 82.7943 81.5459 82.8857 81.4077 82.8857Z" fill="white"/>
<path d="M24.9974 43.9486C24.9054 43.9486 24.8594 43.9028 24.8133 43.8571C24.7213 43.7657 24.7673 43.6286 24.8594 43.5372L41.1474 32.0663L54.6287 17.0307C54.6747 16.985 54.7207 16.9393 54.8127 16.9393C54.8587 16.9393 54.9507 16.985 54.9967 17.0307L68.064 32.6604L81.2692 18.3104L96.959 0.0757192C97.0511 -0.0156825 97.1891 -0.0156818 97.2811 0.0300191C97.3731 0.121421 97.3731 0.258522 97.3271 0.349924L81.6373 18.5846L68.248 33.1174C68.202 33.1631 68.156 33.2089 68.064 33.2089C68.0179 33.2089 67.9259 33.1631 67.8799 33.1174L54.8127 17.4877L41.4694 32.4319L41.4234 32.4776L25.1354 43.9029C25.0894 43.9486 25.0434 43.9486 24.9974 43.9486Z" fill="white"/>
<defs>
<linearGradient id="paint0_linear" x1="38.8318" y1="67.879" x2="29.5396" y2="52.1832" gradientUnits="userSpaceOnUse">
<stop stop-color="#7F7CA7"/>
<stop offset="1" stop-color="#C2BCD5"/>
</linearGradient>
<linearGradient id="paint1_linear" x1="38.8318" y1="58.3733" x2="29.5396" y2="42.6775" gradientUnits="userSpaceOnUse">
<stop stop-color="#7F7CA7"/>
<stop offset="1" stop-color="#C2BCD5"/>
</linearGradient>
<linearGradient id="paint2_linear" x1="38.8318" y1="48.9132" x2="29.5396" y2="33.2174" gradientUnits="userSpaceOnUse">
<stop stop-color="#7F7CA7"/>
<stop offset="1" stop-color="#C2BCD5"/>
</linearGradient>
<linearGradient id="paint3_linear" x1="38.8318" y1="39.4074" x2="29.5396" y2="23.7116" gradientUnits="userSpaceOnUse">
<stop stop-color="#7F7CA7"/>
<stop offset="1" stop-color="#C2BCD5"/>
</linearGradient>
<linearGradient id="paint4_linear" x1="38.832" y1="29.9016" x2="29.5399" y2="14.2058" gradientUnits="userSpaceOnUse">
<stop stop-color="#7F7CA7"/>
<stop offset="1" stop-color="#C2BCD5"/>
</linearGradient>
<linearGradient id="paint5_linear" x1="2.27203" y1="83.6393" x2="127.648" y2="83.6393" gradientUnits="userSpaceOnUse">
<stop stop-color="#BCBEFF"/>
<stop offset="0.151" stop-color="#A3A7F5"/>
<stop offset="0.3866" stop-color="#8289E8"/>
<stop offset="0.6124" stop-color="#6A73DF"/>
<stop offset="0.8221" stop-color="#5C66D9"/>
<stop offset="1" stop-color="#5761D7"/>
</linearGradient>
<linearGradient id="paint6_linear" x1="82.4237" y1="101.231" x2="47.7925" y2="54.8945" gradientUnits="userSpaceOnUse">
<stop stop-color="#42E8E0"/>
<stop offset="0.1055" stop-color="#37B6BF"/>
<stop offset="0.2197" stop-color="#2C87A1"/>
<stop offset="0.338" stop-color="#235F87"/>
<stop offset="0.4587" stop-color="#1C3F72"/>
<stop offset="0.5824" stop-color="#162561"/>
<stop offset="0.7105" stop-color="#121355"/>
<stop offset="0.8458" stop-color="#10084E"/>
<stop offset="1" stop-color="#0F054C"/>
</linearGradient>
<linearGradient id="paint7_linear" x1="166.284" y1="65.5869" x2="124.841" y2="-4.80314" gradientUnits="userSpaceOnUse">
<stop stop-color="#7F7CA7"/>
<stop offset="1" stop-color="#C2BCD5"/>
</linearGradient>
<linearGradient id="paint8_linear" x1="119.945" y1="114.133" x2="137.498" y2="124.351" gradientUnits="userSpaceOnUse">
<stop stop-color="#BCBEFF"/>
<stop offset="0.2271" stop-color="#AAADF8"/>
<stop offset="0.6802" stop-color="#7C83E5"/>
<stop offset="1" stop-color="#5761D7"/>
</linearGradient>
<linearGradient id="paint9_linear" x1="117.735" y1="117.948" x2="139.951" y2="117.948" gradientUnits="userSpaceOnUse">
<stop stop-color="#E9E9FD"/>
<stop offset="0.3601" stop-color="#D3D2F9"/>
<stop offset="0.7062" stop-color="#C5C4F7"/>
<stop offset="1" stop-color="#C0BFF6"/>
</linearGradient>
<linearGradient id="paint10_linear" x1="119.945" y1="101.265" x2="137.498" y2="111.484" gradientUnits="userSpaceOnUse">
<stop stop-color="#BCBEFF"/>
<stop offset="0.2271" stop-color="#AAADF8"/>
<stop offset="0.6802" stop-color="#7C83E5"/>
<stop offset="1" stop-color="#5761D7"/>
</linearGradient>
<linearGradient id="paint11_linear" x1="117.735" y1="105.08" x2="139.951" y2="105.08" gradientUnits="userSpaceOnUse">
<stop stop-color="#E9E9FD"/>
<stop offset="0.3601" stop-color="#D3D2F9"/>
<stop offset="0.7062" stop-color="#C5C4F7"/>
<stop offset="1" stop-color="#C0BFF6"/>
</linearGradient>
<linearGradient id="paint12_linear" x1="81.9091" y1="125.549" x2="99.4624" y2="135.768" gradientUnits="userSpaceOnUse">
<stop stop-color="#BCBEFF"/>
<stop offset="0.2271" stop-color="#AAADF8"/>
<stop offset="0.6802" stop-color="#7C83E5"/>
<stop offset="1" stop-color="#5761D7"/>
</linearGradient>
<linearGradient id="paint13_linear" x1="79.698" y1="129.364" x2="101.914" y2="129.364" gradientUnits="userSpaceOnUse">
<stop stop-color="#E9E9FD"/>
<stop offset="0.3601" stop-color="#D3D2F9"/>
<stop offset="0.7062" stop-color="#C5C4F7"/>
<stop offset="1" stop-color="#C0BFF6"/>
</linearGradient>
<linearGradient id="paint14_linear" x1="81.9091" y1="111.748" x2="99.4624" y2="121.967" gradientUnits="userSpaceOnUse">
<stop stop-color="#BCBEFF"/>
<stop offset="0.2271" stop-color="#AAADF8"/>
<stop offset="0.6802" stop-color="#7C83E5"/>
<stop offset="1" stop-color="#5761D7"/>
</linearGradient>
<linearGradient id="paint15_linear" x1="79.698" y1="115.563" x2="101.914" y2="115.563" gradientUnits="userSpaceOnUse">
<stop stop-color="#E9E9FD"/>
<stop offset="0.3601" stop-color="#D3D2F9"/>
<stop offset="0.7062" stop-color="#C5C4F7"/>
<stop offset="1" stop-color="#C0BFF6"/>
</linearGradient>
</defs>
</svg>
