<svg width="68" height="62" viewBox="0 0 68 62" fill="none" xmlns="http://www.w3.org/2000/svg">
<path d="M24.0085 4.63509C23.4748 3.68744 22.2623 3.34539 21.3002 3.87108C16.8098 6.32427 12.954 9.86441 10.1498 14.1091C9.54971 15.0172 9.81082 16.2326 10.7329 16.8236C11.6552 17.4145 12.8891 17.1574 13.4892 16.2491C15.9398 12.5397 19.3092 9.44598 23.2327 7.30253C24.1948 6.77697 24.5421 5.58275 24.0085 4.63509Z" fill="#F5A623"/>
<path d="M58.7851 9.07999C52.8424 3.22465 44.9412 0 36.537 0C35.4368 0 34.5449 0.878464 34.5449 1.96203C34.5449 3.04559 35.4368 3.92405 36.537 3.92405C51.6889 3.92405 64.0158 16.0703 64.0158 31C64.0158 45.9297 51.6889 58.076 36.537 58.076C24.4625 58.076 14.1821 50.3626 10.5041 39.674L13.7981 39.3497C15.4685 39.1853 16.1949 37.1762 15.0074 36.0088L8.49958 29.6114C7.55104 28.6789 5.87826 28.9047 5.27038 30.1549L0.33719 37.4526C-0.593029 38.8286 0.523792 40.656 2.19351 40.4923L6.437 40.0745C10.2756 52.4914 22.0762 62 36.537 62C53.9272 62 68 48.1348 68 31C68 22.7197 64.7274 14.9351 58.7851 9.07999Z" fill="#F5A623"/>
<path d="M36.5372 13.3419C26.6513 13.3419 18.6084 21.2634 18.6084 31.0001C18.6084 40.7369 26.6511 48.6584 36.5372 48.6584C46.4232 48.6584 54.4659 40.7369 54.4659 31.0001C54.4659 21.2634 46.4231 13.3419 36.5372 13.3419ZM35.0617 37.8263H27.22C26.6032 37.8263 25.7221 37.4136 25.7221 36.7835V34.6766H25.722C25.722 31.2661 32.6606 29.311 32.6606 26.5521C32.6606 25.857 32.2201 25.0097 30.9865 25.0097C30.1054 25.0097 29.3345 25.4442 29.3345 26.639C29.3345 27.2689 28.6515 27.8771 27.5282 27.8771C26.6471 27.8771 25.9863 27.4862 25.9863 26.1176C25.9863 23.4673 28.4534 21.9467 30.9645 21.9467C33.5197 21.9467 36.097 23.5325 36.097 26.4434C36.097 31.1574 29.2905 32.6997 29.2905 34.6765V34.872H35.0617C35.6124 34.872 36.0972 35.5454 36.0972 36.3274C36.0972 37.1095 35.6125 37.8263 35.0617 37.8263ZM46.8021 34.4813H45.8549V36.7839C45.8549 37.479 44.9959 37.8267 44.1368 37.8267C43.2778 37.8267 42.4186 37.4791 42.4186 36.7839V34.4813H37.2642C36.2211 34.481 35.8665 33.4311 36.2949 32.6564L41.3834 22.8159C41.7138 22.1859 42.2644 21.947 42.8152 21.947C43.4099 21.947 44.5333 22.4465 44.5333 23.2286C44.5333 23.359 44.4892 23.4893 44.4232 23.6412L40.5243 31.3531H42.4186V29.8325C42.4186 29.1157 43.2777 28.8114 44.1368 28.8114C44.9959 28.8114 45.8549 29.1156 45.8549 29.8325V31.3531H46.8021C47.5069 31.3531 47.8594 32.1351 47.8594 32.9172C47.8594 33.6992 47.3307 34.4813 46.8021 34.4813Z" fill="white"/>
</svg>
