<svg width="122" height="101" viewBox="0 0 122 101" fill="none" xmlns="http://www.w3.org/2000/svg">
<g opacity="0.75">
<path opacity="0.3" d="M42.7238 58.8779C30.7275 65.8511 30.6643 77.1563 42.5827 84.1296C54.4993 91.1018 73.8847 91.1019 85.8811 84.1287C97.8755 77.1566 97.9388 65.8514 86.0222 58.8792C74.1038 51.9059 54.7183 51.9058 42.7238 58.8779Z" fill="#06002A"/>
<path d="M55.3784 73.8907L37.2551 82.5388C36.0478 83.1149 34.64 83.0762 33.4657 82.4344L24.9823 77.798C23.7993 77.1514 22.3798 77.1172 21.1674 77.7058L1 87.4433" stroke="url(#paint0_linear)" stroke-width="0.476364"/>
<path d="M28.2444 80.3384C29.0447 80.3384 29.6934 80.1025 29.6934 79.8115C29.6934 79.5206 29.0447 79.2847 28.2444 79.2847C27.4441 79.2847 26.7954 79.5206 26.7954 79.8115C26.7954 80.1025 27.4441 80.3384 28.2444 80.3384Z" fill="#F5A623"/>
<path d="M87.4707 62.579L109.519 51.6324C109.991 51.398 110 50.723 109.534 50.4766L101.197 46.072C100.73 45.8249 100.739 45.1473 101.214 44.9146L121 33.1552" stroke="url(#paint1_linear)" stroke-width="0.476364"/>
<path d="M95.4307 59.319C96.2309 59.319 96.8797 59.0831 96.8797 58.7921C96.8797 58.5012 96.2309 58.2653 95.4307 58.2653C94.6304 58.2653 93.9817 58.5012 93.9817 58.7921C93.9817 59.0831 94.6304 59.319 95.4307 59.319Z" fill="#F5A623"/>
<path d="M77.4661 77.951L92.5033 85.9477C93.0902 86.2597 93.0708 87.1124 92.4711 87.3975L78.3011 95.0853C77.67 95.3851 77.6909 96.2966 78.3357 96.5667L84.1067 100" stroke="url(#paint2_linear)" stroke-width="0.476364"/>
<path d="M87.2593 90.3914C88.0595 90.3914 88.7083 90.1555 88.7083 89.8645C88.7083 89.5735 88.0595 89.3376 87.2593 89.3376C86.459 89.3376 85.8103 89.5735 85.8103 89.8645C85.8103 90.1555 86.459 90.3914 87.2593 90.3914Z" fill="#F5A623"/>
</g>
<path d="M93.1607 60.6604C93.158 60.7345 93.1539 60.8086 93.1496 60.8826C93.1459 60.9468 93.1423 61.0108 93.1374 61.0748C93.1316 61.1495 93.1243 61.224 93.1168 61.2986C93.1105 61.3621 93.1045 61.4255 93.0969 61.4889C93.0879 61.5642 93.0771 61.6394 93.0664 61.7147C93.0575 61.7773 93.0492 61.8399 93.0391 61.9025C93.0268 61.9786 93.0126 62.0546 92.9986 62.1306C92.9873 62.1922 92.9767 62.2537 92.9641 62.3152C92.9488 62.3905 92.9314 62.4656 92.9144 62.5408C92.9005 62.6022 92.8874 62.6636 92.8724 62.725C92.8538 62.8008 92.833 62.8764 92.8126 62.9521C92.7963 63.0126 92.7809 63.0733 92.7635 63.1338C92.7414 63.2109 92.7168 63.2877 92.6927 63.3646C92.6744 63.4233 92.6572 63.4822 92.6379 63.5408C92.6112 63.6215 92.5819 63.7019 92.5532 63.7823C92.5338 63.8369 92.5156 63.8916 92.4953 63.946C92.452 64.0617 92.4058 64.1771 92.3583 64.2923C92.3495 64.3135 92.3419 64.3349 92.333 64.3561C92.2759 64.4923 92.2159 64.6281 92.153 64.7636C92.1334 64.8056 92.112 64.8474 92.092 64.8893C92.0473 64.9827 92.0026 65.0761 91.9552 65.1691C91.9284 65.2217 91.8995 65.2741 91.8717 65.3266C91.8283 65.4087 91.7853 65.4907 91.7397 65.5725C91.713 65.6205 91.6845 65.6682 91.6569 65.7161C91.6037 65.8089 91.5498 65.9016 91.4936 65.9939C91.4608 66.048 91.4266 66.1019 91.3928 66.1558C91.3391 66.2415 91.2846 66.327 91.2284 66.4122C91.1916 66.4679 91.1542 66.5234 91.1165 66.5789C91.0594 66.663 91.0009 66.7468 90.9415 66.8304C90.9026 66.885 90.8636 66.9395 90.8238 66.9939C90.7605 67.0803 90.6953 67.1662 90.6294 67.252C90.5919 67.301 90.5548 67.35 90.5164 67.3988C90.398 67.5492 90.2763 67.6989 90.15 67.8476C90.1294 67.8719 90.1075 67.8959 90.0867 67.9201C89.9789 68.0456 89.868 68.1704 89.7544 68.2947C89.713 68.3399 89.671 68.385 89.6289 68.4301C89.5249 68.5414 89.4185 68.6521 89.3099 68.7623C89.2723 68.8005 89.2354 68.8389 89.1972 68.877C89.0525 69.0212 88.9043 69.1646 88.7516 69.3069C88.6955 69.3593 88.6371 69.4111 88.5799 69.4631C88.5066 69.5298 88.434 69.5966 88.359 69.6629C88.2981 69.7166 88.2352 69.7696 88.1731 69.8229C88.098 69.8876 88.0234 69.9523 87.9465 70.0165C87.882 70.0704 87.8154 70.1238 87.7496 70.1773C87.6724 70.2402 87.5957 70.3033 87.5168 70.3657C87.4492 70.4192 87.3796 70.4722 87.3106 70.5255C87.2309 70.587 87.1517 70.6486 87.0704 70.7097C86.9993 70.763 86.9263 70.8158 86.854 70.8688C86.7721 70.9288 86.6905 70.9888 86.6071 71.0483C86.5328 71.1012 86.4569 71.1536 86.3813 71.206C86.2968 71.2648 86.2125 71.3237 86.1264 71.3819C86.0492 71.4341 85.9704 71.4858 85.892 71.5375C85.8049 71.595 85.7178 71.6526 85.6291 71.7097C85.5491 71.7611 85.4676 71.812 85.3864 71.863C85.2961 71.9195 85.206 71.9761 85.1142 72.0321C84.9703 72.1199 84.8256 72.2075 84.6778 72.2939C84.3616 72.4789 84.0379 72.6569 83.7109 72.8317C83.6246 72.8778 83.5379 72.9234 83.4509 72.9688C83.1571 73.1221 82.8598 73.2719 82.5581 73.4171C82.5182 73.4363 82.4792 73.4565 82.4392 73.4755C82.1021 73.6359 81.7592 73.7901 81.4128 73.9403C81.3233 73.9792 81.2329 74.0171 81.1427 74.0554C80.8479 74.1803 80.5503 74.3017 80.2493 74.4193C80.1836 74.445 80.1185 74.4718 80.0524 74.4972C79.6964 74.6338 79.336 74.765 78.9723 74.8917C78.8846 74.9222 78.7961 74.9515 78.708 74.9815C78.4622 75.065 78.2136 75.1447 77.9646 75.2237C77.7288 75.2985 77.4917 75.3712 77.2531 75.4418C77.0523 75.5013 76.8508 75.5599 76.6481 75.6166C76.4069 75.6839 76.164 75.7487 75.9204 75.812C75.7164 75.865 75.5122 75.9176 75.3065 75.9678C75.0595 76.028 74.8107 76.085 74.5614 76.1411C74.3556 76.1873 74.15 76.2339 73.9428 76.2774C73.6889 76.3306 73.4334 76.38 73.1776 76.4291C72.9513 76.4725 72.7255 76.517 72.4978 76.5572C72.3944 76.5754 72.2909 76.5927 72.1872 76.6102C71.8385 76.6691 71.4885 76.7245 71.1369 76.7757C71.0768 76.7844 71.0171 76.7943 70.957 76.8028C70.5554 76.8597 70.1519 76.9105 69.7471 76.9572C69.6456 76.969 69.5436 76.9798 69.4418 76.9908C69.1915 77.0182 68.9403 77.0415 68.6891 77.065C68.3763 77.0942 68.0629 77.1203 67.7488 77.1436C67.5516 77.1582 67.3544 77.1728 67.1568 77.185C66.8298 77.2053 66.5022 77.221 66.1744 77.2348C65.9896 77.2427 65.805 77.2522 65.62 77.258C65.3358 77.2669 65.0513 77.2706 64.7669 77.2747C64.5676 77.2775 64.3684 77.2825 64.1692 77.283C63.8644 77.2837 63.5597 77.2785 63.255 77.2737C63.0757 77.2709 62.8964 77.271 62.7173 77.2662C62.4364 77.2588 62.1559 77.2451 61.8753 77.233C61.6825 77.2247 61.4893 77.2194 61.2967 77.2088C60.9949 77.1922 60.694 77.1691 60.393 77.1471C60.2222 77.1346 60.051 77.1255 59.8805 77.1112C59.5152 77.0807 59.1515 77.0431 58.7881 77.0045C58.6837 76.9934 58.5787 76.9854 58.4745 76.9736C58.0072 76.921 57.5417 76.8617 57.0783 76.7956C57.0028 76.7849 56.9284 76.7714 56.8531 76.7602C56.456 76.7017 56.0599 76.6402 55.6665 76.5718C55.501 76.543 55.3375 76.5095 55.1726 76.479C54.8713 76.4232 54.5698 76.3678 54.2711 76.3062C54.1139 76.2738 53.9589 76.2373 53.8025 76.2032C53.4737 76.1316 53.1457 76.0586 52.8206 75.9798C52.639 75.9359 52.4591 75.8889 52.2787 75.8427C51.9817 75.7667 51.686 75.6886 51.3927 75.6066C51.1407 75.5361 50.8892 75.4648 50.6401 75.3899C50.5467 75.3619 50.4528 75.3347 50.3598 75.306C49.9844 75.1901 49.6121 75.0697 49.2437 74.9437C49.1727 74.9194 49.1029 74.8936 49.0323 74.8689C48.7269 74.7624 48.4242 74.6521 48.1242 74.5386C48.0224 74.5 47.9205 74.4613 47.8193 74.422C47.5803 74.329 47.3449 74.2317 47.1095 74.1342C46.9479 74.0671 46.7853 74.0012 46.6255 73.9321C46.3961 73.8328 46.1706 73.7292 45.9451 73.6255C45.7975 73.5577 45.6483 73.4917 45.5026 73.422C45.2563 73.3043 45.0152 73.1813 44.7741 73.0582C44.6543 72.9971 44.5321 72.9385 44.4136 72.876C44.0568 72.6879 43.7053 72.4944 43.3609 72.2942C39.761 70.2017 37.2873 67.7001 35.9414 65.0468C35.1338 63.4548 34.7322 61.8082 34.7368 60.1626V60.1633C34.7368 60.163 34.7368 60.1626 34.7368 60.1626L34.7083 70.2802C34.696 74.6686 37.5726 79.0638 43.3324 82.4118C43.6768 82.6119 44.0284 82.8054 44.3852 82.9936C44.5036 83.0561 44.626 83.1147 44.7457 83.1758C44.9868 83.2989 45.2279 83.4218 45.474 83.5396C45.6199 83.6093 45.769 83.6753 45.9167 83.7431C46.1422 83.8467 46.3676 83.9504 46.597 84.0497C46.7569 84.1188 46.9194 84.1847 47.0811 84.2518C47.2368 84.3162 47.3899 84.3839 47.5473 84.4464C47.6277 84.4784 47.7099 84.5081 47.7908 84.5396C47.8921 84.579 47.9938 84.6177 48.0957 84.6562C48.3957 84.7698 48.6983 84.88 49.0038 84.9866C49.0745 85.0112 49.1442 85.037 49.2152 85.0614C49.5835 85.1875 49.9559 85.3078 50.3313 85.4237C50.4243 85.4524 50.5182 85.4796 50.6116 85.5076C50.7727 85.556 50.9328 85.606 51.0951 85.6526C51.1838 85.678 51.275 85.6994 51.3641 85.7243C51.6577 85.8063 51.9534 85.8845 52.2505 85.9606C52.4308 86.0067 52.6106 86.0537 52.7921 86.0975C53.1175 86.1762 53.4456 86.2494 53.7746 86.321C53.8978 86.3478 54.0189 86.3788 54.1425 86.4047C54.1756 86.4115 54.2094 86.417 54.2426 86.4239C54.5417 86.4855 54.8434 86.541 55.1449 86.5969C55.3095 86.6273 55.4728 86.6608 55.638 86.6895C56.032 86.758 56.4286 86.8196 56.8262 86.8782C56.8974 86.8887 56.9675 86.9017 57.0389 86.912C57.0425 86.9125 57.0462 86.9129 57.0499 86.9133C57.5132 86.9794 57.9788 87.0387 58.4461 87.0914C58.5497 87.1031 58.654 87.111 58.7577 87.122C59.1218 87.1607 59.4862 87.1984 59.8521 87.2289C59.8612 87.2296 59.8701 87.2308 59.8792 87.2315C60.0405 87.2449 60.2026 87.2529 60.3642 87.2647C60.6654 87.2867 60.9664 87.3099 61.2683 87.3264C61.4609 87.3369 61.6541 87.3423 61.8469 87.3506C62.1275 87.3627 62.4079 87.3763 62.6889 87.3838C62.7115 87.3843 62.7342 87.3858 62.7569 87.3865C62.9134 87.3904 63.0701 87.3888 63.2267 87.3913C63.5314 87.3961 63.8361 87.4013 64.1408 87.4007C64.3402 87.4002 64.5393 87.3952 64.7385 87.3923C65.023 87.3882 65.3075 87.3845 65.5916 87.3756C65.6441 87.374 65.6967 87.3743 65.7492 87.3725C65.8817 87.368 66.0137 87.358 66.1461 87.3524C66.4739 87.3386 66.8013 87.3229 67.1284 87.3026C67.3261 87.2904 67.5232 87.2758 67.7205 87.2612C68.0345 87.2379 68.3478 87.2119 68.6607 87.1826C68.77 87.1724 68.8801 87.1661 68.9892 87.1552C69.131 87.1409 69.272 87.1239 69.4135 87.1084C69.5154 87.0973 69.6171 87.0866 69.7188 87.0748C70.1235 87.0281 70.5271 86.9772 70.9287 86.9204C70.9889 86.9119 71.0485 86.9021 71.1086 86.8933C71.4602 86.8421 71.8102 86.7867 72.159 86.7278C72.2625 86.7103 72.3662 86.6929 72.4695 86.6747C72.5515 86.6603 72.6341 86.6474 72.7159 86.6325C72.8613 86.6062 73.0043 86.5744 73.1492 86.5467C73.405 86.4976 73.6606 86.4482 73.9145 86.395C74.1216 86.3515 74.327 86.305 74.5328 86.2588C74.7821 86.2027 75.031 86.1457 75.2782 86.0854C75.4838 86.0352 75.688 85.9827 75.8921 85.9296C76.1359 85.8663 76.3787 85.8016 76.62 85.7342C76.8225 85.6775 77.0238 85.619 77.2246 85.5595C77.4632 85.4888 77.7004 85.4162 77.9363 85.3413C78.0393 85.3087 78.1446 85.2796 78.247 85.2461C78.3923 85.1986 78.5354 85.1481 78.6797 85.0991C78.7678 85.0692 78.8562 85.0398 78.9439 85.0093C79.3077 84.8827 79.6681 84.7515 80.0242 84.6148C80.0903 84.5894 80.1552 84.5626 80.2211 84.5369C80.522 84.4192 80.8197 84.2978 81.1145 84.173C81.2046 84.1347 81.295 84.0968 81.3846 84.0579C81.7309 83.9077 82.0738 83.7536 82.4109 83.5932C82.451 83.5741 82.49 83.554 82.5299 83.5347C82.8316 83.3896 83.1286 83.2398 83.4223 83.0865C83.5094 83.0411 83.5963 82.9955 83.6826 82.9494C84.0095 82.7747 84.3333 82.5967 84.6495 82.4117C84.7697 82.3414 84.8885 82.2707 85.0061 82.1994C85.0332 82.183 85.059 82.1662 85.086 82.1497C85.1778 82.0937 85.2679 82.0372 85.3581 81.9806C85.4394 81.9297 85.5209 81.8788 85.6008 81.8274C85.6895 81.7703 85.7766 81.7128 85.8638 81.6552C85.9422 81.6034 86.021 81.5518 86.0982 81.4996C86.1843 81.4414 86.2687 81.3825 86.3532 81.3237C86.4288 81.2713 86.5047 81.2189 86.5789 81.166C86.6624 81.1066 86.7439 81.0465 86.8258 80.9865C86.8981 80.9335 86.971 80.8807 87.0421 80.8274C87.1234 80.7663 87.2027 80.7047 87.2823 80.6432C87.3512 80.5899 87.4208 80.537 87.4885 80.4834C87.5673 80.421 87.644 80.3579 87.7212 80.295C87.787 80.2415 87.8536 80.1881 87.9181 80.1342C87.9949 80.07 88.0695 80.0053 88.1447 79.9406C88.2066 79.8872 88.2696 79.8342 88.3304 79.7805C88.4055 79.7143 88.4782 79.6475 88.5515 79.5808C88.6028 79.5341 88.6558 79.4878 88.7064 79.4408C88.7121 79.4355 88.7174 79.4299 88.7232 79.4246C88.8759 79.2823 89.024 79.1389 89.1688 78.9946C89.207 78.9566 89.2438 78.9182 89.2815 78.88C89.3901 78.7698 89.4965 78.6591 89.6005 78.5478C89.6426 78.5027 89.6846 78.4576 89.726 78.4124C89.8395 78.2881 89.9504 78.1633 90.0583 78.0377C90.0791 78.0135 90.101 77.9896 90.1216 77.9653C90.2479 77.8166 90.3696 77.6669 90.4879 77.5165C90.4978 77.504 90.5087 77.4916 90.5185 77.4791C90.5468 77.4428 90.5729 77.4061 90.6009 77.3697C90.6667 77.2839 90.7319 77.198 90.7953 77.1116C90.8351 77.0572 90.8741 77.0027 90.9129 76.9481C90.9724 76.8645 91.0309 76.7807 91.088 76.6966C91.1257 76.6411 91.1632 76.5856 91.1998 76.5299C91.256 76.4447 91.3105 76.3593 91.3642 76.2737C91.3981 76.2196 91.4324 76.1656 91.4653 76.1114C91.5213 76.0192 91.5751 75.9267 91.6282 75.8341C91.6498 75.7966 91.6732 75.7593 91.6943 75.7217C91.7001 75.7112 91.7053 75.7007 91.7112 75.6902C91.757 75.6079 91.8003 75.5253 91.8439 75.4427C91.8713 75.3909 91.8999 75.3391 91.9264 75.2871C91.9745 75.193 92.0196 75.0985 92.0648 75.004C92.0843 74.9631 92.1053 74.9224 92.1243 74.8815C92.1872 74.7458 92.2474 74.6098 92.3046 74.4734C92.3126 74.4541 92.3197 74.4348 92.3276 74.4154C92.3759 74.2984 92.4227 74.1813 92.4666 74.064C92.4684 74.0592 92.4704 74.0544 92.4722 74.0496C92.4911 73.9989 92.5076 73.948 92.5257 73.8972C92.554 73.8177 92.583 73.7383 92.6093 73.6586C92.6288 73.5998 92.646 73.5407 92.6645 73.4818C92.6884 73.4051 92.713 73.3284 92.7351 73.2516C92.7526 73.1907 92.768 73.1296 92.7845 73.0686C92.8046 72.9935 92.8254 72.9184 92.8439 72.8431C92.8592 72.7809 92.8724 72.7186 92.8865 72.6563C92.9033 72.582 92.9205 72.5078 92.9356 72.4335C92.9383 72.4202 92.9417 72.4071 92.9443 72.394C92.954 72.3452 92.9614 72.2962 92.9704 72.2473C92.9843 72.1716 92.9984 72.0961 93.0107 72.0204C93.0208 71.9574 93.0292 71.8945 93.0382 71.8314C93.0488 71.7566 93.0595 71.6819 93.0684 71.607C93.0761 71.5431 93.0822 71.479 93.0886 71.415C93.0959 71.341 93.1033 71.2671 93.1091 71.193C93.114 71.1285 93.1176 71.064 93.1214 70.9994C93.1257 70.9256 93.1298 70.8519 93.1325 70.7781C93.1334 70.7543 93.1353 70.7303 93.1361 70.7064C93.1385 70.6203 93.1398 70.5343 93.1401 70.4481L93.1686 60.3305C93.168 60.4405 93.1646 60.5504 93.1607 60.6604Z" fill="url(#paint3_linear)"/>
<path opacity="0.19" d="M93.1497 60.8828C93.1459 60.9469 93.1423 61.0109 93.1375 61.075C93.1317 61.1496 93.1243 61.2241 93.1169 61.2987C93.1106 61.3622 93.1046 61.4256 93.097 61.489C93.088 61.5643 93.0772 61.6395 93.0665 61.7148C93.0576 61.7774 93.0492 61.84 93.0392 61.9026C93.0269 61.9787 93.0127 62.0547 92.9987 62.1307C92.9873 62.1923 92.9767 62.2539 92.9642 62.3154C92.9489 62.3906 92.9315 62.4657 92.9145 62.5409C92.9005 62.6023 92.8875 62.6637 92.8725 62.7251C92.8538 62.8009 92.833 62.8765 92.8126 62.9522C92.7963 63.0128 92.781 63.0734 92.7636 63.1339C92.7415 63.211 92.7168 63.2878 92.6928 63.3647C92.6744 63.4234 92.6573 63.4823 92.6379 63.5409C92.6113 63.6216 92.582 63.702 92.5533 63.7824C92.5338 63.837 92.5157 63.8917 92.4953 63.9461C92.4521 64.0618 92.4058 64.1772 92.3584 64.2924C92.3496 64.3137 92.342 64.335 92.333 64.3562C92.276 64.4924 92.2159 64.6282 92.153 64.7637C92.1335 64.8057 92.1121 64.8475 92.092 64.8894C92.0473 64.9828 92.0027 65.0762 91.9553 65.1692C91.9285 65.2218 91.8995 65.2742 91.8717 65.3267C91.8284 65.4088 91.7854 65.4908 91.7398 65.5726C91.713 65.6206 91.6845 65.6684 91.657 65.7162C91.6037 65.809 91.5498 65.9018 91.4937 65.9941C91.4609 66.0481 91.4267 66.102 91.3929 66.1559C91.3392 66.2416 91.2846 66.3271 91.2284 66.4123C91.1917 66.468 91.1543 66.5235 91.1166 66.5791C91.0595 66.6631 91.001 66.7469 90.9415 66.8305C90.9027 66.8851 90.8637 66.9396 90.8239 66.9941C90.7605 67.0804 90.6954 67.1663 90.6295 67.2521C90.5919 67.3011 90.5549 67.3501 90.5165 67.3989C90.3981 67.5493 90.2764 67.699 90.1501 67.8477C90.1295 67.872 90.1076 67.896 90.0868 67.9202C89.979 68.0457 89.8681 68.1705 89.7545 68.2948C89.7131 68.3401 89.6711 68.3851 89.629 68.4302C89.525 68.5415 89.4186 68.6522 89.31 68.7624C89.2724 68.8006 89.2355 68.839 89.1973 68.8771C89.0525 69.0213 88.9044 69.1647 88.7517 69.307C88.6956 69.3594 88.6372 69.4112 88.58 69.4633C88.5066 69.5299 88.4341 69.5968 88.359 69.663C88.2981 69.7167 88.2352 69.7698 88.1732 69.823C88.0981 69.8877 88.0235 69.9524 87.9466 70.0167C87.8821 70.0705 87.8155 70.1239 87.7497 70.1774C87.6724 70.2403 87.5958 70.3034 87.5169 70.3658C87.4492 70.4193 87.3796 70.4723 87.3107 70.5256C87.231 70.5871 87.1517 70.6488 87.0704 70.7098C86.9994 70.7632 86.9264 70.816 86.8541 70.8689C86.7722 70.9289 86.6906 70.989 86.6071 71.0485C86.5329 71.1014 86.457 71.1537 86.3814 71.2061C86.2968 71.2649 86.2126 71.3238 86.1265 71.382C86.0493 71.4342 85.9705 71.4859 85.8921 71.5376C85.8049 71.5952 85.7179 71.6528 85.6292 71.7098C85.5492 71.7612 85.4677 71.8121 85.3864 71.8631C85.2962 71.9196 85.2061 71.9762 85.1143 72.0322C84.9704 72.12 84.8256 72.2076 84.6779 72.294C84.3617 72.479 84.0379 72.657 83.7109 72.8318C83.6246 72.8779 83.5379 72.9235 83.4509 72.9689C83.1571 73.1222 82.8599 73.272 82.5582 73.4172C82.5182 73.4364 82.4793 73.4566 82.4392 73.4756C82.1021 73.636 81.7592 73.7902 81.4129 73.9404C81.3234 73.9793 81.2329 74.0172 81.1428 74.0555C80.848 74.1804 80.5503 74.3018 80.2494 74.4194C80.1836 74.4451 80.1186 74.4719 80.0525 74.4973C79.6965 74.634 79.336 74.7651 78.9723 74.8918C78.8847 74.9223 78.7962 74.9516 78.7081 74.9816C78.6187 75.0119 78.5278 75.0401 78.4378 75.0696C78.2803 75.1212 78.1231 75.1735 77.9646 75.2238C77.7288 75.2985 77.4917 75.3712 77.2531 75.4419C77.0523 75.5014 76.8508 75.5599 76.6481 75.6166C76.4069 75.684 76.164 75.7487 75.9204 75.812C75.7164 75.865 75.5121 75.9176 75.3065 75.9678C75.0595 76.0281 74.8106 76.085 74.5614 76.1411C74.3556 76.1874 74.15 76.2339 73.9428 76.2774C73.6889 76.3307 73.4333 76.38 73.1776 76.4291C72.9512 76.4725 72.7255 76.5171 72.4977 76.5572C72.3944 76.5754 72.2908 76.5928 72.1872 76.6103C71.8385 76.6691 71.4885 76.7246 71.1369 76.7757C71.0768 76.7844 71.0171 76.7943 70.957 76.8028C70.5554 76.8597 70.1518 76.9105 69.7471 76.9572C69.6455 76.969 69.5436 76.9798 69.4418 76.9908C69.1915 77.0182 68.9402 77.0416 68.6891 77.065C68.3763 77.0943 68.0628 77.1204 67.7488 77.1436C67.5516 77.1582 67.3544 77.1728 67.1568 77.185C66.8298 77.2053 66.5022 77.221 66.1744 77.2348C65.9896 77.2427 65.805 77.2522 65.62 77.258C65.3358 77.2669 65.0513 77.2706 64.7669 77.2747C64.5676 77.2775 64.3684 77.2825 64.1692 77.283C63.8644 77.2838 63.5597 77.2785 63.255 77.2737C63.0757 77.2709 62.8964 77.271 62.7173 77.2663C62.4363 77.2588 62.1558 77.2452 61.8752 77.233C61.6825 77.2247 61.4893 77.2194 61.2967 77.2088C60.9949 77.1923 60.694 77.1691 60.393 77.1471C60.2222 77.1346 60.0509 77.1255 59.8804 77.1112C59.5152 77.0807 59.1515 77.0431 58.7881 77.0045C58.6837 76.9935 58.5786 76.9854 58.4744 76.9736C58.0072 76.921 57.5416 76.8617 57.0783 76.7957C57.0028 76.7849 56.9284 76.7714 56.8531 76.7602C56.456 76.7017 56.0599 76.6402 55.6665 76.5719C55.501 76.5431 55.3374 76.5095 55.1725 76.479C54.8712 76.4232 54.5698 76.3678 54.271 76.3062C54.1139 76.2738 53.9589 76.2373 53.8025 76.2032C53.4737 76.1317 53.1457 76.0586 52.8206 75.9799C52.639 75.9359 52.459 75.8889 52.2787 75.8427C51.9817 75.7667 51.686 75.6886 51.3926 75.6066C51.1407 75.5361 50.8892 75.4649 50.64 75.39C50.5466 75.3619 50.4527 75.3347 50.3598 75.306C49.9844 75.1902 49.612 75.0697 49.2436 74.9437C49.1727 74.9194 49.1029 74.8936 49.0322 74.8689C48.7268 74.7624 48.4242 74.6522 48.1242 74.5386C48.0223 74.5 47.9205 74.4613 47.8193 74.422C47.5803 74.329 47.3448 74.2317 47.1095 74.1342C46.9478 74.0672 46.7853 74.0012 46.6255 73.9321C46.3961 73.8328 46.1706 73.7292 45.9451 73.6255C45.7975 73.5577 45.6483 73.4917 45.5025 73.422C45.2563 73.3044 45.0152 73.1814 44.7741 73.0583C44.6543 72.9971 44.532 72.9385 44.4136 72.876C44.0568 72.6879 43.7053 72.4944 43.3608 72.2942C42.8374 71.99 42.3408 71.6761 41.8651 71.3554C41.6116 71.1846 41.3652 71.0114 41.1254 70.8362C39.364 69.5501 37.9666 68.1509 36.9338 66.6847C36.663 66.3002 36.4149 65.9115 36.1942 65.5187C36.1061 65.362 36.0215 65.2048 35.9414 65.0469C35.1586 63.5038 34.7607 61.9094 34.741 60.3143C34.7393 60.3439 34.7375 60.3735 34.7361 60.403L34.7334 61.355C34.8105 63.0065 35.2988 64.6529 36.1942 66.2389V75.6845C36.4159 76.0752 36.6624 76.4622 36.9338 76.8447V67.4042C37.9681 68.8668 39.3654 70.2628 41.1254 71.5457V80.9761C41.3655 81.1508 41.6115 81.3238 41.8651 81.4942V72.0654C42.3356 72.3821 42.8294 72.6912 43.3466 72.9918C52.6732 78.4131 66.6787 79.4156 77.6983 76.0034V85.4144C77.7775 85.3898 77.8574 85.3665 77.9363 85.3414C78.0393 85.3088 78.1447 85.2796 78.2471 85.2461C78.3112 85.2252 78.3744 85.203 78.438 85.1812V75.7623C80.6666 75.0225 82.766 74.1018 84.6637 72.9915C90.3924 69.6397 93.2188 65.2394 93.1516 60.8469C93.1508 60.8589 93.1504 60.8708 93.1497 60.8828Z" fill="white"/>
<path d="M93.1622 60.3233C93.1885 50.9136 80.1295 43.2489 63.9941 43.2038C47.8586 43.1586 34.7569 50.75 34.7306 60.1597C34.7042 69.5693 47.7632 77.234 63.8987 77.2792C80.0341 77.3244 93.1358 69.733 93.1622 60.3233Z" fill="url(#paint4_linear)"/>
<g opacity="0.3">
<path opacity="0.19" d="M86.0569 60.3037C86.0769 53.1821 76.1932 47.3811 63.9812 47.3469C51.7691 47.3127 41.8532 53.0582 41.8332 60.1799C41.8133 67.3016 51.6969 73.1025 63.909 73.1367C76.121 73.1709 86.037 67.4254 86.0569 60.3037Z" fill="white"/>
</g>
<path d="M85.2065 60.302C85.2255 53.4545 75.7223 47.8767 63.9804 47.8436C52.2385 47.8105 42.7044 53.3347 42.6854 60.1822C42.6663 67.0297 52.1696 72.6075 63.9114 72.6406C75.6533 72.6737 85.1874 67.1495 85.2065 60.302Z" fill="url(#paint5_linear)"/>
<path d="M75.4069 53.5447C81.775 57.2463 81.8086 63.2468 75.4818 66.9485C69.1559 70.6497 58.8657 70.6502 52.4977 66.9486C46.1304 63.2474 46.0969 57.246 52.4227 53.5448C58.7495 49.8431 69.0396 49.8436 75.4069 53.5447Z" fill="url(#paint6_linear)"/>
<path d="M75.3924 56.9617C69.0251 53.2605 58.735 53.2601 52.4083 56.9618C50.0167 58.361 48.5357 60.0893 47.9607 61.8975C48.5293 63.7475 50.0392 65.5195 52.4975 66.9485C58.8657 70.6501 69.1558 70.6496 75.4816 66.9484C77.8735 65.549 79.3546 63.8209 79.9298 62.0127C79.361 60.1629 77.8509 58.3908 75.3924 56.9617Z" fill="#F5A623"/>
<path d="M70.3543 83.4865C70.3548 83.4873 70.3552 83.4881 70.3556 83.4889C70.5978 83.9407 70.4304 84.5046 69.9816 84.7484L67.1507 86.2866C66.3398 86.7271 65.3471 86.7013 64.56 86.219L61.8739 84.5813C61.4378 84.3154 61.2982 83.7438 61.5623 83.3047C61.8265 82.8656 62.3942 82.7252 62.8303 82.9912L65.5181 84.6299C65.7489 84.7713 66.0377 84.7788 66.2737 84.6506L69.1046 83.1124C69.5525 82.869 70.1115 83.0366 70.3543 83.4865Z" fill="url(#paint7_linear)"/>
<path d="M69.9031 83.7332C69.9033 83.7336 69.9035 83.7339 69.9037 83.7342C70.0113 83.935 69.9369 84.1856 69.7374 84.2941L66.9065 85.8323C66.2554 86.186 65.4581 86.1653 64.8261 85.778L62.139 84.1397C61.9453 84.0215 61.8831 83.7676 62.0006 83.5724C62.1181 83.3772 62.3703 83.3148 62.5642 83.433L65.252 85.0717C65.6368 85.3075 66.1212 85.3201 66.5169 85.1051L69.3478 83.5669C69.5469 83.4587 69.7952 83.5332 69.9031 83.7332Z" fill="#F5A623"/>
<path d="M70.2349 79.775C70.2354 79.7758 70.2357 79.7765 70.2362 79.7773C70.4784 80.2291 70.311 80.793 69.8622 81.0369L67.0313 82.575C66.2204 83.0156 65.2277 82.9898 64.4406 82.5075L61.7545 80.8697C61.3184 80.6039 61.1788 80.0323 61.443 79.5932C61.7072 79.154 62.2748 79.0136 62.711 79.2797L65.3988 80.9184C65.6296 81.0598 65.9184 81.0673 66.1544 80.939L68.9853 79.4008C69.4332 79.1575 69.9921 79.325 70.2349 79.775Z" fill="url(#paint8_linear)"/>
<path d="M69.7845 80.0217C69.7846 80.022 69.7848 80.0223 69.785 80.0227C69.8927 80.2235 69.8183 80.4741 69.6188 80.5825L66.7879 82.1207C66.1367 82.4745 65.3395 82.4537 64.7074 82.0664L62.0204 80.4282C61.8266 80.31 61.7644 80.056 61.8819 79.8608C61.9993 79.6656 62.2517 79.6032 62.4455 79.7214L65.1334 81.3602C65.5182 81.5959 66.0026 81.6085 66.3982 81.3936L69.2291 79.8554C69.4281 79.7472 69.6765 79.8216 69.7845 80.0217Z" fill="#F5A623"/>
<path d="M48.5729 82.7336H48.3045C48.0382 82.7336 47.8223 82.5162 47.8223 82.2481V78.4198C47.8223 78.1517 48.0382 77.9343 48.3045 77.9343H48.5729C48.8392 77.9343 49.0551 78.1517 49.0551 78.4198V82.2481C49.0551 82.5162 48.8393 82.7336 48.5729 82.7336Z" fill="#9594BA"/>
<path d="M48.6762 77.9818C48.4531 78.0752 48.2961 78.2964 48.2961 78.5548V82.1128C48.2961 82.3712 48.4531 82.5924 48.6762 82.6858C48.8993 82.5924 49.0563 82.3712 49.0563 82.1128V78.5548C49.0563 78.2964 48.8993 78.0752 48.6762 77.9818Z" fill="#F5A623"/>
<path d="M52.1283 83.3957H51.8599C51.5936 83.3957 51.3777 83.1783 51.3777 82.9102V79.0819C51.3777 78.8138 51.5936 78.5964 51.8599 78.5964H52.1283C52.3946 78.5964 52.6105 78.8138 52.6105 79.0819V82.9102C52.6105 83.1783 52.3946 83.3957 52.1283 83.3957Z" fill="#9594BA"/>
<path d="M52.2302 78.6439C52.0071 78.7373 51.8501 78.9585 51.8501 79.2169V82.7749C51.8501 83.0333 52.0071 83.2545 52.2302 83.3479C52.4533 83.2545 52.6103 83.0333 52.6103 82.7749V79.2169C52.6103 78.9585 52.4533 78.7373 52.2302 78.6439Z" fill="#F5A623"/>
<path d="M55.683 84.0574H55.4146C55.1483 84.0574 54.9324 83.8401 54.9324 83.572V79.7436C54.9324 79.4756 55.1483 79.2582 55.4146 79.2582H55.683C55.9493 79.2582 56.1652 79.4756 56.1652 79.7436V83.572C56.1652 83.8402 55.9493 84.0574 55.683 84.0574Z" fill="#9594BA"/>
<path d="M55.7854 79.3062C55.5623 79.3995 55.4053 79.6207 55.4053 79.8791V83.4372C55.4053 83.6956 55.5623 83.9168 55.7854 84.0101C56.0085 83.9168 56.1654 83.6956 56.1654 83.4372V79.8791C56.1654 79.6207 56.0085 79.3994 55.7854 79.3062Z" fill="#F5A623"/>
<path d="M39.4983 15.5635L47.6854 60.2466C47.6989 62.6723 49.2992 65.0979 52.4829 66.9485C58.851 70.6501 69.1411 70.6496 75.467 66.9484C78.6303 65.0976 80.2036 62.672 80.1901 60.2466L88.3772 15.5635H39.4983Z" fill="url(#paint9_linear)"/>
<path opacity="0.9" d="M68.447 53.9229C68.447 54.421 68.0357 54.753 67.6244 54.753C67.1308 54.753 66.8018 54.338 66.8018 53.9229C66.8018 53.5078 67.2131 53.0928 67.6244 53.0928C68.0357 53.0928 68.447 53.4248 68.447 53.9229Z" fill="#F5A623"/>
<path opacity="0.3" d="M57.0956 46.9497C57.0956 47.2818 56.8488 47.4478 56.602 47.4478C56.2729 47.4478 56.1084 47.1988 56.1084 46.9497C56.1084 46.6177 56.3552 46.4517 56.602 46.4517C56.8488 46.4517 57.0956 46.7007 57.0956 46.9497Z" fill="#F5A623"/>
<path opacity="0.2" d="M60.8795 40.8898C60.8795 41.2219 60.6327 41.4709 60.3036 41.4709C59.9746 41.4709 59.7278 41.2219 59.7278 40.8898C59.7278 40.5578 59.9746 40.3087 60.3036 40.3087C60.6327 40.3087 60.8795 40.5578 60.8795 40.8898Z" fill="#F5A623"/>
<path opacity="0.2" d="M76.8021 38.8007C76.8021 38.9599 76.6468 39.1191 76.4914 39.1191C76.336 39.1191 76.1807 38.9599 76.1807 38.8007C76.1807 38.6415 76.336 38.4823 76.4914 38.4823C76.6468 38.4823 76.8021 38.6415 76.8021 38.8007Z" fill="#F5A623"/>
<path opacity="0.2" d="M75.8516 36.9052C75.8516 37.3203 75.5225 37.6523 75.1112 37.6523C74.6999 37.6523 74.3708 37.3203 74.3708 36.9052C74.3708 36.4901 74.6999 36.1581 75.1112 36.1581C75.5225 36.2411 75.8516 36.4901 75.8516 36.9052Z" fill="#F5A623"/>
<path opacity="0.2" d="M58.9047 40.1426C59.0865 40.1426 59.2338 39.994 59.2338 39.8106C59.2338 39.6272 59.0865 39.4785 58.9047 39.4785C58.723 39.4785 58.5757 39.6272 58.5757 39.8106C58.5757 39.994 58.723 40.1426 58.9047 40.1426Z" fill="#F5A623"/>
<path opacity="0.3" d="M58.7406 56.9113C58.7406 57.2433 58.4938 57.4094 58.247 57.4094C57.9179 57.4094 57.7534 57.1603 57.7534 56.9113C57.7534 56.6622 58.0002 56.4132 58.247 56.4132C58.4938 56.4132 58.7406 56.6622 58.7406 56.9113Z" fill="#F5A623"/>
<path opacity="0.2" d="M62.5245 50.8514C62.5245 51.1834 62.2777 51.4324 61.9486 51.4324C61.6196 51.4324 61.3728 51.1834 61.3728 50.8514C61.3728 50.5193 61.6196 50.2703 61.9486 50.2703C62.2777 50.3533 62.5245 50.6023 62.5245 50.8514Z" fill="#F5A623"/>
<path opacity="0.2" d="M60.5502 50.1042C60.732 50.1042 60.8793 49.9555 60.8793 49.7721C60.8793 49.5887 60.732 49.4401 60.5502 49.4401C60.3685 49.4401 60.2212 49.5887 60.2212 49.7721C60.2212 49.9555 60.3685 50.1042 60.5502 50.1042Z" fill="#F5A623"/>
<path opacity="0.9" d="M65.5398 45.2031C65.6273 45.6096 66.0647 45.8534 66.502 45.7721C66.9394 45.6908 67.2018 45.2844 67.1144 44.878C67.0269 44.4716 66.5895 44.2277 66.1521 44.309C65.6273 44.3903 65.3649 44.7967 65.5398 45.2031Z" fill="#F5A623"/>
<path opacity="0.3" d="M73.7124 36.6198C73.8001 36.8793 74.0631 37.0522 74.3261 36.9657C74.5891 36.8793 74.7644 36.6198 74.6768 36.3604C74.5891 36.101 74.3261 35.9281 74.0631 36.0146C73.8001 36.0146 73.7124 36.3604 73.7124 36.6198Z" fill="#F5A623"/>
<path opacity="0.2" d="M69.106 32.1372C69.1936 32.3966 69.4566 32.5695 69.7196 32.4831C69.9826 32.3966 70.158 32.1372 70.0703 31.8778C69.9826 31.6184 69.7196 31.4454 69.4566 31.5319C69.1936 31.5319 69.106 31.8778 69.106 32.1372Z" fill="#F5A623"/>
<path opacity="0.2" d="M55.1413 33.8996C55.219 34.0588 55.3743 34.1384 55.5297 34.1384C55.685 34.0588 55.7627 33.8996 55.7627 33.7404C55.685 33.5812 55.5297 33.5016 55.3743 33.5016C55.219 33.5812 55.0636 33.7404 55.1413 33.8996Z" fill="#F5A623"/>
<path opacity="0.2" d="M55.3027 32.137C55.3882 32.4822 55.7304 32.7412 56.0725 32.6549C56.4147 32.5685 56.6713 32.2233 56.5858 31.878C56.5002 31.5327 56.1581 31.2738 55.8159 31.3601C55.4738 31.3601 55.2172 31.7917 55.3027 32.137Z" fill="#F5A623"/>
<path opacity="0.2" d="M70.4428 30.9112C70.5205 31.0704 70.6758 31.15 70.8312 31.15C70.9866 31.0704 71.0642 30.9112 71.0642 30.752C70.9866 30.5928 70.8312 30.5132 70.6758 30.5132C70.5205 30.5928 70.3651 30.752 70.4428 30.9112Z" fill="#F5A623"/>
<path opacity="0.2" d="M74.2368 57.2828C74.0814 57.3624 73.926 57.3624 73.7707 57.2828C73.693 57.1236 73.693 56.9644 73.7707 56.8052C73.926 56.7256 74.0814 56.7256 74.2368 56.8052C74.3921 56.9644 74.3921 57.2032 74.2368 57.2828Z" fill="#F5A623"/>
<path opacity="0.2" d="M75.1121 55.3983C74.7627 55.6577 74.3258 55.6577 74.0638 55.3118C73.8017 54.9658 73.8017 54.5334 74.1511 54.2739C74.5006 54.0145 74.9374 54.0145 75.1995 54.3604C75.4615 54.6199 75.3742 55.1388 75.1121 55.3983Z" fill="#F5A623"/>
<path opacity="0.3" d="M73.8087 53.6325C73.6321 53.8927 73.7204 54.1529 73.897 54.3264C74.1618 54.4999 74.4267 54.4131 74.6033 54.2397C74.7799 53.9794 74.6916 53.7192 74.515 53.5457C74.3384 53.3722 73.9852 53.3722 73.8087 53.6325Z" fill="#F5A623"/>
<path opacity="0.2" d="M74.3026 47.1359C74.126 47.4032 74.2143 47.6705 74.3908 47.8487C74.6557 48.0269 74.9206 47.9378 75.0972 47.7596C75.2738 47.4923 75.1855 47.225 75.0089 47.0468C74.8323 46.8686 74.4791 46.9577 74.3026 47.1359Z" fill="#F5A623"/>
<path opacity="0.2" d="M76.2317 47.2284C76.154 47.3876 76.154 47.5468 76.3094 47.6264C76.4647 47.706 76.6201 47.706 76.6978 47.5468C76.7755 47.3876 76.7755 47.2284 76.6201 47.1488C76.4647 47.0692 76.3094 47.1488 76.2317 47.2284Z" fill="#F5A623"/>
<path d="M63.5274 62.968C63.6079 63.3744 64.0107 63.6183 64.4134 63.537C64.8162 63.4557 65.0578 63.0493 64.9773 62.6429C64.8967 62.2365 64.494 61.9926 64.0912 62.0739C63.6885 62.1552 63.4468 62.5616 63.5274 62.968Z" fill="#F5A623"/>
<path d="M65.6724 58.7836C65.7576 59.1277 66.0134 59.2998 66.3544 59.2137C66.6954 59.1277 66.8659 58.8696 66.7806 58.5255C66.6954 58.1814 66.4396 58.0094 66.0986 58.0954C65.7576 58.1814 65.5871 58.4395 65.6724 58.7836Z" fill="#F5A623"/>
<path opacity="0.9" d="M68.447 43.4633C68.447 43.9614 68.0357 44.2934 67.6244 44.2934C67.1308 44.2934 66.8018 43.8784 66.8018 43.4633C66.8018 43.0482 67.2131 42.6332 67.6244 42.6332C68.0357 42.6332 68.447 43.0482 68.447 43.4633Z" fill="#F5A623"/>
<path opacity="0.3" d="M57.0956 36.4901C57.0956 36.8222 56.8488 36.9882 56.602 36.9882C56.2729 36.9882 56.1084 36.7392 56.1084 36.4901C56.1084 36.1581 56.3552 35.9921 56.602 35.9921C56.8488 35.9921 57.0956 36.2411 57.0956 36.4901Z" fill="#F5A623"/>
<path opacity="0.2" d="M60.8795 30.2641C60.8795 30.5961 60.6327 30.8452 60.3036 30.8452C59.9746 30.8452 59.7278 30.5961 59.7278 30.2641C59.7278 29.932 59.9746 29.683 60.3036 29.683C60.6327 29.683 60.8795 29.932 60.8795 30.2641Z" fill="#F5A623"/>
<path opacity="0.2" d="M76.8021 28.3411C76.8021 28.5003 76.6468 28.6595 76.4914 28.6595C76.336 28.6595 76.1807 28.5003 76.1807 28.3411C76.1807 28.1819 76.336 28.0227 76.4914 28.0227C76.6468 28.0227 76.8021 28.1819 76.8021 28.3411Z" fill="#F5A623"/>
<path opacity="0.2" d="M75.275 27.1927C75.6839 27.1927 76.0154 26.8582 76.0154 26.4456C76.0154 26.033 75.6839 25.6985 75.275 25.6985C74.8661 25.6985 74.5347 26.033 74.5347 26.4456C74.5347 26.8582 74.8661 27.1927 75.275 27.1927Z" fill="#F5A623"/>
<path opacity="0.2" d="M58.9047 29.5171C59.0865 29.5171 59.2338 29.3685 59.2338 29.1851C59.2338 29.0017 59.0865 28.853 58.9047 28.853C58.723 28.853 58.5757 29.0017 58.5757 29.1851C58.5757 29.3685 58.723 29.5171 58.9047 29.5171Z" fill="#F5A623"/>
<path opacity="0.3" d="M58.7406 46.4517C58.7406 46.7837 58.4938 46.9498 58.247 46.9498C57.9179 46.9498 57.7534 46.7007 57.7534 46.4517C57.7534 46.1196 58.0002 45.9536 58.247 45.9536C58.4938 45.9536 58.7406 46.2027 58.7406 46.4517Z" fill="#F5A623"/>
<path opacity="0.2" d="M62.5245 40.2259C62.5245 40.5579 62.2777 40.807 61.9486 40.807C61.6196 40.807 61.3728 40.5579 61.3728 40.2259C61.3728 39.8938 61.6196 39.6448 61.9486 39.6448C62.2777 39.7278 62.5245 39.9768 62.5245 40.2259Z" fill="#F5A623"/>
<path opacity="0.2" d="M60.5502 39.4787C60.732 39.4787 60.8793 39.33 60.8793 39.1466C60.8793 38.9632 60.732 38.8146 60.5502 38.8146C60.3685 38.8146 60.2212 38.9632 60.2212 39.1466C60.2212 39.33 60.3685 39.4787 60.5502 39.4787Z" fill="#F5A623"/>
<path opacity="0.9" d="M65.5398 34.7433C65.6273 35.1497 66.0647 35.3936 66.502 35.3123C66.9394 35.231 67.2018 34.8246 67.1144 34.4182C67.0269 34.0118 66.5895 33.7679 66.1521 33.8492C65.6273 33.9305 65.3649 34.3369 65.5398 34.7433Z" fill="#F5A623"/>
<path opacity="0.3" d="M73.7124 26.1601C73.8001 26.4195 74.0631 26.5925 74.3261 26.506C74.5891 26.4195 74.7644 26.1601 74.6768 25.9007C74.5891 25.6413 74.3261 25.4684 74.0631 25.5548C73.8001 25.6413 73.7124 25.9007 73.7124 26.1601Z" fill="#F5A623"/>
<path opacity="0.2" d="M69.106 21.6775C69.1936 21.9369 69.4566 22.1098 69.7196 22.0233C69.9826 21.9369 70.158 21.6775 70.0703 21.4181C69.9826 21.1586 69.7196 20.9857 69.4566 21.0722C69.1936 21.0722 69.106 21.4181 69.106 21.6775Z" fill="#F5A623"/>
<path opacity="0.2" d="M55.1413 23.4399C55.219 23.5991 55.3743 23.6787 55.5297 23.6787C55.685 23.5991 55.7627 23.4399 55.7627 23.2807C55.685 23.1215 55.5297 23.0419 55.3743 23.0419C55.219 23.1215 55.0636 23.2807 55.1413 23.4399Z" fill="#F5A623"/>
<path opacity="0.2" d="M55.3027 21.6772C55.3882 22.0225 55.7304 22.2815 56.0725 22.1951C56.4147 22.1088 56.6713 21.7636 56.5858 21.4183C56.5002 21.073 56.1581 20.8141 55.8159 20.9004C55.4738 20.9867 55.2172 21.332 55.3027 21.6772Z" fill="#F5A623"/>
<path opacity="0.2" d="M70.4428 20.2855C70.5205 20.4447 70.6758 20.5243 70.8312 20.5243C70.9866 20.4447 71.0642 20.2855 71.0642 20.1263C70.9866 19.9671 70.8312 19.8875 70.6758 19.8875C70.5205 19.8875 70.3651 20.1263 70.4428 20.2855Z" fill="#F5A623"/>
<path opacity="0.2" d="M74.2368 46.823C74.0814 46.9026 73.926 46.9026 73.7707 46.823C73.693 46.6637 73.693 46.5045 73.7707 46.3453C73.926 46.2657 74.0814 46.2657 74.2368 46.3453C74.3921 46.5045 74.3921 46.7433 74.2368 46.823Z" fill="#F5A623"/>
<path opacity="0.2" d="M75.1121 44.9384C74.7627 45.1979 74.3258 45.1979 74.0638 44.8519C73.8017 44.506 73.8017 44.0736 74.1511 43.8141C74.5006 43.5546 74.9374 43.5546 75.1995 43.9006C75.4615 44.2465 75.3742 44.679 75.1121 44.9384Z" fill="#F5A623"/>
<path opacity="0.3" d="M73.8087 43.1729C73.6321 43.4331 73.7204 43.6933 73.897 43.8668C74.1618 44.0403 74.4267 43.9535 74.6033 43.7801C74.7799 43.5198 74.6916 43.2596 74.515 43.0861C74.3384 42.9126 73.9852 42.9126 73.8087 43.1729Z" fill="#F5A623"/>
<path opacity="0.2" d="M74.3026 36.7254C74.126 36.9765 74.2143 37.2276 74.3908 37.395C74.6557 37.5624 74.9206 37.4787 75.0972 37.3113C75.2738 37.0602 75.1855 36.8091 75.0089 36.6417C74.8323 36.3906 74.4791 36.4743 74.3026 36.7254Z" fill="#F5A623"/>
<path opacity="0.2" d="M76.2317 36.7689C76.154 36.9281 76.154 37.0873 76.3094 37.167C76.4647 37.2466 76.6201 37.2466 76.6978 37.0873C76.7755 36.9281 76.7755 36.7689 76.6201 36.6893C76.4647 36.6097 76.3094 36.6893 76.2317 36.7689Z" fill="#F5A623"/>
<path d="M63.5274 52.5082C63.6079 52.9146 64.0107 53.1585 64.4134 53.0772C64.8162 52.9959 65.0578 52.5895 64.9773 52.1831C64.8967 51.7766 64.494 51.5328 64.0912 51.6141C63.6885 51.6954 63.4468 52.1018 63.5274 52.5082Z" fill="#F5A623"/>
<path d="M65.6724 48.158C65.7576 48.5021 66.0134 48.6742 66.3544 48.5881C66.6954 48.5021 66.8659 48.244 66.7806 47.8999C66.6954 47.5558 66.4396 47.3838 66.0986 47.4698C65.7576 47.5558 65.5871 47.8999 65.6724 48.158Z" fill="#F5A623"/>
<path opacity="0.5" d="M51.9863 27.694V60.5535C51.9964 62.3374 53.1732 64.1212 55.5144 65.4821C60.1975 68.2043 67.7648 68.2039 72.4167 65.4821C74.743 64.1209 75.9 62.3373 75.8901 60.5535V27.694H51.9863Z" fill="url(#paint10_linear)"/>
<path opacity="0.5" d="M51.0977 34.1766L55.1912 58.2239C55.1985 59.5294 56.0597 60.8348 57.773 61.8307C61.2001 63.8229 66.738 63.8226 70.1424 61.8306C71.8448 60.8346 72.6916 59.5292 72.6843 58.2239L76.7778 34.1766H51.0977Z" fill="url(#paint11_linear)"/>
<path d="M51.2535 60.8393H50.5599C50.3997 60.8393 50.2698 60.7086 50.2698 60.5472V52.7912C50.2698 52.6299 50.3997 52.4991 50.5599 52.4991H51.2535C51.4137 52.4991 51.5436 52.6299 51.5436 52.7912V60.5472C51.5436 60.7086 51.4137 60.8393 51.2535 60.8393Z" fill="url(#paint12_linear)"/>
<g filter="url(#filter0_d)">
<path d="M50.9062 53.6491C51.1441 53.6491 51.337 53.4549 51.337 53.2154C51.337 52.9758 51.1441 52.7816 50.9062 52.7816C50.6682 52.7816 50.4753 52.9758 50.4753 53.2154C50.4753 53.4549 50.6682 53.6491 50.9062 53.6491Z" fill="black"/>
</g>
<path d="M50.9062 53.6491C51.1441 53.6491 51.337 53.4549 51.337 53.2154C51.337 52.9758 51.1441 52.7816 50.9062 52.7816C50.6682 52.7816 50.4753 52.9758 50.4753 53.2154C50.4753 53.4549 50.6682 53.6491 50.9062 53.6491Z" fill="#F5A623"/>
<path d="M50.9062 54.8388C51.1441 54.8388 51.337 54.6446 51.337 54.4051C51.337 54.1655 51.1441 53.9713 50.9062 53.9713C50.6682 53.9713 50.4753 54.1655 50.4753 54.4051C50.4753 54.6446 50.6682 54.8388 50.9062 54.8388Z" fill="#F5A623"/>
<path d="M51.337 55.5945C51.337 55.8341 51.1441 56.0283 50.9062 56.0283C50.6682 56.0283 50.4753 55.8341 50.4753 55.5945C50.4753 55.355 50.6682 55.1608 50.9062 55.1608C51.1441 55.1608 51.337 55.355 51.337 55.5945Z" fill="#F5A623"/>
<path d="M51.337 56.784C51.337 57.0235 51.1441 57.2177 50.9062 57.2177C50.6682 57.2177 50.4753 57.0235 50.4753 56.784C50.4753 56.5444 50.6682 56.3502 50.9062 56.3502C51.1441 56.3502 51.337 56.5444 51.337 56.784Z" fill="#F5A623"/>
<path d="M51.337 57.9734C51.337 58.213 51.1441 58.4072 50.9062 58.4072C50.6682 58.4072 50.4753 58.213 50.4753 57.9734C50.4753 57.7339 50.6682 57.5397 50.9062 57.5397C51.1441 57.5397 51.337 57.7339 51.337 57.9734Z" fill="#F5A623"/>
<path opacity="0.49" d="M75.1685 46.6183H74.4749C74.3147 46.6183 74.1848 46.4875 74.1848 46.3262V38.5702C74.1848 38.4089 74.3147 38.2781 74.4749 38.2781H75.1685C75.3288 38.2781 75.4587 38.4089 75.4587 38.5702V46.3262C75.4587 46.4875 75.3288 46.6183 75.1685 46.6183Z" fill="url(#paint13_linear)"/>
<g filter="url(#filter1_d)">
<path d="M75.252 38.9945C75.252 39.2341 75.0592 39.4283 74.8212 39.4283C74.5833 39.4283 74.3904 39.2341 74.3904 38.9945C74.3904 38.755 74.5833 38.5608 74.8212 38.5608C75.0592 38.5607 75.252 38.755 75.252 38.9945Z" fill="black"/>
</g>
<path d="M75.252 38.9945C75.252 39.2341 75.0592 39.4283 74.8212 39.4283C74.5833 39.4283 74.3904 39.2341 74.3904 38.9945C74.3904 38.755 74.5833 38.5608 74.8212 38.5608C75.0592 38.5607 75.252 38.755 75.252 38.9945Z" fill="#F5A623"/>
<path d="M75.253 40.184C75.253 40.4236 75.0601 40.6177 74.8222 40.6177C74.5842 40.6177 74.3914 40.4236 74.3914 40.184C74.3914 39.9444 74.5842 39.7502 74.8222 39.7502C75.0601 39.7502 75.253 39.9444 75.253 40.184Z" fill="#F5A623"/>
<path d="M75.253 41.3734C75.253 41.613 75.0601 41.8072 74.8222 41.8072C74.5842 41.8072 74.3914 41.613 74.3914 41.3734C74.3914 41.1339 74.5842 40.9397 74.8222 40.9397C75.0601 40.9397 75.253 41.1339 75.253 41.3734Z" fill="#F5A623"/>
<path d="M75.253 42.5628C75.253 42.8023 75.0601 42.9965 74.8222 42.9965C74.5842 42.9965 74.3914 42.8023 74.3914 42.5628C74.3914 42.3232 74.5842 42.129 74.8222 42.129C75.0601 42.129 75.253 42.3232 75.253 42.5628Z" fill="#F5A623"/>
<path d="M75.253 43.7522C75.253 43.9918 75.0601 44.186 74.8222 44.186C74.5842 44.186 74.3914 43.9918 74.3914 43.7522C74.3914 43.5127 74.5842 43.3185 74.8222 43.3185C75.0601 43.3185 75.253 43.5127 75.253 43.7522Z" fill="#F5A623"/>
<path d="M71.2435 63.1819H70.5499C70.3897 63.1819 70.2598 63.0511 70.2598 62.8898V55.1338C70.2598 54.9725 70.3897 54.8417 70.5499 54.8417H71.2435C71.4037 54.8417 71.5336 54.9725 71.5336 55.1338V62.8898C71.5336 63.0511 71.4037 63.1819 71.2435 63.1819Z" fill="url(#paint14_linear)"/>
<g filter="url(#filter2_d)">
<path d="M70.8962 55.9921C71.1341 55.9921 71.327 55.7979 71.327 55.5584C71.327 55.3188 71.1341 55.1246 70.8962 55.1246C70.6582 55.1246 70.4653 55.3188 70.4653 55.5584C70.4653 55.7979 70.6582 55.9921 70.8962 55.9921Z" fill="black"/>
</g>
<path d="M70.8962 55.9921C71.1341 55.9921 71.327 55.7979 71.327 55.5584C71.327 55.3188 71.1341 55.1246 70.8962 55.1246C70.6582 55.1246 70.4653 55.3188 70.4653 55.5584C70.4653 55.7979 70.6582 55.9921 70.8962 55.9921Z" fill="#F5A623"/>
<path d="M70.8981 57.1811C71.136 57.1811 71.3289 56.9869 71.3289 56.7474C71.3289 56.5078 71.136 56.3136 70.8981 56.3136C70.6602 56.3136 70.4673 56.5078 70.4673 56.7474C70.4673 56.9869 70.6602 57.1811 70.8981 57.1811Z" fill="#F5A623"/>
<path d="M71.3289 57.937C71.3289 58.1766 71.1361 58.3708 70.8981 58.3708C70.6602 58.3708 70.4673 58.1766 70.4673 57.937C70.4673 57.6975 70.6602 57.5033 70.8981 57.5033C71.1361 57.5033 71.3289 57.6975 71.3289 57.937Z" fill="#F5A623"/>
<path d="M71.3289 59.1265C71.3289 59.3661 71.1361 59.5603 70.8981 59.5603C70.6602 59.5603 70.4673 59.3661 70.4673 59.1265C70.4673 58.8869 70.6602 58.6927 70.8981 58.6927C71.1361 58.6927 71.3289 58.8869 71.3289 59.1265Z" fill="#F5A623"/>
<path d="M71.3289 60.316C71.3289 60.5555 71.1361 60.7497 70.8981 60.7497C70.6602 60.7497 70.4673 60.5555 70.4673 60.316C70.4673 60.0764 70.6602 59.8822 70.8981 59.8822C71.1361 59.8822 71.3289 60.0764 71.3289 60.316Z" fill="#F5A623"/>
<path d="M90.2155 14.5449C94.1816 14.5449 97.3968 11.2889 97.3968 7.27247C97.3968 3.256 94.1816 0 90.2155 0C86.2494 0 83.0342 3.256 83.0342 7.27247C83.0342 11.2889 86.2494 14.5449 90.2155 14.5449Z" fill="#EE0005"/>
<path d="M99.1376 14.5449C103.104 14.5449 106.319 11.2889 106.319 7.27247C106.319 3.256 103.104 0 99.1376 0C95.1715 0 91.9563 3.256 91.9563 7.27247C91.9563 11.2889 95.1715 14.5449 99.1376 14.5449Z" fill="#F9A000"/>
<path d="M91.9563 7.27237C91.9563 9.58153 93.0192 11.6391 94.6764 12.9713C96.3336 11.639 97.3966 9.58153 97.3966 7.27237C97.3966 4.96321 96.3336 2.90563 94.6764 1.57349C93.0193 2.90574 91.9563 4.96327 91.9563 7.27237Z" fill="#FF6300"/>
<g opacity="0.8">
<path d="M40.2815 14.3161L42.7047 0.512695H46.4909L44.1434 14.3161H40.2815Z" fill="white"/>
<path d="M57.8499 0.665241C57.0927 0.358499 55.8811 0.0517578 54.3666 0.0517578C50.5804 0.0517578 47.8544 1.96889 47.8544 4.72956C47.8544 6.80007 49.7475 7.87366 51.2619 8.56383C52.7764 9.254 53.2308 9.71411 53.2308 10.3276C53.2308 11.2478 52.0192 11.7079 50.959 11.7079C49.4446 11.7079 48.6116 11.4779 47.3243 10.9411L46.7942 10.711L46.2642 13.8551C47.1728 14.2385 48.8388 14.622 50.5804 14.622C54.5938 14.622 57.2441 12.7048 57.2441 9.7908C57.2441 8.1804 56.2597 6.95344 53.988 5.95653C52.625 5.26636 51.792 4.88293 51.792 4.19277C51.792 3.57928 52.4735 2.9658 53.988 2.9658C55.2753 2.9658 56.184 3.19586 56.8655 3.5026L57.2441 3.65597L57.8499 0.665241Z" fill="white"/>
<path fill-rule="evenodd" clip-rule="evenodd" d="M62.3934 1.50936C62.772 0.589136 63.4535 0.512451 64.3622 0.512451H67.3155L70.4959 14.3158H66.8611L66.4068 12.0153H61.5604L60.8032 14.3158H56.7141L62.3934 1.50936ZM64.1351 5.6506C64.1351 5.6506 62.8478 9.02475 62.6206 9.71492V9.79161H65.801C65.6496 9.02475 64.8923 5.57391 64.8923 5.57391L64.6651 4.27026C64.438 4.80706 64.1351 5.6506 64.1351 5.6506Z" fill="white"/>
<path d="M33.3155 10.1749L32.9369 8.18108C32.2554 5.88052 30.0594 3.34991 27.6362 2.12294L31.0438 14.3926H35.1329L41.2665 0.589233H37.1774L33.3155 10.1749Z" fill="white"/>
<path d="M22.7898 0.512695L23.4713 0.666066C28.3176 1.81635 31.6495 4.73039 32.9368 8.18123L31.5738 1.66298C31.3466 0.742751 30.6651 0.512695 29.8321 0.512695H22.7898V0.512695Z" fill="#E8E4E4"/>
</g>
<defs>
<filter id="filter0_d" x="47.0938" y="49.4001" width="7.62465" height="7.63051" filterUnits="userSpaceOnUse" color-interpolation-filters="sRGB">
<feFlood flood-opacity="0" result="BackgroundImageFix"/>
<feColorMatrix in="SourceAlpha" type="matrix" values="0 0 0 0 0 0 0 0 0 0 0 0 0 0 0 0 0 0 127 0"/>
<feOffset/>
<feGaussianBlur stdDeviation="1.69075"/>
<feColorMatrix type="matrix" values="0 0 0 0 0.960784 0 0 0 0 0.65098 0 0 0 0 0.137255 0 0 0 1 0"/>
<feBlend mode="normal" in2="BackgroundImageFix" result="effect1_dropShadow"/>
<feBlend mode="normal" in="SourceGraphic" in2="effect1_dropShadow" result="shape"/>
</filter>
<filter id="filter1_d" x="71.0089" y="35.1793" width="7.62465" height="7.63051" filterUnits="userSpaceOnUse" color-interpolation-filters="sRGB">
<feFlood flood-opacity="0" result="BackgroundImageFix"/>
<feColorMatrix in="SourceAlpha" type="matrix" values="0 0 0 0 0 0 0 0 0 0 0 0 0 0 0 0 0 0 127 0"/>
<feOffset/>
<feGaussianBlur stdDeviation="1.69075"/>
<feColorMatrix type="matrix" values="0 0 0 0 0.960784 0 0 0 0 0.65098 0 0 0 0 0.137255 0 0 0 1 0"/>
<feBlend mode="normal" in2="BackgroundImageFix" result="effect1_dropShadow"/>
<feBlend mode="normal" in="SourceGraphic" in2="effect1_dropShadow" result="shape"/>
</filter>
<filter id="filter2_d" x="67.0838" y="51.7431" width="7.62465" height="7.63051" filterUnits="userSpaceOnUse" color-interpolation-filters="sRGB">
<feFlood flood-opacity="0" result="BackgroundImageFix"/>
<feColorMatrix in="SourceAlpha" type="matrix" values="0 0 0 0 0 0 0 0 0 0 0 0 0 0 0 0 0 0 127 0"/>
<feOffset/>
<feGaussianBlur stdDeviation="1.69075"/>
<feColorMatrix type="matrix" values="0 0 0 0 0.960784 0 0 0 0 0.65098 0 0 0 0 0.137255 0 0 0 1 0"/>
<feBlend mode="normal" in2="BackgroundImageFix" result="effect1_dropShadow"/>
<feBlend mode="normal" in="SourceGraphic" in2="effect1_dropShadow" result="shape"/>
</filter>
<linearGradient id="paint0_linear" x1="60.3177" y1="74.1781" x2="5.09628" y2="96.9194" gradientUnits="userSpaceOnUse">
<stop stop-color="#F5A623"/>
<stop offset="1" stop-color="#F5A623" stop-opacity="0"/>
</linearGradient>
<linearGradient id="paint1_linear" x1="89.5539" y1="55.4363" x2="112.501" y2="47.3667" gradientUnits="userSpaceOnUse">
<stop stop-color="#F5A623"/>
<stop offset="1" stop-color="#2635B3" stop-opacity="0"/>
</linearGradient>
<linearGradient id="paint2_linear" x1="85.437" y1="80.4224" x2="79.9633" y2="98.3593" gradientUnits="userSpaceOnUse">
<stop stop-color="#F5A623"/>
<stop offset="1" stop-color="#F9BE51" stop-opacity="0"/>
</linearGradient>
<linearGradient id="paint3_linear" x1="72.5877" y1="71.1714" x2="64.3611" y2="82.6041" gradientUnits="userSpaceOnUse">
<stop offset="2.2e-07" stop-color="#2E2A71"/>
<stop offset="0.4609" stop-color="#4F5085"/>
<stop offset="1" stop-color="#807FAE"/>
</linearGradient>
<linearGradient id="paint4_linear" x1="37.1784" y1="61.5376" x2="86.7219" y2="53.0166" gradientUnits="userSpaceOnUse">
<stop stop-color="#9695BB"/>
<stop offset="1" stop-color="#535488"/>
</linearGradient>
<linearGradient id="paint5_linear" x1="70.6799" y1="56.0994" x2="47.4509" y2="69.7629" gradientUnits="userSpaceOnUse">
<stop stop-color="#7F7CA7"/>
<stop offset="1" stop-color="#C2BCD5"/>
</linearGradient>
<linearGradient id="paint6_linear" x1="95.3155" y1="64.8996" x2="51.3287" y2="40.6984" gradientUnits="userSpaceOnUse">
<stop stop-color="#FF9628"/>
<stop offset="1" stop-color="#F9BE51"/>
</linearGradient>
<linearGradient id="paint7_linear" x1="61.9791" y1="84.9176" x2="69.4418" y2="82.865" gradientUnits="userSpaceOnUse">
<stop stop-color="#6262AB"/>
<stop offset="1" stop-color="#353573"/>
</linearGradient>
<linearGradient id="paint8_linear" x1="61.8597" y1="81.2061" x2="69.3223" y2="79.1534" gradientUnits="userSpaceOnUse">
<stop stop-color="#6262AB"/>
<stop offset="1" stop-color="#353573"/>
</linearGradient>
<linearGradient id="paint9_linear" x1="63.9998" y1="70" x2="67.5301" y2="16.2318" gradientUnits="userSpaceOnUse">
<stop stop-color="#F5A623"/>
<stop offset="1" stop-color="#F9BE51" stop-opacity="0"/>
</linearGradient>
<linearGradient id="paint10_linear" x1="63.9382" y1="27.694" x2="63.9382" y2="67.5236" gradientUnits="userSpaceOnUse">
<stop stop-color="#F5A623" stop-opacity="0"/>
<stop offset="1" stop-color="#F8852D"/>
</linearGradient>
<linearGradient id="paint11_linear" x1="57.3477" y1="34.1766" x2="57.3477" y2="63.3247" gradientUnits="userSpaceOnUse">
<stop stop-color="#FFF0B8" stop-opacity="0"/>
<stop offset="1" stop-color="#FFF0DB"/>
</linearGradient>
<linearGradient id="paint12_linear" x1="50.5798" y1="60.8393" x2="50.5798" y2="52.4991" gradientUnits="userSpaceOnUse">
<stop stop-color="#FFF0B8" stop-opacity="0"/>
<stop offset="1" stop-color="#FFBE68"/>
</linearGradient>
<linearGradient id="paint13_linear" x1="74.4948" y1="46.6183" x2="74.4948" y2="38.2781" gradientUnits="userSpaceOnUse">
<stop stop-color="#FFF0B8" stop-opacity="0"/>
<stop offset="1" stop-color="#FFBE68"/>
</linearGradient>
<linearGradient id="paint14_linear" x1="70.5698" y1="63.1819" x2="70.5698" y2="54.8417" gradientUnits="userSpaceOnUse">
<stop stop-color="#FFF0B8" stop-opacity="0"/>
<stop offset="1" stop-color="#FFBE68"/>
</linearGradient>
</defs>
</svg>
